<svg width="24" height="24" viewBox="0 0 24 24" fill="none" xmlns="http://www.w3.org/2000/svg">
<path d="M2.625 3H21.375C22.824 3 24 4.176 24 5.625V18.375C24 19.0712 23.7234 19.7389 23.2312 20.2312C22.7389 20.7234 22.0712 21 21.375 21H2.625C1.92881 21 1.26113 20.7234 0.768845 20.2312C0.276562 19.7389 0 19.0712 0 18.375L0 5.625C0 4.176 1.176 3 2.625 3ZM2.25 18.3765C2.25 18.5835 2.418 18.7515 2.625 18.7515H21.375C21.4745 18.7515 21.5698 18.712 21.6402 18.6417C21.7105 18.5713 21.75 18.476 21.75 18.3765V8.7135L12.57 14.0955C12.3972 14.197 12.2004 14.2506 12 14.2506C11.7996 14.2506 11.6028 14.197 11.43 14.0955L2.25 8.7135V18.3765ZM21.75 6.105V5.625C21.75 5.52554 21.7105 5.43016 21.6402 5.35984C21.5698 5.28951 21.4745 5.25 21.375 5.25H2.625C2.52554 5.25 2.43016 5.28951 2.35984 5.35984C2.28951 5.43016 2.25 5.52554 2.25 5.625V6.105L12 11.82L21.75 6.105Z" fill="#20A7DB"/>
</svg>
