<svg width="24" height="24" viewBox="0 0 24 24" fill="none" xmlns="http://www.w3.org/2000/svg">
<path d="M16 2.375C16.3978 2.375 16.7794 2.51987 17.0607 2.77773C17.342 3.03559 17.5 3.38533 17.5 3.75V20.25C17.5 20.6147 17.342 20.9644 17.0607 21.2223C16.7794 21.4801 16.3978 21.625 16 21.625H7C6.60218 21.625 6.22064 21.4801 5.93934 21.2223C5.65804 20.9644 5.5 20.6147 5.5 20.25V3.75C5.5 3.38533 5.65804 3.03559 5.93934 2.77773C6.22064 2.51987 6.60218 2.375 7 2.375H16ZM7 1C6.20435 1 5.44129 1.28973 4.87868 1.80546C4.31607 2.32118 4 3.02065 4 3.75V20.25C4 20.9793 4.31607 21.6788 4.87868 22.1945C5.44129 22.7103 6.20435 23 7 23H16C16.7956 23 17.5587 22.7103 18.1213 22.1945C18.6839 21.6788 19 20.9793 19 20.25V3.75C19 3.02065 18.6839 2.32118 18.1213 1.80546C17.5587 1.28973 16.7956 1 16 1H7Z" fill="#20A7DB" stroke="#20A7DB" stroke-width="0.5"/>
<path d="M11.5 20C11.8978 20 12.2794 19.842 12.5607 19.5607C12.842 19.2794 13 18.8978 13 18.5C13 18.1022 12.842 17.7206 12.5607 17.4393C12.2794 17.158 11.8978 17 11.5 17C11.1022 17 10.7206 17.158 10.4393 17.4393C10.158 17.7206 10 18.1022 10 18.5C10 18.8978 10.158 19.2794 10.4393 19.5607C10.7206 19.842 11.1022 20 11.5 20Z" fill="#20A7DB"/>
</svg>
