<svg width="1000" height="274" viewBox="0 0 1000 274" fill="none" xmlns="http://www.w3.org/2000/svg">
<path d="M19.2036 57.0019V22.2446H73.2844V57.0019H108.868V98.4325H73.2844V152.376C73.2844 161.644 76.9086 167.391 84.157 169.615C90.4641 171.84 98.7009 172.071 108.868 170.31V213.826C98.9833 215.309 88.4872 216.051 77.3793 216.051C56.5754 216.051 41.702 211.046 32.7591 201.036C23.7221 191.026 19.2036 175.455 19.2036 154.322V98.4325H0V57.0019H19.2036Z" fill="#1B1464"/>
<path d="M131.601 213.548V57.0019H183.282L185.823 74.3805C194.578 61.1264 210.863 54.453 234.679 54.3603V99.4057C202.109 99.4057 185.823 111.362 185.823 135.275V213.548H131.601Z" fill="#1B1464"/>
<path d="M312.906 54.2213C324.579 54.2213 334.698 56.1213 343.265 59.9215C351.925 63.6289 358.185 68.8657 362.045 75.6317L364.586 57.0019H416.267V213.548H364.586L362.045 194.919C358.373 201.777 352.255 207.06 343.688 210.768C335.122 214.383 324.861 216.19 312.906 216.19C292.196 216.19 274.875 208.636 260.943 193.528C247.011 178.606 240.045 159.188 240.045 135.275C240.045 111.455 247.011 91.9908 260.943 76.883C274.875 61.7752 292.196 54.2213 312.906 54.2213ZM304.01 161.274C310.411 167.854 318.46 171.145 328.156 171.145C337.758 171.145 345.806 167.854 352.302 161.274C358.797 154.786 362.045 146.119 362.045 135.275C362.045 124.431 358.797 115.718 352.302 109.138C345.806 102.65 337.758 99.4057 328.156 99.4057C318.366 99.4057 310.317 102.65 304.01 109.138C297.515 115.718 294.267 124.431 294.267 135.275C294.267 146.119 297.515 154.786 304.01 161.274Z" fill="#1B1464"/>
<path d="M507.484 54.2213C519.157 54.2213 529.276 56.1213 537.842 59.9215C546.503 63.6289 552.763 68.8657 556.622 75.6317V0H610.844V213.548H559.164L556.622 194.919C552.951 201.777 546.832 207.06 538.266 210.768C529.7 214.383 519.439 216.19 507.484 216.19C486.774 216.19 469.453 208.636 455.521 193.528C441.589 178.606 434.623 159.188 434.623 135.275C434.623 111.455 441.589 91.9908 455.521 76.883C469.453 61.7752 486.774 54.2213 507.484 54.2213ZM522.734 171.145C532.336 171.145 540.384 167.854 546.879 161.274C553.375 154.786 556.622 146.119 556.622 135.275C556.622 124.431 553.375 115.718 546.879 109.138C540.384 102.65 532.336 99.4057 522.734 99.4057C512.944 99.4057 504.895 102.65 498.588 109.138C492.093 115.718 488.845 124.431 488.845 135.275C488.845 146.119 492.14 154.786 498.729 161.274C505.225 167.854 513.226 171.145 522.734 171.145Z" fill="#1B1464"/>
<path d="M751.201 75.6317L753.742 57.0019H805.423V202.426C805.423 217.534 801.657 230.556 794.126 241.493C786.595 252.245 776.523 260.216 763.909 265.406C751.106 270.597 736.563 273.192 720.277 273.192C687.236 273.192 660.736 262.255 640.78 240.381L665.773 212.158C677.54 224.856 694.296 231.205 716.041 231.205C725.737 231.205 734.021 228.378 740.893 222.724C747.765 217.07 751.201 209.517 751.201 200.063V188.523C744.235 201.221 727.855 207.57 702.062 207.57C691.989 207.57 682.482 205.763 673.539 202.148C664.596 198.533 656.83 193.436 650.24 186.855C643.651 180.274 638.473 172.21 634.708 162.664C631.037 153.117 629.201 142.875 629.201 131.938C629.201 109.601 636.214 91.0176 650.24 76.1878C664.267 61.5435 681.54 54.2213 702.062 54.2213C713.735 54.2213 723.854 56.1213 732.421 59.9215C741.081 63.6289 747.341 68.8657 751.201 75.6317ZM717.312 164.749C726.819 164.749 734.868 161.644 741.458 155.434C747.953 149.132 751.201 141.3 751.201 131.938C751.201 122.577 747.953 114.792 741.458 108.582C734.868 102.464 726.819 99.4057 717.312 99.4057C707.992 99.4057 699.991 102.464 693.307 108.582C686.718 114.792 683.423 122.577 683.423 131.938C683.423 141.392 686.718 149.224 693.307 155.434C699.897 161.644 707.898 164.749 717.312 164.749Z" fill="#20A7DB"/>
<path d="M945.496 210.629C935.047 214.151 923.845 215.912 911.889 215.912C899.934 215.912 888.732 214.151 878.283 210.629C855.785 203.029 840.017 189.357 830.98 169.615C826.179 159.327 823.779 147.88 823.779 135.275C823.779 122.763 826.179 111.269 830.98 100.796C839.923 81.2392 855.69 67.5681 878.283 59.7824C888.732 56.2604 899.934 54.4993 911.889 54.4993C923.845 54.4993 935.047 56.2604 945.496 59.7824C968.088 67.5681 983.903 81.2392 992.94 100.796C997.647 111.362 1000 122.855 1000 135.275C1000 147.788 997.647 159.234 992.94 169.615C983.809 189.357 967.994 203.029 945.496 210.629ZM887.602 161.274C894.098 167.854 902.193 171.145 911.889 171.145C921.491 171.145 929.54 167.854 936.035 161.274C942.53 154.786 945.778 146.119 945.778 135.275C945.778 124.431 942.53 115.718 936.035 109.138C929.54 102.65 921.491 99.4057 911.889 99.4057C902.193 99.4057 894.098 102.65 887.602 109.138C881.107 115.718 877.859 124.431 877.859 135.275C877.859 146.119 881.107 154.786 887.602 161.274Z" fill="#20A7DB"/>
</svg>
