<svg width="1000" height="274" viewBox="0 0 1000 274" fill="none" xmlns="http://www.w3.org/2000/svg">
<path d="M19.2036 57.1938V22.4365H73.2844V57.1938H108.868V98.6244H73.2844V152.568C73.2844 161.836 76.9086 167.583 84.157 169.807C90.4641 172.032 98.7009 172.263 108.868 170.502V214.018C98.9833 215.501 88.4872 216.243 77.3793 216.243C56.5754 216.243 41.702 211.238 32.7591 201.228C23.7221 191.218 19.2036 175.646 19.2036 154.514V98.6244H0V57.1938H19.2036Z" fill="white"/>
<path d="M131.601 213.74V57.1938H183.282L185.823 74.5724C194.578 61.3183 210.863 54.6449 234.679 54.5522V99.5976C202.109 99.5976 185.823 111.554 185.823 135.467V213.74H131.601Z" fill="white"/>
<path d="M312.906 54.4132C324.579 54.4132 334.698 56.3132 343.265 60.1134C351.925 63.8208 358.185 69.0576 362.045 75.8236L364.586 57.1938H416.267V213.74H364.586L362.045 195.11C358.373 201.969 352.255 207.252 343.688 210.96C335.122 214.574 324.861 216.382 312.906 216.382C292.196 216.382 274.875 208.828 260.943 193.72C247.011 178.798 240.045 159.38 240.045 135.467C240.045 111.647 247.011 92.1827 260.943 77.0749C274.875 61.9671 292.196 54.4132 312.906 54.4132ZM304.01 161.465C310.411 168.046 318.46 171.336 328.156 171.336C337.758 171.336 345.806 168.046 352.302 161.465C358.797 154.977 362.045 146.311 362.045 135.467C362.045 124.623 358.797 115.91 352.302 109.33C345.806 102.842 337.758 99.5976 328.156 99.5976C318.366 99.5976 310.317 102.842 304.01 109.33C297.515 115.91 294.267 124.623 294.267 135.467C294.267 146.311 297.515 154.977 304.01 161.465Z" fill="white"/>
<path d="M507.484 54.4132C519.157 54.4132 529.276 56.3132 537.842 60.1134C546.503 63.8208 552.763 69.0576 556.622 75.8236V0.191895H610.844V213.74H559.164L556.622 195.11C552.951 201.969 546.832 207.252 538.266 210.96C529.7 214.574 519.439 216.382 507.484 216.382C486.774 216.382 469.453 208.828 455.521 193.72C441.589 178.798 434.623 159.38 434.623 135.467C434.623 111.647 441.589 92.1827 455.521 77.0749C469.453 61.9671 486.774 54.4132 507.484 54.4132ZM522.734 171.336C532.336 171.336 540.384 168.046 546.879 161.465C553.375 154.977 556.622 146.311 556.622 135.467C556.622 124.623 553.375 115.91 546.879 109.33C540.384 102.842 532.336 99.5976 522.734 99.5976C512.944 99.5976 504.895 102.842 498.588 109.33C492.093 115.91 488.845 124.623 488.845 135.467C488.845 146.311 492.14 154.977 498.729 161.465C505.225 168.046 513.226 171.336 522.734 171.336Z" fill="white"/>
<path d="M751.2 75.8236L753.742 57.1938H805.422V202.618C805.422 217.726 801.657 230.748 794.126 241.685C786.595 252.437 776.523 260.408 763.909 265.598C751.106 270.789 736.562 273.384 720.277 273.384C687.236 273.384 660.736 262.447 640.78 240.573L665.773 212.35C677.54 225.048 694.296 231.397 716.041 231.397C725.737 231.397 734.021 228.57 740.893 222.916C747.765 217.262 751.2 209.708 751.2 200.255V188.715C744.234 201.413 727.855 207.762 702.062 207.762C691.989 207.762 682.482 205.955 673.539 202.34C664.596 198.725 656.83 193.627 650.24 187.047C643.651 180.466 638.473 172.402 634.708 162.856C631.037 153.309 629.201 143.067 629.201 132.13C629.201 109.793 636.214 91.2095 650.24 76.3797C664.266 61.7354 681.54 54.4132 702.062 54.4132C713.735 54.4132 723.854 56.3132 732.421 60.1134C741.081 63.8208 747.341 69.0576 751.2 75.8236ZM717.312 164.941C726.819 164.941 734.868 161.836 741.458 155.626C747.953 149.324 751.2 141.492 751.2 132.13C751.2 122.769 747.953 114.983 741.458 108.773C734.868 102.656 726.819 99.5976 717.312 99.5976C707.992 99.5976 699.991 102.656 693.307 108.773C686.718 114.983 683.423 122.769 683.423 132.13C683.423 141.584 686.718 149.416 693.307 155.626C699.897 161.836 707.898 164.941 717.312 164.941Z" fill="#20A7DB"/>
<path d="M945.495 210.821C935.046 214.343 923.844 216.104 911.889 216.104C899.934 216.104 888.732 214.343 878.283 210.821C855.785 203.22 840.017 189.549 830.98 169.807C826.179 159.519 823.779 148.072 823.779 135.467C823.779 122.954 826.179 111.461 830.98 100.988C839.923 81.4311 855.69 67.7599 878.283 59.9743C888.732 56.4523 899.934 54.6912 911.889 54.6912C923.844 54.6912 935.046 56.4523 945.495 59.9743C968.088 67.7599 983.903 81.4311 992.94 100.988C997.647 111.554 1000 123.047 1000 135.467C1000 147.98 997.647 159.426 992.94 169.807C983.809 189.549 967.994 203.22 945.495 210.821ZM887.602 161.465C894.098 168.046 902.193 171.336 911.889 171.336C921.491 171.336 929.54 168.046 936.035 161.465C942.53 154.977 945.778 146.311 945.778 135.467C945.778 124.623 942.53 115.91 936.035 109.33C929.54 102.842 921.491 99.5976 911.889 99.5976C902.193 99.5976 894.098 102.842 887.602 109.33C881.107 115.91 877.859 124.623 877.859 135.467C877.859 146.311 881.107 154.977 887.602 161.465Z" fill="#20A7DB"/>
</svg>
