<svg width="500" height="500" viewBox="0 0 500 500" fill="none" xmlns="http://www.w3.org/2000/svg">
<path d="M249.999 500C388.073 500 500 388.071 500 250C500 111.929 388.073 0 249.999 0C111.929 0 0 111.929 0 250C0 388.071 111.929 500 249.999 500Z" fill="#1B1464"/>
<path d="M369.947 405.408C365.55 407.023 363.238 413.02 364.817 418.727C365.887 422.65 369.495 425.418 373.666 425.418C378.514 425.418 381.952 422.708 383.192 417.807C383.925 414.807 383.925 414.288 383.025 411.521C381.615 407.368 378.851 405.119 374.85 404.833C373.215 404.774 371.016 405.005 369.947 405.408Z" fill="#26256A"/>
<path d="M171.358 88.2616C174.964 96.4513 178.405 104.404 179.023 106.02C179.641 107.579 180.374 109.311 180.711 109.885C180.991 110.46 183.527 116.114 186.293 122.457L191.308 133.987L189.899 140.905C188.549 147.421 188.491 148.98 188.377 166.854L188.319 185.884L201.624 186.056C211.372 186.171 215.094 186.401 215.489 186.918C215.941 187.55 216.954 189.742 220.618 198.276C223.039 203.872 233.865 228.721 235.108 231.43C235.841 233.046 236.516 234.72 236.631 235.18C236.803 235.927 233.42 236.099 212.558 236.336L188.319 236.624L188.147 244.698C187.809 261.595 190.065 273.068 195.754 283.621C201.279 293.773 207.874 300.058 218.75 305.647C224.785 308.758 231.092 310.545 239.892 311.645C246.825 312.508 248.8 312.566 254.49 311.99C258.095 311.587 262.609 310.956 264.525 310.545L268.017 309.8L269.655 313.55C271.343 317.355 285.043 348.605 287.578 354.49C288.311 356.164 288.93 357.781 288.93 358.068C288.93 358.872 280.022 361.415 271.457 363.025C263.957 364.412 262.048 364.584 248.628 364.584C235.834 364.584 233.01 364.412 226.645 363.256C212.838 360.776 203.65 357.895 193.161 352.7C166.502 339.554 147.672 315.971 139.777 285.756C137.241 276.07 136.114 266.552 135.776 250.87L135.438 236.336H123.491C114.583 236.336 111.372 236.164 110.92 235.589C110.639 235.244 109.677 233.226 108.836 231.15C107.988 229.131 106.58 225.848 105.733 223.944C102.629 217.198 89.3819 186.753 89.3819 186.408C89.3819 186.293 99.7557 186.178 112.435 186.178H135.489L135.769 164.957C135.991 147.543 136.279 142.356 137.234 135.719C138.527 127.012 140.956 116.631 143.269 109.943C144.957 105.043 150.819 92.2416 152.737 89.2961C156.911 82.7804 158.657 80.1868 161.415 76.8392C163.053 74.7631 164.519 73.1468 164.569 73.2616C164.706 73.3838 167.744 80.1295 171.358 88.2616Z" fill="white"/>
<path d="M265.21 49.3965C303.765 55.9698 334.204 81.2284 349.31 118.937C351.681 124.878 355.058 136.121 355.74 140.388L356.136 142.809L328.4 142.694L300.661 142.522L299.591 139.353C296.883 131.393 291.754 123.031 286.171 117.557C268.585 100.259 241.581 95.8762 219.318 106.717L214.074 109.253L210.69 101.351C208.829 97.0258 204.153 86.2426 200.259 77.3633C196.365 68.484 193.097 60.8691 192.989 60.4094C192.817 59.4322 194.792 58.2758 201.272 55.7398C210.345 52.1047 221.337 49.5689 233.406 48.2469C240.805 47.4353 257.322 48.0172 265.21 49.3965Z" fill="#2BAAE2"/>
<path d="M358.22 221.753C358.22 257.328 357.88 264.138 355.682 276.128C351.681 297.695 343.785 314.878 330.489 331.019C326.43 335.92 320.289 341.861 319.216 341.861C318.879 341.861 316.343 336.673 313.521 330.33C310.763 323.988 305.626 312.226 302.076 304.209C298.526 296.136 295.646 289.275 295.646 288.872C295.646 288.471 296.379 286.739 297.284 285.008C302.413 275.38 304.67 265.172 305.065 249.721L305.403 238.362H273.334L270.963 233.003C269.721 230.122 265.266 219.914 261.1 210.402C253.6 193.276 251.688 188.836 251.688 188.434C251.688 188.319 275.646 188.204 304.956 188.204H358.225L358.22 221.753Z" fill="#2BAAE2"/>
<path d="M294.525 399.467C294.525 420.804 294.353 428.068 293.851 428.585C293.118 429.331 281.336 429.62 279.647 428.93C279.087 428.699 278.742 427.896 278.742 426.623C278.742 425.525 278.628 424.663 278.521 424.663C278.412 424.663 276.997 425.525 275.367 426.623C268.377 431.351 255.352 429.914 249.094 423.684C247.91 422.472 245.991 419.648 244.921 417.457C243.176 413.765 243.004 412.903 242.837 407.535C242.723 402.637 242.895 401.019 243.851 398.311C247.233 388.973 254.505 384.181 265.159 384.239C267.751 384.239 270.172 384.526 270.509 384.871C270.791 385.157 271.523 385.446 272.033 385.446C272.543 385.446 274.29 386.308 275.869 387.406L278.742 389.424V371.034H294.533L294.525 399.467Z" fill="white"/>
<path d="M134.152 384.475L142.608 384.592L142.953 396.99H133.872V415.439L135.338 416.014C136.128 416.359 138.096 416.587 139.792 416.587C143.34 416.587 143.455 416.76 143.455 422.873C143.455 429.447 143.34 429.561 135.395 429.102C130.546 428.816 128.182 428.413 126.322 427.543C124.914 426.912 123.671 426.387 123.505 426.387C123.053 426.387 120.69 423.851 119.727 422.35C118.089 419.757 117.529 415.603 117.529 406.265V396.983H111.896V390.588C111.896 384.878 112.011 384.247 112.909 384.361C113.419 384.419 114.713 384.419 115.726 384.361L117.529 384.303V380.035C117.529 373.519 117.019 373.864 125.927 374.036L133.592 374.209L134.152 384.475Z" fill="white"/>
<path d="M212.507 384.878C212.845 385.109 214.031 385.626 215.216 386.034C216.401 386.379 217.975 387.421 218.707 388.225L220.115 389.784V388.342C220.115 387.535 220.288 386.321 220.453 385.576C220.79 384.361 221.013 384.303 228.348 384.303H235.898V406.445C235.898 426.105 235.783 428.644 234.993 428.93C233.528 429.506 222.364 429.333 221.186 428.699C220.453 428.24 220.115 427.429 220.115 425.933C220.058 423.801 220.058 423.801 219.102 425.015C218.542 425.705 217.522 426.458 216.846 426.63C216.171 426.861 215.266 427.437 214.821 427.903C213.183 429.577 204.39 429.863 199.433 428.42C189.907 425.654 184.44 417.695 184.605 406.681C184.663 400.682 185.676 396.876 188.212 393.131C192.155 387.249 199.598 383.851 207.716 384.196C210.022 384.303 212.22 384.592 212.507 384.878Z" fill="white"/>
<path d="M165.883 386.034C166.164 388.801 166.616 390.302 167.011 389.726C167.687 388.75 173.096 385.459 174.059 385.459C174.569 385.459 175.129 385.172 175.302 384.886C175.474 384.541 176.882 384.31 178.455 384.31H181.214V399.295L178.111 399.412C172.586 399.584 171.911 399.698 170.05 400.682C166.559 402.528 166.329 403.448 165.991 416.881L165.711 428.993H150.495L150.323 406.623L150.208 384.252L165.711 384.597L165.883 386.034Z" fill="white"/>
<path d="M329.188 385.165C330.826 385.682 333.248 386.838 334.49 387.759C335.732 388.735 336.911 389.49 337.084 389.49C337.256 389.49 337.365 388.456 337.365 387.183V384.82L352.307 385.165V408.808C352.307 435.043 352.193 435.969 348.471 441.214C340.862 452.112 317.918 453.032 307.938 442.946C305.461 440.408 302.809 435.043 303.319 433.605C303.6 432.916 304.956 432.743 310.869 432.743C317.918 432.743 318.083 432.802 318.988 434.189C320.509 436.552 323.103 437.535 327.667 437.535C332.457 437.535 334.145 436.615 335.948 432.982C337.02 430.733 337.867 424.102 337.076 424.102C336.797 424.102 335.783 424.792 334.706 425.603C330.532 428.829 323.098 430.216 317.573 428.715C307.033 425.834 301.28 417.989 301.28 406.458C301.28 398.785 304.662 391.924 310.583 387.774C315.152 384.533 323.268 383.441 329.188 385.165Z" fill="#2BAAE2"/>
<path d="M391.983 385.165C399.929 387.241 405.345 391.509 408.162 397.68C409.513 400.791 409.8 402.061 409.8 406.214C409.8 411.983 408.894 415.266 406.25 419.072C404.052 422.183 399.204 426.164 396.782 426.744C395.877 426.975 394.921 427.32 394.584 427.551C393.57 428.354 388.103 429.282 384.721 429.282C376.042 429.282 368.032 425.647 363.527 419.597C360.877 416.019 359.749 411.696 360.035 405.647C360.152 401.493 360.489 400.106 362.013 396.94C364.886 390.999 368.608 388.06 376.273 385.697C381.28 384.13 387.363 383.9 391.983 385.165Z" fill="#2BAAE2"/>
<path d="M263.182 398.261C260.195 400.396 259.008 402.7 259.008 406.45C259.008 413.081 262.558 416.775 268.815 416.544C272.084 416.43 274.059 415.626 276.315 413.377C278.341 411.415 278.793 405.188 277.221 401.79C275.811 398.735 272.989 397.178 268.592 397.12C265.661 397.049 264.591 397.277 263.182 398.261Z" fill="#1B1464"/>
<path d="M204.785 398.377C201.854 400.396 200.783 402.414 200.611 406.05C200.388 412.563 204.052 416.602 210.309 416.602C213.183 416.602 214.088 416.313 216.006 414.929C220.065 411.932 221.193 407.026 218.995 402.3C217.249 398.605 214.375 396.94 210.029 397.054C207.486 397.163 206.02 397.508 204.785 398.377Z" fill="#1B1464"/>
<path d="M323.103 397.219C320.512 398.197 318.592 400.33 317.299 403.793C316.394 406.215 316.394 406.501 317.358 409.675C318.542 413.656 321.473 416.308 325.195 416.881C330.159 417.688 335.512 414.404 336.754 409.906C337.543 407.084 337.543 406.387 336.638 403.851C334.548 397.794 329.023 395.086 323.103 397.219Z" fill="#1B1464"/>
<path d="M380.826 397.163C376.43 398.778 374.117 404.777 375.697 410.482C376.767 414.404 380.375 417.17 384.548 417.17C389.396 417.17 392.832 414.46 394.074 409.554C394.807 406.559 394.807 406.034 393.902 403.268C392.492 399.115 389.728 396.869 385.725 396.58C384.095 396.529 381.896 396.76 380.826 397.163Z" fill="#1B1464"/>
</svg>
