<svg width="120" height="120" viewBox="0 0 120 120" fill="none" xmlns="http://www.w3.org/2000/svg">
<circle cx="60" cy="60" r="60" fill="#1B1464"/>
<path d="M96.9598 80.5999C96.5176 81.7478 96.2348 82.9865 95.6065 84.0198C94.0283 86.6133 91.6119 87.9057 88.5806 88.0456C88.2932 88.0605 88.0044 88.0456 87.6262 88.0456C87.6262 89.0104 87.6262 89.929 87.6262 90.8417C87.6217 92.8486 86.3592 94.2616 84.5428 94.2854C82.7249 94.3092 81.4058 92.8591 81.3909 90.8268C81.3864 89.929 81.3909 89.0357 81.3909 88.0933H37.8524C37.8524 89.064 37.8658 90.0541 37.8524 91.0337C37.8182 92.7102 36.8251 93.9296 35.2916 94.2139C33.4305 94.5593 31.699 93.1911 31.632 91.2883C31.5933 90.2461 31.626 89.198 31.626 88.1603C30.6628 88.0307 29.7129 87.9876 28.8106 87.7672C24.95 86.8248 22.3073 83.4525 22.2939 79.4802C22.279 75.9249 22.288 72.3695 22.2939 68.8156C22.2984 63.7416 26.0294 60.0001 31.0796 59.9957C44.9364 59.9957 58.7872 59.9957 72.6424 59.9957H73.6265C73.6265 59.7113 73.6265 59.4567 73.6265 59.2021C73.6265 55.4264 73.6116 51.6555 73.6355 47.8797C73.6459 46.328 74.7581 45.0788 76.2648 44.8292C77.7075 44.5936 79.1904 45.4633 79.6504 46.8803C79.8038 47.356 79.8514 47.8844 79.8514 48.3888C79.8663 51.9678 79.8619 55.547 79.8619 59.1262V59.9897C80.3844 59.9897 80.84 59.9897 81.2912 59.9897C83.5498 59.9897 85.8128 59.9897 88.0714 59.9897C92.6094 59.9897 95.9474 62.7336 96.8437 67.1823C96.8631 67.2732 96.9211 67.355 96.9643 67.4369V80.585L96.9598 80.5999ZM40.9507 74.0564C40.9641 71.4717 38.8738 69.3575 36.2981 69.3531C33.7521 69.3486 31.6513 71.4196 31.6216 73.9596C31.5933 76.5502 33.6702 78.6778 36.24 78.7016C38.8202 78.7209 40.9403 76.6365 40.9552 74.0564H40.9507ZM82.9646 69.3531C80.3889 69.3531 78.2881 71.4524 78.2881 74.0325C78.2881 76.5829 80.3651 78.6778 82.9066 78.6971C85.4867 78.7165 87.6069 76.6261 87.6158 74.0519C87.6307 71.4672 85.5403 69.3531 82.9601 69.3486L82.9646 69.3531ZM47.1905 74.0132C47.1845 76.6127 49.2615 78.7016 51.8476 78.7016C54.4129 78.7016 56.533 76.5681 56.5137 74.0028C56.4943 71.4568 54.4084 69.368 51.8714 69.3531C49.2808 69.3382 47.195 71.4136 47.1905 74.0132Z" fill="white"/>
<path d="M77.3478 25.7144C83.3568 25.8537 88.8477 28.3709 93.1162 33.4728C94.1048 34.6545 94.0572 36.1004 93.0105 36.9796C91.9609 37.8588 90.551 37.657 89.549 36.48C84.1042 30.0715 75.2843 28.5198 68.2197 32.7425C66.5804 33.7226 65.1884 34.9956 63.9228 36.432C63.506 36.9075 62.8628 37.3063 62.2538 37.4696C61.3144 37.7194 60.3883 37.1718 59.9223 36.3455C59.4384 35.4855 59.5248 34.5056 60.1769 33.6842C61.9233 31.484 64.0241 29.6969 66.4792 28.3469C69.6683 26.5935 73.1031 25.7383 77.3419 25.7191L77.3478 25.7144Z" fill="#20A7DB"/>
<path d="M66.3659 41.8217C66.5327 41.399 66.6384 40.9425 66.8692 40.563C71.2628 33.2611 82.1775 33.2563 86.6009 40.539C87.3334 41.7496 87.0506 43.1669 85.9339 43.8634C84.8262 44.5552 83.4207 44.2621 82.7016 43.0756C79.977 38.5887 73.3829 38.6607 70.7298 43.1188C70.1491 44.094 69.0846 44.4303 68.0781 44.1084C67.0702 43.7865 66.4419 42.917 66.36 41.8169L66.3659 41.8217Z" fill="#20A7DB"/>
</svg>
