<svg width="120" height="120" viewBox="0 0 120 120" fill="none" xmlns="http://www.w3.org/2000/svg">
<circle cx="60" cy="60" r="60" fill="#1B1464"/>
<path d="M25.2412 27.3612C25.7791 26.121 26.7129 25.7144 28.0527 25.7144C43.7541 25.7448 59.4558 25.7348 75.1674 25.7348C77.0755 25.7348 77.8368 26.4972 77.8368 28.4084C77.8368 38.1782 77.8368 47.9478 77.8368 57.7181V58.4803C77.5729 58.501 77.3699 58.5202 77.177 58.5202C59.9531 58.5202 42.7393 58.5202 25.5152 58.5202C25.4239 58.5202 25.3325 58.5202 25.2412 58.5202C25.2412 48.1412 25.2412 37.7512 25.2412 27.3714V27.3612ZM61.4147 49.0555C61.2624 48.7512 61.161 48.5578 61.0593 48.3539C58.796 43.5766 56.5326 38.7883 54.2591 34.01C54.0865 33.644 53.914 33.1662 53.3863 33.4001C52.8178 33.6542 53.0817 34.1118 53.2644 34.498C53.5994 35.2096 53.9445 35.9314 54.2794 36.643C56.4311 41.1773 58.5728 45.7216 60.7245 50.2563C60.9173 50.6521 61.1 51.11 61.6583 50.8146C61.851 50.7127 61.9627 50.438 62.0642 50.215C64.5508 44.9896 67.0275 39.7539 69.504 34.5184C69.575 34.376 69.7069 34.2236 69.6867 34.0914C69.6461 33.8576 69.575 33.5221 69.4125 33.4408C69.2502 33.3594 68.9051 33.4814 68.7325 33.6238C68.56 33.766 68.4992 34.0508 68.3875 34.2744C66.0733 39.1541 63.7592 44.0442 61.3841 49.0466L61.4147 49.0555ZM41.9679 34.4268C44.2616 34.4268 46.454 34.4268 48.6463 34.4268C49.0523 34.4268 49.4786 34.4168 49.499 33.888C49.5192 33.3594 49.1132 33.3187 48.6869 33.3187C43.8456 33.3187 39.0041 33.3187 34.1628 33.3187C33.7567 33.3187 33.3305 33.3391 33.3509 33.888C33.3711 34.4268 33.7974 34.4268 34.1932 34.4268C36.1622 34.4268 38.1313 34.4268 40.1003 34.4268C40.3439 34.4268 40.5774 34.4268 40.8616 34.4268C40.8616 34.7624 40.8616 35.0166 40.8616 35.2604C40.8616 40.1097 40.8616 44.959 40.8616 49.8088C40.8616 50.0111 40.8007 50.2563 40.892 50.4084C41.0037 50.6108 41.2472 50.8663 41.4299 50.8663C41.6025 50.8663 41.836 50.6019 41.9374 50.3981C42.0187 50.2356 41.9679 50.0023 41.9679 49.7984C41.9679 44.9692 41.9679 40.1403 41.9679 35.3114C41.9679 35.047 41.9679 34.7726 41.9679 34.4268Z" fill="white"/>
<path d="M25.2422 59.6085C25.5366 59.6085 25.831 59.6292 26.1253 59.6292C43.0449 59.6292 59.9745 59.6292 76.894 59.6292C77.1782 59.6292 77.4725 59.6292 77.777 59.6292C77.777 60.2288 77.8378 60.7473 77.7668 61.2554C77.6451 62.0795 76.8838 62.7604 76.0515 62.8815C75.8992 62.9022 75.7369 62.9126 75.5744 62.9126C59.5584 62.9126 43.532 62.9126 27.5158 62.9126C26.3283 62.9126 25.6483 62.2715 25.2322 61.2347C25.2322 60.6867 25.2322 60.1476 25.2322 59.5982L25.2422 59.6085ZM51.4995 62.0485C51.7837 61.7132 52.0781 61.5094 52.0577 61.3573C52.0171 61.1328 51.7431 60.9496 51.5706 60.7473C51.3879 60.9304 51.1037 61.0929 51.0427 61.3056C51.0021 61.4592 51.266 61.6925 51.4894 62.0485H51.4995Z" fill="white"/>
<path d="M65.3028 94.2857C59.8929 94.2857 54.4933 94.2857 49.0836 94.2857C47.7234 94.2857 47.287 93.8589 47.287 92.5059C47.287 89.0202 47.287 85.5227 47.287 82.0355C47.287 80.7135 47.7234 80.2763 49.0328 80.2763C59.8929 80.2763 70.743 80.2763 81.6032 80.2763C82.9023 80.2763 83.3386 80.7135 83.3386 82.0458C83.3386 85.533 83.3386 89.0291 83.3386 92.5163C83.3386 93.8382 82.8921 94.2857 81.593 94.2857C76.1629 94.2857 70.7328 94.2857 65.3028 94.2857ZM76.2948 91.8959C78.8119 91.8767 80.8723 89.8119 80.8723 87.301C80.8723 84.7295 78.7713 82.6351 76.2035 82.6558C73.656 82.6765 71.626 84.7605 71.6462 87.332C71.6666 89.8946 73.727 91.9166 76.2948 91.9063V91.8959ZM54.2904 91.8959C56.8379 91.9476 58.9287 89.9345 58.9896 87.3733C59.0404 84.8314 57.0308 82.7474 54.4527 82.6661C51.9356 82.5849 49.8245 84.6379 49.7636 87.2094C49.7026 89.7617 51.7224 91.8561 54.2904 91.9063V91.8959ZM65.252 91.8959C67.7793 91.9373 69.8803 89.9138 69.9208 87.4132C69.9614 84.8004 67.9722 82.7267 65.3636 82.6558C62.8567 82.5938 60.715 84.6793 60.6846 87.2197C60.6542 89.7823 62.674 91.8561 65.2418 91.8959H65.252Z" fill="#20A7DB"/>
<path d="M64.8262 72.804C64.6435 73.1999 64.5116 73.5972 64.2985 73.9325C63.7301 74.8275 62.908 75.3356 61.8322 75.3858C61.4464 75.4065 61.0607 75.3962 60.6751 75.3962C59.8564 75.3962 59.3827 74.99 59.2541 74.1762C58.6553 74.1762 58.0565 74.1762 57.4475 74.1762C57.0617 74.1762 56.7471 74.0654 56.7573 73.6179C56.7573 73.1807 57.0821 73.0684 57.4678 73.0684C58.0565 73.0684 58.6451 73.0684 59.2845 73.0684V71.4216C58.6959 71.4216 58.097 71.4216 57.4982 71.4216C57.0922 71.4216 56.7471 71.33 56.7573 70.8426C56.7674 70.395 57.1023 70.3138 57.478 70.3241C58.0665 70.3241 58.6451 70.3241 59.2845 70.3241C59.3049 70.141 59.3353 69.9977 59.3353 69.8456C59.3353 69.2873 59.6093 69.0731 60.1472 69.1041C60.5736 69.1233 61.0099 69.1041 61.4363 69.1041C63.0501 69.1041 64.0651 69.785 64.6335 71.3196C64.7958 71.7568 65.0699 71.6859 65.3743 71.6859C69.1094 71.6859 72.8446 71.6859 76.5796 71.6859C80.0001 71.6859 83.4103 71.6446 86.8308 71.6963C91.3879 71.7672 94.8794 75.4582 94.7672 80.0325C94.6771 83.855 91.6625 87.2299 87.8762 87.7085C87.4398 87.7587 87.2164 87.8813 87.0439 88.3082C86.6177 89.3952 85.6635 89.9742 84.476 89.9654V84.5566C85.7447 84.4857 86.5668 85.1045 87.2773 86.6702C89.6727 86.4264 91.5399 85.3084 92.7481 83.2036C95.4481 78.5274 92.0982 72.835 86.6075 72.7937C80.609 72.7538 74.6105 72.7937 68.6223 72.7937C67.3535 72.7937 66.095 72.7937 64.8364 72.7937L64.8262 72.804Z" fill="white"/>
<path d="M34.9157 64.0411C33.5253 66.1251 32.2465 68.0674 30.9269 69.9786C30.8052 70.1618 30.4094 70.1515 30.1353 70.2327C30.0642 69.9373 29.8511 69.5813 29.9526 69.3686C30.7342 67.6701 31.5765 65.9937 32.419 64.3261C32.4799 64.1932 32.6728 64.0618 32.8149 64.0618C33.4644 64.0307 34.114 64.0514 34.9259 64.0514L34.9157 64.0411Z" fill="white"/>
<path d="M68.1844 64.0411C68.9863 64.0411 69.6157 64.0204 70.2449 64.0618C70.4174 64.0721 70.6509 64.2538 70.7321 64.4178C71.5542 66.0543 72.3561 67.6908 73.168 69.3377C73.3405 69.6833 73.3913 70.0496 73.0055 70.2017C72.7924 70.283 72.3357 70.2017 72.2139 70.0289C70.8843 68.1073 69.5852 66.1459 68.1844 64.0515V64.0411Z" fill="white"/>
<path d="M76.1928 90.7779C74.2136 90.7483 72.7115 89.1724 72.7419 87.1696C72.7825 85.2376 74.3759 83.7222 76.3247 83.7739C78.2734 83.8138 79.7655 85.3898 79.7451 87.3424C79.7147 89.2743 78.1313 90.8089 76.1928 90.7779ZM75.3503 87.2907C75.3503 87.1075 75.4113 86.8948 75.3402 86.7619C75.2184 86.5596 75.0155 86.3247 74.8226 86.2952C74.6703 86.2745 74.3455 86.5182 74.3151 86.6807C74.244 87.0677 74.244 87.4945 74.3151 87.8815C74.3455 88.0439 74.6602 88.267 74.8428 88.2566C75.0155 88.2566 75.2286 88.0129 75.3301 87.8195C75.4113 87.688 75.3402 87.4738 75.3402 87.2907H75.3503ZM78.2024 87.2907C78.2024 87.2907 78.2024 87.2907 78.2126 87.2907C78.2126 87.1592 78.2633 86.9864 78.2024 86.8948C78.0501 86.6615 77.8472 86.468 77.6645 86.2642C77.4818 86.468 77.2178 86.6511 77.1367 86.8948C77.0453 87.1799 77.0555 87.5447 77.1468 87.8195C77.2178 88.0129 77.492 88.236 77.6949 88.2566C77.8472 88.267 78.0705 88.0129 78.1822 87.8195C78.2632 87.688 78.1922 87.4635 78.1922 87.2907H78.2024Z" fill="white"/>
<path d="M57.8735 87.2818C57.8735 89.2226 56.3206 90.7882 54.3922 90.7882C52.4332 90.7882 50.9007 89.264 50.8803 87.3114C50.8703 85.3602 52.3824 83.7946 54.3211 83.7739C56.3003 83.7532 57.8633 85.2893 57.8735 87.2818ZM53.4888 87.2715C53.4888 87.2715 53.4888 87.2715 53.4989 87.2715C53.4989 87.1592 53.5395 87.0174 53.4989 86.9362C53.3468 86.7013 53.1945 86.3454 52.9813 86.3055C52.5651 86.2139 52.4028 86.5596 52.413 86.9451C52.413 87.2405 52.3622 87.5551 52.4434 87.8194C52.5043 88.0129 52.7783 88.2773 52.9305 88.2566C53.1336 88.2374 53.3468 87.9923 53.4786 87.8002C53.5599 87.6673 53.4989 87.4443 53.4989 87.2715H53.4888ZM55.1939 87.2508C55.2549 87.5359 55.2345 87.8918 55.397 88.0646C55.5289 88.2064 55.8943 88.1252 56.1582 88.1459C56.1582 87.5654 56.1582 86.9967 56.1582 86.4178C55.8943 86.4266 55.5593 86.3454 55.397 86.4887C55.2345 86.6201 55.2549 86.9761 55.1839 87.2508H55.1939Z" fill="white"/>
<path d="M65.2819 83.7739C67.2509 83.7635 68.8242 85.3292 68.8242 87.301C68.8242 89.1915 67.2713 90.7675 65.3733 90.7778C63.4042 90.7985 61.8006 89.2432 61.7904 87.2906C61.7904 85.3691 63.3535 83.7842 65.2819 83.7739ZM67.3017 87.3719C67.2915 87.1282 67.3423 86.8845 67.2509 86.7323C67.1292 86.5388 66.8957 86.3158 66.6927 86.2951C66.5405 86.2848 66.2563 86.5492 66.2259 86.722C66.165 87.1075 66.175 87.5255 66.2563 87.9213C66.2867 88.0735 66.5709 88.2669 66.7434 88.2669C66.9161 88.2669 67.1292 88.0838 67.2307 87.911C67.3219 87.7589 67.2915 87.5255 67.3119 87.3719H67.3017ZM63.3535 87.301C63.3535 87.301 63.3535 87.301 63.3433 87.301C63.3433 87.4132 63.3027 87.555 63.3433 87.6363C63.4956 87.8711 63.6579 88.2271 63.861 88.2669C64.2669 88.3585 64.4294 88.0026 64.4396 87.6259C64.4396 87.332 64.5004 87.0174 64.3989 86.7619C64.3279 86.5595 64.0538 86.3055 63.8711 86.3055C63.6985 86.3055 63.4752 86.5802 63.3535 86.7722C63.2723 86.9051 63.3433 87.1178 63.3433 87.301H63.3535Z" fill="white"/>
</svg>
