<svg width="120" height="120" viewBox="0 0 120 120" fill="none" xmlns="http://www.w3.org/2000/svg">
<circle cx="60" cy="60" r="60" fill="#1B1464"/>
<path d="M43.2433 94.2856C37.5741 94.2468 32.6099 93.2683 27.834 91.274C26.9018 90.89 26.3311 90.2193 26.1787 89.202C25.6469 85.7496 26.255 82.4885 27.9669 79.4589C28.5376 78.4416 29.4698 78.1159 30.8023 78.4043C32.8191 78.8061 34.7013 79.574 36.4895 80.5704C40.2571 82.6812 43.3763 85.5584 46.1728 88.8001C46.364 89.0108 46.5343 89.2408 46.7255 89.4514C47.6189 90.4688 48.3807 90.4299 49.1217 89.317C49.9209 88.1279 50.7007 86.9388 51.4999 85.7496C53.669 82.4706 55.856 79.2095 58.0251 75.9095C58.3299 75.43 58.5764 75.3732 58.9947 75.7377C59.4324 76.1022 60.2122 76.3517 60.2884 76.7535C60.3646 77.1569 59.776 77.7126 59.4712 78.1921C56.5417 82.6035 53.554 86.9776 50.7202 91.4473C49.6162 93.1921 48.2284 94.1123 46.1922 94.1512C45.0509 94.1512 43.8902 94.2468 43.2433 94.2856ZM38.2776 91.1784C38.9827 91.2157 39.4967 90.8333 39.6296 90.2566C39.7626 89.6442 39.4772 89.0496 38.8303 88.8375C35.995 87.8978 33.1611 86.997 30.3257 86.0753C30.1166 85.9991 29.9075 85.9991 29.6983 86.0753C29.1471 86.268 28.805 86.6325 28.805 87.2271C28.7855 87.8978 29.1665 88.2623 29.7745 88.455C32.4754 89.3364 35.1779 90.2193 37.8788 91.0828C38.0506 91.1201 38.2029 91.159 38.2776 91.1784ZM31.5627 81.147C31.4686 81.1649 31.3923 81.1649 31.3341 81.1844C30.7634 81.3188 30.4213 81.6833 30.384 82.2779C30.3452 82.9113 30.6499 83.352 31.24 83.5253C33.9215 84.3693 36.4327 85.5778 38.7542 87.1882C38.7736 87.2077 38.7915 87.2077 38.8109 87.2271C39.4384 87.5916 40.142 87.4377 40.5035 86.8626C40.8471 86.3248 40.732 85.6152 40.1808 85.2133C37.6502 83.4102 34.8925 82.0672 31.9048 81.1844C31.7718 81.1649 31.6583 81.1649 31.5627 81.147Z" fill="white"/>
<path d="M62.8765 77.4828C63.1619 77.6561 63.2769 77.9429 63.4278 78.173C65.8823 81.8569 68.3367 85.5587 70.809 89.2605C71.6082 90.4691 72.3701 90.5258 73.2829 89.4129C76.0226 86.1533 79.0656 83.2178 82.7376 80.9934C84.7155 79.8043 86.8279 78.8826 89.1105 78.4225C90.6701 78.0968 91.5455 78.5001 92.2685 79.8999C93.7713 82.7577 94.2852 85.7887 93.8669 88.9916C93.7146 90.1045 93.1439 90.8709 92.0967 91.2937C85.8195 93.8631 79.3136 94.7654 72.5793 93.9782C71.4559 93.8437 70.5626 93.3074 69.9352 92.3484C67.1954 88.2432 64.475 84.1201 61.7353 80.0149C61.5261 79.7087 61.5067 79.4966 61.7353 79.1903C62.1341 78.6525 62.4956 78.0774 62.8765 77.4828ZM91.2034 87.323C91.184 86.3639 90.4236 85.8261 89.5482 86.1144C86.789 86.9973 84.0508 87.8787 81.311 88.781C80.5491 89.0305 80.207 89.6429 80.3982 90.3152C80.5685 90.9665 81.2542 91.3504 81.9952 91.1204C84.7917 90.239 87.5882 89.3173 90.3653 88.3971C90.8986 88.2238 91.184 87.8025 91.2034 87.323ZM89.605 82.4694C89.6244 81.5686 88.8819 80.974 88.0454 81.2235C85.077 82.0869 82.3566 83.4284 79.8275 85.2315C79.2748 85.6349 79.1613 86.3445 79.5034 86.8823C79.8649 87.4574 80.588 87.6486 81.178 87.2468C83.5369 85.6349 86.0481 84.4069 88.749 83.5435C89.3002 83.3717 89.5676 82.9489 89.605 82.4694Z" fill="white"/>
<path d="M89.9859 25.7144C90.1756 25.8294 90.3086 25.9062 90.4415 26.0021C91.4499 26.6734 92.4403 27.383 93.4666 28.016C93.9611 28.3229 93.9431 28.5339 93.6384 28.9943C89.4152 35.3047 85.2099 41.6535 81.0062 47.9832C80.4744 48.7887 79.9023 49.5951 79.3899 50.4376C79.1419 50.8216 78.97 50.8216 78.61 50.5721C77.6196 49.8625 76.6307 49.1723 75.585 48.5394C75.0322 48.2134 75.1084 47.9639 75.4132 47.5037C78.7042 42.5742 81.9952 37.6256 85.2682 32.677C86.7128 30.5095 88.141 28.3421 89.5856 26.1939C89.7379 26.0405 89.8709 25.8869 89.9859 25.7144Z" fill="#20A7DB"/>
<path d="M29.9837 25.7525C30.2317 25.8292 30.2885 26.0403 30.402 26.2128C32.6473 29.6079 34.9105 33.0029 37.1558 36.3979C39.6282 40.119 42.0826 43.8399 44.5744 47.5419C44.918 48.0598 44.8417 48.2516 44.3473 48.5585C43.3763 49.153 42.4247 49.8055 41.512 50.4763C41.0369 50.8214 40.8083 50.784 40.4841 50.2851C36.0518 43.5523 31.5822 36.8581 27.111 30.1257C26.7495 29.5886 26.0833 28.9748 26.1415 28.457C26.1983 27.92 27.1304 27.6707 27.6622 27.287C28.309 26.8266 28.9559 26.4046 29.6028 25.9635C29.7357 25.906 29.8508 25.8292 29.9837 25.7525Z" fill="#20A7DB"/>
<path d="M61.7911 74.6639C61.449 74.4338 61.1443 74.2411 60.859 74.0305C59.7744 73.3014 59.7744 73.3014 60.4974 72.2274C65.0821 65.3227 69.6862 58.418 74.2515 51.4939C74.613 50.9367 74.861 50.8993 75.3749 51.2818C76.7254 52.2408 76.7433 52.2229 75.8111 53.6032C71.2847 60.4317 66.7373 67.2602 62.2094 74.0887C62.0765 74.2799 61.9435 74.4726 61.7911 74.6639Z" fill="white"/>
<path d="M57.0933 72.9758C56.9215 72.7457 56.7885 72.5739 56.675 72.4007C52.3367 65.8799 48.018 59.3771 43.6812 52.8742C43.3571 52.3947 43.3391 52.1647 43.853 51.839C45.317 50.8993 45.2976 50.8799 46.2492 52.2991C50.2065 58.2641 54.1637 64.2098 58.1389 70.1569C58.4437 70.617 58.5199 70.9621 58.1583 71.4028C57.7774 71.8629 57.4727 72.3812 57.0933 72.9758Z" fill="white"/>
</svg>
