<svg width="120" height="120" viewBox="0 0 120 120" fill="none" xmlns="http://www.w3.org/2000/svg">
<circle cx="60" cy="60" r="60" fill="#1B1464"/>
<path d="M12.8069 85.135C12.8069 68.372 12.8069 51.6273 12.8069 34.8649C12.8621 34.7 12.9338 34.5348 12.9706 34.3698C13.8506 31.087 16.3085 29.1428 19.72 29.1428C45.543 29.1428 71.3476 29.1428 97.1706 29.1428C101.223 29.1428 104.047 32.0223 104.065 36.057C104.065 38.4046 104.065 40.7521 104.065 43.0997C104.065 56.672 104.065 70.2609 104.065 83.8334C104.065 86.2913 103.13 88.2703 101.114 89.7008C99.7922 90.6361 98.3064 90.8571 96.7122 90.8571C71.2003 90.8571 45.672 90.8571 20.1601 90.8571C19.8674 90.8571 19.5727 90.8571 19.2616 90.8571C16.4374 90.765 13.998 88.9313 13.118 86.2361C13.0075 85.8677 12.8969 85.5014 12.7885 85.135H12.8069ZM29.2016 47.6673C27.2942 47.6673 25.4053 47.6673 23.4979 47.6673C22.0305 47.6673 21.3164 48.3816 21.3164 49.8673C21.3164 52.5442 21.3164 55.2047 21.3164 57.8815C21.3164 59.3489 22.0305 60.0815 23.4979 60.0999C27.2574 60.1184 31.0352 60.1184 34.7967 60.0999C36.2457 60.0999 36.9968 59.3304 36.9968 57.8815C37.0152 55.2047 37.0152 52.5442 36.9968 49.8673C36.9968 48.4184 36.2273 47.6837 34.7967 47.6673C32.9242 47.6673 31.0537 47.6673 29.1832 47.6673H29.2016ZM39.4362 81.9813C44.5709 81.9813 49.7057 81.9813 54.8424 81.9813C56.6025 81.9813 57.5561 81.2835 57.5377 80.0003C57.5193 78.7335 56.584 78.0561 54.8772 78.0561C44.5709 78.0561 34.2646 78.0561 23.9563 78.0561C23.6084 78.0561 23.2421 78.0561 22.8922 78.1298C21.9037 78.3119 21.2979 79.1019 21.3347 80.1108C21.3716 81.2835 22.1963 81.9813 23.5716 81.9813C28.8537 81.9813 34.1357 81.9813 39.4362 81.9813ZM82.8839 44.5302C84.6991 44.5302 86.5144 44.5302 88.3113 44.5302C90.1286 44.5302 91.9438 44.5484 93.7407 44.5118C94.7496 44.4936 95.4639 43.7233 95.5375 42.7512C95.6112 41.7424 95.0607 40.9355 94.0702 40.6971C93.7591 40.6238 93.4296 40.6054 93.0981 40.6054C86.3323 40.6054 79.5644 40.6054 72.7966 40.6054C72.4119 40.6054 72.0251 40.642 71.6587 40.7521C70.7419 41.0272 70.2466 41.8525 70.3387 42.8246C70.4308 43.7233 71.0898 44.4201 72.0087 44.5302C72.3382 44.5668 72.6676 44.5668 72.9787 44.5668C76.2818 44.5668 79.5644 44.5668 82.8654 44.5668L82.8839 44.5302ZM63.0019 73.2325C64.4509 73.2325 65.9182 73.2509 67.3671 73.2325C68.6524 73.214 69.4771 72.4446 69.4955 71.3251C69.514 70.1688 68.6708 69.3257 67.3671 69.3072C64.4877 69.2704 61.6082 69.2888 58.7288 69.3072C57.4272 69.3072 56.5288 70.1504 56.5472 71.2883C56.5472 72.4261 57.4272 73.214 58.7472 73.2325C60.1777 73.2509 61.5898 73.2325 63.0203 73.2325H63.0019ZM45.4141 73.2325C46.8078 73.2325 48.2015 73.2325 49.5972 73.2325C51.0278 73.2325 51.8709 72.4978 51.8709 71.2883C51.8709 70.0952 51.0277 69.3072 49.632 69.2888C46.8078 69.2704 43.9836 69.2888 41.1778 69.2888C39.8026 69.2888 38.9226 70.1136 38.941 71.2883C38.941 72.463 39.821 73.214 41.2331 73.214C42.6268 73.214 44.0204 73.214 45.4141 73.214V73.2325ZM80.645 73.2325C82.0407 73.2325 83.4344 73.2325 84.8281 73.2325C86.2218 73.2325 87.1202 72.463 87.1202 71.2883C87.1202 70.132 86.2218 69.3072 84.8465 69.3072C82.0223 69.3072 79.196 69.2888 76.3718 69.3072C74.9966 69.3072 74.1166 70.1504 74.135 71.3067C74.135 72.4445 75.015 73.214 76.3534 73.2325C77.7839 73.2509 79.2145 73.2325 80.6266 73.2325H80.645ZM27.8263 73.2325C29.22 73.2325 30.6137 73.2325 32.0074 73.2325C33.4379 73.2325 34.2647 72.4793 34.2831 71.2883C34.2831 70.0952 33.4194 69.3072 32.0257 69.3072C29.2015 69.3072 26.3774 69.2888 23.5716 69.3072C22.1779 69.3072 21.3347 70.0951 21.3531 71.3067C21.3531 72.4793 22.1779 73.214 23.5532 73.2325C24.9837 73.2509 26.3958 73.2325 27.8263 73.2325Z" fill="white"/>
<path d="M35.034 47.483H22.9657C21.0113 47.483 19.4272 49.067 19.4272 51.0214V57.9366C19.4272 59.8911 21.0113 61.4771 22.9657 61.4771H35.034C36.9884 61.4771 38.5745 59.8911 38.5745 57.9366V51.0214C38.5745 49.067 36.9884 47.483 35.034 47.483Z" fill="#20A7DB"/>
</svg>
