<svg width="128" height="128" viewBox="0 0 128 128" fill="none" xmlns="http://www.w3.org/2000/svg">
<g filter="url(#filter0_d_166_9539)">
<circle cx="64" cy="60" r="60" fill="#1B1464"/>
<path d="M73.9824 25.7144C74.8071 25.8946 75.6388 26.0332 76.4497 26.2549C82.0981 27.8213 86.2634 32.9014 86.6931 38.7301C86.7139 39.0627 86.6931 39.3954 86.6931 39.7766H82.7219C82.6179 37.0459 81.6754 34.6548 79.7279 32.7073C77.7942 30.7737 75.424 29.8311 72.6448 29.7341V25.7213C73.0883 25.7213 73.5388 25.7213 73.9824 25.7213V25.7144Z" fill="#20A7DB"/>
<path d="M77.525 73.2096C73.3458 75.2334 66.9003 76.0442 62.1251 75.1017C62.9429 69.2315 61.3004 65.3711 57.0381 63.1672C53.3302 61.2474 48.4372 61.6632 44.8956 65.3849C41.8877 61.8157 39.8848 57.7613 38.9214 53.2079C37.7086 47.4347 38.2214 41.8139 40.5363 36.1655C52.9074 48.5574 65.2023 60.8731 77.518 73.2096H77.525Z" fill="white"/>
<path d="M65.9087 43.7689C67.1562 42.6392 68.3483 41.5649 69.5819 40.4491C70.4898 41.4471 71.3631 42.4105 72.2918 43.4293C71.1274 44.4897 69.9977 45.5223 68.8611 46.5619C75.2511 52.9519 81.6204 59.3212 88.0104 65.7112C85.9589 67.9151 83.8451 69.8003 81.4541 71.2488C68.4799 58.2747 55.5405 45.3352 42.5525 32.3472C43.9663 29.97 45.8861 27.8492 48.0069 25.874C53.9672 31.8413 59.8998 37.7739 65.9017 43.7758L65.9087 43.7689Z" fill="white"/>
<path d="M60.0784 90.3006H66.4893V94.2858H38.351V90.3214H44.7548C45.434 87.0502 46.1132 83.8274 46.7924 80.5423C50.5211 82.7671 54.2429 82.7809 58.0339 80.5423C58.7131 83.7928 59.3854 87.0086 60.0715 90.2868L60.0784 90.3006Z" fill="white"/>
<path d="M58.4583 72.1078C58.4722 75.4622 55.797 78.1582 52.4426 78.179C49.1159 78.1998 46.3783 75.483 46.3713 72.1494C46.3713 68.8088 49.0673 66.0851 52.401 66.0713C55.7346 66.0574 58.4514 68.7603 58.4583 72.1078Z" fill="white"/>
<path d="M72.6521 37.794V33.8644C75.6184 33.6357 78.7649 36.498 78.5916 39.7901H74.6758C74.4818 38.6812 73.858 37.9604 72.6521 37.794Z" fill="#20A7DB"/>
</g>
<defs>
<filter id="filter0_d_166_9539" x="0" y="0" width="128" height="128" filterUnits="userSpaceOnUse" color-interpolation-filters="sRGB">
<feFlood flood-opacity="0" result="BackgroundImageFix"/>
<feColorMatrix in="SourceAlpha" type="matrix" values="0 0 0 0 0 0 0 0 0 0 0 0 0 0 0 0 0 0 127 0" result="hardAlpha"/>
<feOffset dy="4"/>
<feGaussianBlur stdDeviation="2"/>
<feComposite in2="hardAlpha" operator="out"/>
<feColorMatrix type="matrix" values="0 0 0 0 0 0 0 0 0 0 0 0 0 0 0 0 0 0 0.25 0"/>
<feBlend mode="normal" in2="BackgroundImageFix" result="effect1_dropShadow_166_9539"/>
<feBlend mode="normal" in="SourceGraphic" in2="effect1_dropShadow_166_9539" result="shape"/>
</filter>
</defs>
</svg>
