<svg width="120" height="120" viewBox="0 0 120 120" fill="none" xmlns="http://www.w3.org/2000/svg">
<circle cx="60" cy="60" r="60" fill="#1B1464"/>
<path d="M16.2715 41.1733C16.6819 40.1096 17.5123 39.5876 18.5854 39.2175C31.3913 34.817 44.1847 30.3899 56.9781 25.9498C57.8758 25.6391 58.7186 25.6326 59.6101 25.9498C72.4567 30.3965 85.3033 34.8368 98.1577 39.2771C99.986 39.9114 100.749 41.2658 100.1 42.7067C99.7103 43.572 98.9411 43.9289 98.0904 44.2199C92.3016 46.228 86.5112 48.2436 80.7224 50.2593C73.6991 52.7038 66.6679 55.1346 59.6508 57.599C58.7265 57.9238 57.8757 57.9238 56.9514 57.599C44.0703 53.0929 31.1767 48.6066 18.2815 44.1403C17.2961 43.7972 16.6616 43.2014 16.2715 42.2962V41.1733Z" fill="white"/>
<path d="M33.5707 54.5801C36.7761 55.6967 39.8123 56.7474 42.8423 57.8043C47.0597 59.2716 51.2834 60.7313 55.4946 62.2247C57.4639 62.9246 59.3736 62.8327 61.3367 62.145C68.219 59.7204 75.1217 57.3417 82.0181 54.9431C82.2939 54.8436 82.5775 54.7517 82.9629 54.6261C82.9832 54.9492 83.0161 55.2004 83.0161 55.4516C83.0161 58.5318 82.9895 61.6105 83.0302 64.6891C83.0506 66.2882 82.4223 67.5365 81.2144 68.555C79.3251 70.1342 77.066 71.0134 74.7379 71.7332C68.5433 73.6494 62.1811 74.2574 55.7093 73.9924C50.0489 73.7612 44.5029 72.9295 39.253 70.7545C37.89 70.1863 36.6007 69.3806 35.3928 68.5213C34.105 67.61 33.5441 66.2744 33.5645 64.6769C33.6052 61.6227 33.5786 58.5701 33.5786 55.5175C33.5786 55.2602 33.5786 54.9967 33.5786 54.5862L33.5707 54.5801Z" fill="white"/>
<path d="M89.4795 52.3331C91.1057 51.7648 92.6911 51.2165 94.4051 50.6222V51.5397C94.4051 57.9956 94.4051 64.4516 94.3989 70.9076C94.3989 71.4023 94.5335 71.7132 94.9518 72.0303C97.5697 74.0383 97.5086 77.7067 94.8986 79.7346C94.6354 79.9398 94.4254 80.3748 94.4254 80.7118C94.3925 84.3801 94.413 88.0531 94.3989 91.7199C94.3989 93.4445 92.9889 94.581 91.3752 94.218C90.2362 93.9607 89.4858 93.0019 89.4858 91.7275C89.4796 88.1128 89.4733 84.4919 89.4937 80.8772C89.4937 80.3227 89.3589 79.9659 88.8858 79.609C86.376 77.7067 86.3619 74.0261 88.8654 72.09C89.3652 71.7071 89.4937 71.3227 89.4937 70.7544C89.4796 64.9402 89.4858 59.126 89.4858 53.3179C89.4858 53.0009 89.4858 52.6762 89.4858 52.327L89.4795 52.3331Z" fill="#20A7DB"/>
</svg>
