<svg width="120" height="120" viewBox="0 0 120 120" fill="none" xmlns="http://www.w3.org/2000/svg">
<circle cx="60" cy="60" r="60" fill="#1B1464"/>
<path d="M56.5627 92.9523C55.2604 92.4387 54.9335 91.4771 55.0388 90.155C55.5431 83.8391 55.9808 77.5179 56.4463 71.1966C56.6015 69.0931 56.7677 66.9952 56.934 64.8152C56.6181 64.8152 56.3577 64.8152 56.0972 64.8152C51.5864 64.8152 47.0811 64.8152 42.5703 64.8152C41.3123 64.8152 40.4035 64.247 40.3038 63.2144C40.2484 62.6517 40.4423 61.9906 40.7249 61.477C43.0358 57.3084 45.3909 53.167 47.735 49.0202C51.9244 41.6062 56.1138 34.1977 60.2922 26.7783C60.741 25.9806 61.3007 25.3632 62.2871 25.3523C63.5007 25.3359 64.3763 26.3631 64.2765 27.6688C63.7279 35.0391 63.1682 42.4148 62.6196 49.7851C62.531 50.9871 62.4534 52.1891 62.3647 53.4784C62.664 53.4784 62.9244 53.4784 63.1849 53.4784C67.6957 53.4784 72.201 53.4784 76.7118 53.4784C77.4322 53.4784 78.0861 53.626 78.5738 54.1942C79.1833 54.9044 79.2166 55.6966 78.6513 56.7074C76.8559 59.8981 75.0493 63.0833 73.2539 66.274C68.5269 74.6495 63.7944 83.0196 59.073 91.4006C58.6685 92.1164 58.1808 92.701 57.3662 92.9577H56.5627V92.9523Z" fill="#20A7DB"/>
<path d="M52.9708 31.5859C52.0509 33.2141 51.1642 34.8094 50.2444 36.3829C50.1391 36.5687 49.8731 36.6834 49.6569 36.7817C43.6887 39.4589 39.3774 43.7477 36.8005 49.692C35.0716 53.6804 34.4952 57.849 35.0716 62.1543C35.9582 68.8416 39.1224 74.2669 44.47 78.4574C46.4207 79.9871 48.5819 81.1727 50.926 81.9977C51.4635 82.1889 51.6353 82.4293 51.5632 82.9921C51.4302 84.0575 51.3804 85.1338 51.2972 86.2101C42.3975 84.0411 31.4141 74.6548 30.8766 60.171C30.3335 45.5015 40.9789 34.1647 52.9652 31.5914L52.9708 31.5859Z" fill="white"/>
<path d="M66.2986 86.7236C67.2241 85.09 68.0941 83.5274 68.9918 81.9867C69.1137 81.7846 69.3742 81.6261 69.6014 81.5223C75.0044 79.1184 79.083 75.3267 81.7651 70.1145C84.0371 65.7 84.8518 61.0123 84.1979 56.1006C83.3057 49.386 80.1026 43.9552 74.7218 39.7757C72.8377 38.3114 70.7485 37.186 68.5042 36.3391C68.2382 36.2353 67.9722 36.126 67.6785 36.0113C67.7782 34.6782 67.878 33.3724 67.9777 32.0557C77.9137 34.6891 88.2709 44.6382 88.415 58.8979C88.5591 72.8954 78.5067 83.9864 66.2931 86.7236H66.2986Z" fill="white"/>
</svg>
