<svg width="120" height="120" viewBox="0 0 120 120" fill="none" xmlns="http://www.w3.org/2000/svg">
<circle cx="60" cy="60" r="60" fill="#1B1464"/>
<path d="M104.572 93.188C104.148 94.0093 103.49 94.3342 102.562 94.28C101.751 94.2259 100.922 94.28 100.111 94.253C99.2283 94.2169 98.6426 93.6483 98.6066 92.854C98.5705 92.0688 99.1111 91.3829 99.9762 91.3197C101.048 91.2475 102.148 91.2024 103.211 91.3558C103.698 91.428 104.121 91.9786 104.572 92.3125V93.188Z" fill="white"/>
<path d="M20.7182 91.2201V34.3787H53.67V91.2201H56.6706C56.6706 90.8772 56.6706 90.5432 56.6706 90.2003C56.6706 82.6461 56.6706 75.0829 56.6706 67.5287C56.6706 65.7597 57.7248 64.4962 59.2836 64.3337C61.2029 64.1351 62.6356 65.4528 62.6356 67.4835C62.6446 72.5197 62.6356 77.5558 62.6356 82.601C62.6356 85.4439 62.6356 88.2779 62.6356 91.2653C63.005 91.2653 63.3384 91.2653 63.6718 91.2653C73.5564 91.2653 83.4411 91.2653 93.3257 91.2653C93.7312 91.2653 94.1457 91.2833 94.5331 91.3916C95.254 91.5902 95.5874 92.1497 95.5423 92.8537C95.4973 93.5938 95.0647 94.1082 94.2898 94.2165C93.9745 94.2617 93.6501 94.2526 93.3257 94.2526C67.8887 94.2526 42.4428 94.2526 17.0059 94.2526C16.7986 94.2526 16.6004 94.2526 16.3931 94.2526C15.402 94.2165 14.7622 93.6479 14.7442 92.7996C14.7262 91.9692 15.3749 91.3014 16.3391 91.2743C17.6276 91.2292 18.9161 91.2653 20.1956 91.2562C20.3398 91.2562 20.475 91.2382 20.7092 91.2201H20.7182ZM23.7098 51.5358C23.7098 55.1098 23.7098 58.6839 23.7098 62.2489C23.7098 64.6045 24.8721 65.7687 27.1969 65.7687C33.8647 65.7687 40.5236 65.7687 47.1914 65.7687C49.5252 65.7687 50.6875 64.5954 50.6875 62.2489C50.6875 55.1008 50.6875 47.9618 50.6875 40.8137C50.6875 38.4671 49.5162 37.2848 47.2004 37.2848C40.5326 37.2848 33.8737 37.2848 27.2059 37.2848C24.8811 37.2848 23.7188 38.4671 23.7098 40.8047C23.7098 44.3787 23.7098 47.9527 23.7098 51.5177V51.5358ZM37.2077 88.2689C40.1271 88.2689 43.0555 88.2779 45.975 88.2689C47.9303 88.2598 49.1467 87.0595 49.1557 85.0919C49.1737 80.7327 49.1737 76.3645 49.1557 72.0052C49.1557 70.0016 47.9303 68.7832 45.9119 68.7742C40.1 68.7561 34.2792 68.7561 28.4674 68.7742C26.458 68.7742 25.2416 70.0016 25.2325 72.0143C25.2145 76.3464 25.2145 80.6786 25.2325 85.0107C25.2325 87.0865 26.44 88.2598 28.5214 88.2689C31.4138 88.2779 34.3062 88.2689 37.1986 88.2689H37.2077ZM61.1308 68.7742C61.1488 67.9619 60.5271 67.3391 59.6981 67.3211C58.8692 67.303 58.2114 67.9077 58.1843 68.702C58.1573 69.5684 58.8511 70.2904 59.7071 70.2814C60.464 70.2814 61.1038 69.5955 61.1218 68.7832L61.1308 68.7742Z" fill="white"/>
<path d="M56.6611 26.8515C56.6611 27.8262 56.6881 28.7378 56.6611 29.6403C56.625 30.6963 56.0663 31.2288 55.0031 31.301C54.7958 31.319 54.5976 31.301 54.3904 31.301C42.9289 31.301 31.4674 31.301 20.0149 31.301C18.1767 31.301 17.7352 30.8587 17.7352 29.0266C17.7352 28.3226 17.7352 27.6277 17.7352 26.8515H56.6701H56.6611Z" fill="white"/>
<path d="M86.5319 36.4997C86.568 36.8697 86.613 37.0953 86.613 37.3119C86.613 39.6224 86.622 41.9329 86.613 44.2434C86.613 44.5142 86.577 44.8752 86.4058 45.0557C84.5496 46.951 82.6664 48.8192 80.621 50.859C80.621 50.0015 80.621 49.3427 80.621 48.6838C80.621 46.8156 80.621 44.9383 80.621 43.0701C80.621 42.7903 80.648 42.4293 80.8102 42.2578C82.6664 40.3625 84.5496 38.4943 86.5319 36.5087V36.4997Z" fill="#20A7DB"/>
<path d="M95.6053 27.5376C95.6053 29.9293 95.5513 32.2037 95.6324 34.4691C95.6684 35.498 95.344 36.211 94.6142 36.9059C92.9832 38.4583 91.4334 40.0918 89.7034 41.8337C89.6673 41.4186 89.6223 41.1749 89.6223 40.9402C89.6223 38.6568 89.6043 36.3734 89.6313 34.09C89.6313 33.747 89.7394 33.3138 89.9647 33.0792C91.6947 31.2922 93.4608 29.5412 95.2179 27.7903C95.2899 27.7181 95.3891 27.673 95.5963 27.5376H95.6053Z" fill="#20A7DB"/>
<path d="M71.6195 59.884C71.6195 56.9869 71.6195 54.3605 71.6285 51.7432C71.6285 51.5627 71.7276 51.3371 71.8538 51.2017C73.701 49.3334 75.5571 47.4833 77.5034 45.5338C77.5485 45.8045 77.6026 45.958 77.6026 46.1114C77.6026 48.5121 77.6116 50.9129 77.6026 53.3046C77.6026 53.5753 77.5395 53.9273 77.3683 54.0988C75.5301 55.9761 73.6649 57.8263 71.6195 59.875V59.884Z" fill="#20A7DB"/>
<path d="M61.6176 61.6352C63.9693 59.2796 66.258 56.9962 68.6278 54.6316C68.6278 55.128 68.6278 55.6063 68.6278 56.0847C68.6278 58.1063 68.6548 60.128 68.6008 62.1407C68.5918 62.5739 68.3575 63.0793 68.0691 63.4132C67.3122 64.2977 66.4743 65.11 65.5552 66.0576C64.9064 63.8374 63.6179 62.3934 61.6265 61.6172L61.6176 61.6352Z" fill="#20A7DB"/>
<path d="M98.6415 32.8714V25.7144C99.7768 25.7144 100.588 26.2288 101.137 27.1494C101.759 28.1873 101.777 29.3064 101.056 30.2721C100.39 31.1566 99.5425 31.9148 98.6415 32.8714Z" fill="#20A7DB"/>
<path d="M47.6239 62.7456H43.1816C43.1816 61.8431 43.1816 60.9766 43.1816 60.1102C43.1636 57.3124 41.5327 55.4983 38.7845 55.3087C37.568 55.2275 36.3246 55.2546 35.1081 55.3809C32.9906 55.5885 31.3597 57.3575 31.2516 59.4965C31.1975 60.5434 31.2426 61.5994 31.2426 62.7185H26.7733V40.3448H47.6239V62.7546V62.7456Z" fill="white"/>
<path d="M40.182 62.7451H34.262C34.262 61.644 34.1899 60.5429 34.289 59.4599C34.3431 58.792 34.8747 58.3678 35.5595 58.3408C36.6318 58.2956 37.7131 58.2686 38.7853 58.3408C39.6774 58.3949 40.1369 58.9455 40.164 59.848C40.2 60.7776 40.164 61.7162 40.164 62.7451H40.182Z" fill="white"/>
<path d="M28.2968 71.8155H46.1197V85.2181H28.2968V71.8155ZM37.1542 77.7722C38.5869 77.7722 40.0105 77.7902 41.4432 77.7722C42.5245 77.7541 43.1462 77.2036 43.1643 76.3101C43.1823 75.4346 42.5425 74.7938 41.4883 74.7848C38.6319 74.7577 35.7665 74.7577 32.9102 74.7848C31.8649 74.7938 31.2252 75.4346 31.2342 76.301C31.2432 77.1855 31.874 77.7451 32.9462 77.7631C34.3429 77.7812 35.7485 77.7631 37.1452 77.7631L37.1542 77.7722ZM37.2443 79.2975C35.8116 79.2975 34.3879 79.2884 32.9552 79.2975C31.901 79.3065 31.2522 79.8841 31.2342 80.7596C31.2162 81.635 31.874 82.2758 32.9102 82.2758C35.7665 82.2939 38.6319 82.2939 41.4883 82.2758C42.5245 82.2758 43.1823 81.635 43.1643 80.7596C43.1552 79.8841 42.4975 79.3065 41.4432 79.2884C40.0466 79.2704 38.6409 79.2884 37.2443 79.2884V79.2975Z" fill="white"/>
</svg>
