<svg width="120" height="120" viewBox="0 0 120 120" fill="none" xmlns="http://www.w3.org/2000/svg">
<circle cx="60" cy="60" r="60" fill="#1B1464"/>
<path d="M47.3924 94.2858C45.9737 93.6665 45.1405 92.6531 45.2531 91.0318C45.3263 90.0128 45.8499 89.2415 46.593 88.7518C45.5065 88.1719 44.3355 87.7159 43.3672 86.9897C41.3574 85.4922 40.3609 83.3923 40.299 80.8814C40.2709 79.7499 40.299 78.6127 40.299 77.4304H78.2826C78.5022 80.8364 78.5528 84.1861 75.6479 86.7194C74.5839 87.6483 73.3623 88.2507 71.9267 88.5829C72.0336 88.7011 72.0956 88.8024 72.1913 88.8756C74.1842 90.4013 73.5481 93.5201 71.3863 94.1675C71.33 94.1844 71.2905 94.2463 71.2399 94.2858H47.3924Z" fill="white"/>
<path d="M40.3386 51.7706H78.2941V74.6498H40.3386V51.7706Z" fill="#20A7DB"/>
<path d="M51.5695 25.7275V27.5233H67.0456V25.7556C68.6951 25.7556 70.2714 25.7049 71.8421 25.7781C72.6359 25.8175 73.2213 26.6282 73.227 27.4276C73.2326 28.2327 72.6753 28.9533 71.8646 29.0997C71.4311 29.1785 70.9807 29.1728 70.4853 29.2066V37.0826C72.467 37.1896 74.2403 37.8257 75.7097 39.1768C77.4042 40.7362 78.2937 42.6729 78.3331 44.9754C78.3556 46.3097 78.3331 47.6439 78.3331 49.0119H40.2932C40.2932 48.6966 40.2819 48.3701 40.2932 48.0436C40.3551 46.4673 40.2144 44.8403 40.5297 43.3147C41.2784 39.6835 44.1777 37.4035 48.141 37.0713V29.1503C47.7807 29.1503 47.426 29.1728 47.0826 29.1503C46.0862 29.0659 45.3881 28.334 45.3994 27.4107C45.4106 26.4481 46.1594 25.7331 47.1896 25.7218C48.6139 25.7049 50.0382 25.7218 51.5582 25.7218L51.5695 25.7275ZM51.5864 37.0713H57.9198V34.2227C57.4751 34.1945 57.0697 34.1664 56.6644 34.1382V32.4156H61.9563V34.1551C61.5116 34.1777 61.1175 34.1945 60.7178 34.2114V37.0601H67.0174V30.0511H51.5864V37.0713Z" fill="white"/>
<path d="M51.6477 60.6335C53.2405 60.6335 54.6136 61.4353 55.1958 62.9293H53.6909C53.2844 62.1603 52.5595 61.7759 51.6477 61.7759C50.1319 61.7759 49.0334 62.8524 49.0334 64.533C49.0334 66.2137 50.1319 67.3011 51.6477 67.3011C53.0318 67.3011 53.8996 66.4663 54.0863 65.1811H51.2193V64.1815H55.4265V65.1591C55.1958 66.9277 53.7019 68.4326 51.6477 68.4326C49.4947 68.4326 47.7482 66.8288 47.7482 64.533C47.7482 62.2482 49.4947 60.6335 51.6477 60.6335Z" fill="white"/>
<path d="M61.8133 68.3667L61.2641 66.8068H58.0676L57.5183 68.3667H56.2112L58.9463 60.7213H60.3963L63.1315 68.3667H61.8133ZM60.9126 65.7853L59.6713 62.2372L58.4191 65.7853H60.9126Z" fill="white"/>
<path d="M69.4725 66.2027C69.4725 67.3451 68.5389 68.4435 66.8362 68.4435C65.3094 68.4435 64.134 67.6087 64.134 66.2576H65.4741C65.5291 66.8837 65.9684 67.389 66.8362 67.389C67.715 67.389 68.2093 66.9167 68.2093 66.2686C68.2093 64.4232 64.156 65.6205 64.156 62.8084C64.156 61.4683 65.2215 60.6335 66.7813 60.6335C68.2423 60.6335 69.2748 61.4024 69.3847 62.7096H68.0006C67.9567 62.1933 67.5063 61.7209 66.7154 61.699C65.9904 61.677 65.4302 62.0285 65.4302 62.7645C65.4302 64.4891 69.4725 63.4126 69.4725 66.2027Z" fill="white"/>
</svg>
