<svg width="120" height="120" viewBox="0 0 120 120" fill="none" xmlns="http://www.w3.org/2000/svg">
<circle cx="60" cy="60" r="60" fill="#1B1464"/>
<path d="M52.3391 94.2857H38.2512C38.2512 93.9972 38.2512 93.7043 38.2512 93.4157C38.2512 74.4016 38.2512 55.386 38.2512 36.3765C38.2512 34.7164 39.0113 33.9727 40.7116 33.9727C42.5565 33.9727 44.4015 33.9727 46.2479 33.9727C46.493 33.9727 46.7335 33.9727 47.0449 33.9727C47.0449 33.6429 47.0449 33.3967 47.0449 33.1559C47.0449 31.4382 47.039 29.7204 47.0449 28.0029C47.0553 26.5155 47.8685 25.7143 49.3606 25.7143C56.5367 25.7143 63.7202 25.7143 70.8977 25.7143C72.4002 25.7143 73.2238 26.5155 73.2282 27.9923C73.24 29.731 73.2282 31.4748 73.2282 33.2135C73.2282 33.4491 73.2504 33.6847 73.2666 33.9727C73.5825 33.9727 73.8275 33.9727 74.0739 33.9727C75.8761 33.9727 77.6738 33.9623 79.476 33.9727C80.9135 33.9833 81.7164 34.7793 81.7327 36.1722C81.7327 36.4184 81.7327 36.6645 81.7327 36.9107C81.7327 56.0353 81.7327 75.1605 81.7327 94.2857H67.6447C67.6447 89.1794 67.6565 84.0731 67.6447 78.9625C67.6447 77.6841 66.8108 76.8631 65.5164 76.8573C61.8266 76.8472 58.1367 76.8472 54.4468 76.8573C53.1524 76.8573 52.317 77.6841 52.317 78.9625C52.317 84.0688 52.317 89.1737 52.317 94.2857H52.3391ZM62.0509 41.7967C62.8213 41.7967 63.5003 41.8071 64.1792 41.7967C65.0353 41.7756 65.6551 41.3619 66.0034 40.6025C66.613 39.2777 65.6448 37.8533 64.0891 37.7904C63.4205 37.7643 62.746 37.7904 62.0509 37.7904C62.0509 37.0939 62.0509 36.5179 62.0509 35.9366C62.0405 34.6484 61.1742 33.7424 59.9757 33.7528C58.8053 33.7634 57.9596 34.664 57.9492 35.9103C57.9433 36.5283 57.9492 37.1411 57.9492 37.7904C57.1891 37.7904 56.5265 37.7643 55.8682 37.7957C54.649 37.8533 53.7989 38.733 53.8314 39.8694C53.8579 40.9692 54.7346 41.7809 55.933 41.8019C56.5854 41.8124 57.2378 41.8019 57.9492 41.8019C57.9492 42.5035 57.9433 43.1215 57.9492 43.7447C57.9655 44.9806 58.8421 45.8657 60.0185 45.8552C61.1741 45.8446 62.0243 44.9753 62.0465 43.7709C62.0568 43.1478 62.0465 42.5246 62.0465 41.8019L62.0509 41.7967ZM49.5954 49.8143C49.2102 49.8143 48.8205 49.7985 48.4353 49.8143C47.3431 49.8613 46.4929 50.694 46.456 51.7413C46.4191 52.8148 47.2368 53.7469 48.3496 53.8104C49.1894 53.8624 50.0396 53.8624 50.8735 53.8104C51.9864 53.7368 52.7938 52.7946 52.751 51.7204C52.7023 50.673 51.858 49.8561 50.7554 49.8143C50.3702 49.7985 49.9806 49.8143 49.5954 49.8143ZM59.9875 49.8143C59.6023 49.8143 59.2112 49.7985 58.8259 49.8143C57.7352 49.8613 56.8851 50.6993 56.8467 51.7413C56.8098 52.8091 57.6289 53.7412 58.7462 53.8104C59.586 53.8624 60.4362 53.8624 61.2701 53.8104C62.383 53.7368 63.1903 52.7946 63.1416 51.7204C63.0944 50.673 62.2443 49.8561 61.1417 49.8143C60.7565 49.7985 60.3669 49.8143 59.9816 49.8143H59.9875ZM70.3944 53.8263C70.7796 53.8263 71.1693 53.8407 71.5545 53.8263C72.7102 53.7628 73.5662 52.8625 73.5396 51.7676C73.5116 50.694 72.6512 49.8509 71.5117 49.8194C70.7634 49.7985 70.0092 49.7985 69.2549 49.8194C68.1273 49.8509 67.2609 50.6993 67.2329 51.7728C67.2122 52.8408 68.0418 53.7412 69.1532 53.8263C69.5605 53.8566 69.9723 53.8263 70.3841 53.8263H70.3944ZM49.6382 57.8476C49.253 57.8476 48.8633 57.8375 48.4781 57.8476C47.3431 57.8836 46.4826 58.7277 46.456 59.8012C46.4295 60.8689 47.2633 61.7909 48.3762 61.8486C49.1939 61.8962 50.0174 61.8962 50.8366 61.8486C51.9539 61.7851 52.7834 60.8689 52.7554 59.8012C52.7288 58.7277 51.8683 57.8894 50.7348 57.8476C50.3702 57.8375 50.0071 57.8476 49.6441 57.8476H49.6382ZM60.0141 57.8476C59.6288 57.8476 59.2377 57.8375 58.8525 57.8476C57.7515 57.8894 56.8954 58.7061 56.8467 59.7478C56.7995 60.817 57.6068 61.7693 58.7138 61.8429C59.5743 61.9006 60.4465 61.9063 61.3085 61.8429C62.3933 61.7592 63.1741 60.8329 63.1416 59.7853C63.1106 58.7378 62.2649 57.9053 61.1742 57.8533C60.7889 57.8375 60.3993 57.8533 60.0141 57.8533V57.8476ZM70.3782 57.8476C70.0151 57.8476 69.6506 57.8375 69.2875 57.8476C68.148 57.8836 67.2817 58.7118 67.2492 59.7796C67.2182 60.8487 68.0359 61.7808 69.1487 61.8429C69.9886 61.8905 70.8386 61.8962 71.6725 61.8429C72.7854 61.7693 73.5928 60.8213 73.5441 59.7478C73.4968 58.7017 72.6452 57.8894 71.5442 57.8476C71.159 57.8317 70.7693 57.8476 70.3841 57.8476H70.3782ZM49.585 69.897C49.9968 69.897 50.4086 69.9186 50.8145 69.897C51.9318 69.819 52.7672 68.9346 52.751 67.8596C52.7347 66.7861 51.8743 65.9276 50.7452 65.8915C49.9969 65.8699 49.2427 65.8699 48.4884 65.8915C47.349 65.9175 46.4826 66.7501 46.4501 67.8236C46.4191 68.9187 47.2692 69.8291 48.419 69.897C48.8042 69.9186 49.1939 69.897 49.5791 69.897H49.585ZM59.9447 69.897C60.3565 69.897 60.7683 69.9186 61.1742 69.897C62.3239 69.8291 63.1799 68.923 63.1475 67.8293C63.115 66.7558 62.2546 65.9233 61.1092 65.8915C60.3609 65.8699 59.6067 65.8699 58.8525 65.8915C57.7249 65.9233 56.8629 66.7818 56.8423 67.8553C56.826 68.923 57.66 69.819 58.7787 69.897C59.1625 69.9244 59.5536 69.8969 59.9388 69.9027L59.9447 69.897ZM70.4106 65.8858C70.0254 65.8858 69.6343 65.8757 69.2491 65.8858C68.1539 65.9276 67.2979 66.7443 67.2492 67.7875C67.202 68.8292 67.9709 69.783 69.0513 69.871C69.9339 69.9446 70.8328 69.9388 71.7154 69.871C72.8017 69.7931 73.5825 68.861 73.55 67.8134C73.5175 66.7659 72.6732 65.9334 71.5766 65.8815C71.1914 65.8656 70.8003 65.8815 70.4151 65.8815L70.4106 65.8858Z" fill="white"/>
<path d="M24.9827 52.229C25.4491 51.0448 26.3464 50.6206 27.6098 50.6521C29.5241 50.6991 31.4325 50.6625 33.3483 50.6625H34.1454V94.2799H24.9827V52.2232V52.229Z" fill="#20A7DB"/>
<path d="M85.8506 94.2856V50.6676C86.134 50.6676 86.3746 50.6676 86.6211 50.6676C88.5575 50.6676 90.4983 50.6676 92.4348 50.6676C94.2797 50.6676 95.0177 51.385 95.0177 53.1653C95.0177 66.8697 95.0177 80.5798 95.0177 94.2856H85.8506Z" fill="#20A7DB"/>
<path d="M56.4415 94.2857V80.9205H63.5555V94.2857H56.4415Z" fill="white"/>
</svg>
