<svg width="120" height="120" viewBox="0 0 120 120" fill="none" xmlns="http://www.w3.org/2000/svg">
<circle cx="60" cy="60" r="60" fill="#1B1464"/>
<path d="M92.9043 91.7289V92.6647C92.4554 93.8848 91.5688 94.2859 90.2981 94.2859C73.2763 94.2647 56.2545 94.269 39.2341 94.269C35.0251 94.269 30.8118 94.269 26.6028 94.269C25.3856 94.269 24.4722 93.3866 24.461 92.2581C24.4497 91.1027 25.3321 90.2513 26.5817 90.2471C28.6968 90.2359 30.8161 90.2471 32.9311 90.2471C33.1718 90.2471 33.4124 90.2471 33.7333 90.2471C33.7333 89.9361 33.7333 89.6955 33.7333 89.4605C33.7333 87.1386 33.7008 84.8166 33.7543 82.5003C33.7698 81.7517 33.5995 81.3338 32.841 81.0987C32.3232 80.944 31.8532 80.5851 31.4043 80.2586C29.6677 78.9907 28.4181 77.3105 27.5316 75.3854C24.5679 68.9333 23.6969 62.2307 25.5024 55.3141C27.1474 49.0224 30.2771 43.4322 33.9513 38.1253C34.9828 36.6381 36.5477 36.6381 37.5454 38.1629C38.902 40.2277 40.2487 42.3087 41.4561 44.4646C43.7203 48.4982 45.5258 52.7347 46.4658 57.2983C46.6037 57.9668 46.4701 58.3791 45.948 58.8392C43.0955 61.3314 40.2374 63.825 37.461 66.4031C34.4214 69.233 35.0673 74.2779 38.7796 76.0384C40.0292 76.6322 40.281 77.2795 40.2219 78.5038C40.1206 80.4627 40.1952 80.4669 38.3841 81.2268C38.3419 81.2437 38.3039 81.2704 38.2617 81.2747C37.7762 81.345 37.7058 81.6504 37.7114 82.088C37.7283 84.5873 37.7171 87.0851 37.7227 89.5885C37.7227 89.7813 37.7494 89.9783 37.7593 90.1824H44.1524V71.175C43.6514 71.6084 43.2503 71.9827 42.8168 72.3247C41.9795 72.9889 40.7989 72.8974 40.0939 72.1375C39.3621 71.3467 39.3833 70.159 40.1573 69.3569C40.3444 69.1641 40.5471 68.9924 40.7511 68.8165C48.6766 61.7592 56.6021 54.7034 64.5276 47.6477C65.7083 46.5992 66.6215 46.5992 67.8176 47.6638C72.4108 51.7567 77.0096 55.8489 81.6028 59.9355C81.7745 60.086 81.9504 60.2296 82.2121 60.4547C82.2121 60.0537 82.2121 59.8074 82.2121 59.5668C82.2121 57.6459 82.2065 55.7307 82.2121 53.8098C82.2121 52.708 82.837 51.8904 83.7925 51.6976C85.0956 51.4302 86.2017 52.3604 86.2073 53.762C86.2172 56.9986 86.2171 60.2352 86.2017 63.4662C86.2017 63.8842 86.3185 64.1614 86.6337 64.44C88.4293 66.0133 90.2066 67.5964 91.9797 69.1964C92.9156 70.0408 93.0112 71.2552 92.2471 72.1108C91.483 72.9678 90.2826 73.0044 89.3257 72.1868C88.9626 71.8758 88.6108 71.5606 88.1675 71.1694V90.2471C88.9091 90.2471 89.5987 90.295 90.2812 90.2359C91.5153 90.1289 92.3921 90.5891 92.8888 91.7332L92.9043 91.7289ZM53.5469 90.1979C53.5469 89.9038 53.5469 89.642 53.5469 89.3803C53.5469 84.918 53.5583 80.4571 53.5372 75.9905C53.5372 75.4389 53.6807 75.2461 54.2421 75.2728C55.0851 75.3207 55.935 75.3263 56.778 75.2728C57.414 75.2306 57.5534 75.46 57.5534 76.0595C57.5323 80.4993 57.542 84.9391 57.542 89.3803C57.542 89.642 57.542 89.9038 57.542 90.1937H61.5104C61.5217 89.9361 61.5428 89.7222 61.5428 89.5027C61.5428 84.2115 61.5428 78.9274 61.5428 73.6362C61.5428 72.0264 60.7787 71.2721 59.1548 71.2721C56.7738 71.2721 54.3857 71.2721 52.0032 71.2721C50.2949 71.2721 49.5518 72.0095 49.5518 73.7108C49.5518 78.9541 49.5518 84.1961 49.5518 89.4436V90.1979H53.5526H53.5469ZM75.29 85.0193C76.8281 85.0193 78.3606 85.0193 79.8987 85.0193C81.3622 85.0151 82.1854 84.2073 82.1854 82.7466C82.1911 79.6915 82.1911 76.6364 82.1854 73.5828C82.1854 72.1066 81.3889 71.2819 79.9311 71.2763C76.8605 71.2665 73.7899 71.2608 70.718 71.2763C69.3248 71.2819 68.5129 72.0897 68.5072 73.4857C68.4917 76.583 68.4917 79.6859 68.5072 82.7832C68.5129 84.2172 69.329 85.0151 70.7559 85.0193C72.2673 85.0249 73.7843 85.0193 75.2957 85.0193H75.29Z" fill="white"/>
<path d="M57.8782 25.7197C59.0265 25.9657 60.2072 26.1102 61.3231 26.4686C67.3263 28.373 71.3594 33.6852 71.7056 40.1583C71.8027 41.9557 71.7225 43.7639 71.7225 45.7378C71.1723 45.2564 70.7177 44.8659 70.2688 44.4647C69.4583 43.7318 68.5337 43.2181 67.4656 42.9935C65.3984 42.5655 63.593 43.1112 62.0282 44.5074C58.3539 47.7867 54.674 51.0601 50.9941 54.3347C50.7267 54.5697 50.4607 54.8005 50.1455 55.0777C50.0752 54.9173 50.0174 54.8103 49.9851 54.6935C48.4681 48.8513 45.8085 43.5284 42.5873 38.4678C42.2454 37.9274 42.1764 37.4727 42.3467 36.8575C43.9763 30.8766 49.0338 26.5061 55.1707 25.832C55.3199 25.816 55.4648 25.7571 55.614 25.7144C56.3725 25.7144 57.131 25.7144 57.8839 25.7144L57.8782 25.7197Z" fill="white"/>
<path d="M85.0154 25.7196C85.902 25.9925 86.8322 26.1797 87.6709 26.5595C91.462 28.2928 93.4925 32.5029 92.5356 36.5473C91.5478 40.7359 87.9424 43.5016 83.6011 43.4C79.5891 43.3038 76.0275 40.2117 75.2845 36.1781C74.3937 31.3207 77.6346 26.6826 82.5064 25.848C82.6344 25.8266 82.7512 25.7678 82.875 25.725C83.5843 25.725 84.3006 25.725 85.0112 25.725L85.0154 25.7196Z" fill="#20A7DB"/>
<path d="M78.1525 75.2995V80.9594H72.4968C72.4968 80.5527 72.4968 80.1403 72.4968 79.7294C72.4968 78.4348 72.4813 77.1401 72.5137 75.8511C72.5137 75.664 72.743 75.3262 72.8711 75.3262C74.6006 75.2882 76.3372 75.3051 78.1525 75.3051V75.2995Z" fill="white"/>
</svg>
