<svg width="120" height="120" viewBox="0 0 120 120" fill="none" xmlns="http://www.w3.org/2000/svg">
<circle cx="60" cy="60" r="60" fill="#1B1464"/>
<path d="M90.0201 43.6168C89.7249 54.4295 87.5526 64.775 82.1995 74.2924C77.1825 83.2115 69.9686 89.7368 60.6643 93.9586C59.5986 94.4423 58.5493 94.3685 57.4836 93.8766C44.3428 87.7612 36.0385 77.4813 31.6282 63.8486C29.1279 56.1182 28.0868 48.1829 28.3164 40.0755C28.341 39.1081 28.3655 38.0998 29.0623 37.3456C29.505 36.8702 30.0461 36.3865 30.6363 36.1652C39.7439 32.7058 48.8679 29.2628 58.0082 25.8935C58.7378 25.623 59.7543 25.6722 60.5003 25.9509C69.4685 29.2546 78.4122 32.6402 87.364 35.9848C89.0363 36.6079 89.9709 37.7227 90.0118 39.518C90.0446 40.887 90.0118 42.256 90.0118 43.6168H90.0201ZM58.2214 60.0531C58.1394 60.0203 58.1066 60.0203 58.0902 60.0039C56.6638 58.5857 55.2456 57.1594 53.8028 55.7576C52.3847 54.3885 50.3024 54.3803 48.958 55.7002C47.5726 57.061 47.548 59.1678 48.958 60.5942C51.2124 62.8895 53.4913 65.1603 55.7867 67.4228C57.2213 68.8328 59.2789 68.8492 60.6807 67.4064C65.6157 62.2911 70.5179 57.1512 75.42 52.0112C76.125 51.2734 76.4529 50.3717 76.3382 49.3634C76.1824 47.937 75.4282 46.9041 74.051 46.4368C72.6902 45.9778 71.4442 46.2565 70.4359 47.3058C68.2225 49.6011 66.0255 51.9129 63.8122 54.2164C61.9431 56.1674 60.074 58.1267 58.2214 60.0613V60.0531Z" fill="white"/>
<path d="M58.2214 60.0535C60.074 58.1188 61.9431 56.1678 63.8122 54.2086C66.0173 51.905 68.2143 49.5933 70.4359 47.2979C71.4442 46.2486 72.6902 45.9699 74.051 46.429C75.4282 46.8962 76.1824 47.9292 76.3382 49.3555C76.4529 50.3639 76.125 51.2738 75.42 52.0034C70.5178 57.1433 65.6156 62.2832 60.6807 67.3986C59.2871 68.8413 57.2213 68.8332 55.7867 67.415C53.4913 65.1606 51.2206 62.8817 48.958 60.5863C47.548 59.1599 47.5726 57.0449 48.958 55.6923C50.3024 54.3725 52.3846 54.3807 53.8028 55.7497C55.2456 57.1515 56.6638 58.5779 58.0902 59.9961C58.1066 60.0125 58.1394 60.0125 58.2214 60.0453V60.0535Z" fill="#20A7DB"/>
</svg>
