<svg width="120" height="120" viewBox="0 0 120 120" fill="none" xmlns="http://www.w3.org/2000/svg">
<circle cx="60" cy="60" r="60" fill="#1B1464"/>
<path d="M106.285 47.179C105.914 48.485 105.554 49.7798 105.138 51.2434C98.1357 47.1452 90.8968 44.0491 83.1747 41.9212C83.2758 41.5158 83.3545 41.1668 83.4332 40.8178C83.5231 40.4688 83.6018 40.1197 83.7254 39.6469C67.5729 35.3122 51.4879 35.3235 35.2904 39.6469C35.4702 40.4125 35.6389 41.0993 35.8299 41.9212C28.1527 44.0491 20.9026 47.1115 13.9785 51.1871C12.8994 48.9129 12.4723 46.5936 12.7983 44.2067C13.5177 38.78 16.4514 35.0533 21.5433 33.0154C29.1194 29.9868 36.9427 27.8589 45.0246 26.7443C63.2004 24.2223 80.8366 26.3165 97.8659 33.1956C102.519 35.0758 105.24 38.6111 106.116 43.5649C106.15 43.7451 106.229 43.9027 106.285 44.0828V47.1903V47.179Z" fill="#20A7DB"/>
<path d="M22.645 77.9263C23.7803 74.3348 24.7807 70.8558 25.9834 67.4444C28.7036 59.7434 33.582 53.6749 40.315 49.1263C42.0573 47.9554 42.8553 46.5593 42.6755 44.4765C42.5631 43.2042 42.6305 41.9207 42.6755 40.6372C42.6755 40.4008 42.8778 39.9729 43.0352 39.9504C45.4856 39.5339 47.9473 39.1736 50.4426 38.7908C50.9822 40.9299 51.488 42.9002 51.9826 44.8705C52.4322 46.6381 53.4101 47.46 55.2198 47.4826C58.0861 47.5051 60.9412 47.5051 63.8075 47.4826C65.6285 47.4713 66.6288 46.6607 67.0785 44.9156C67.5393 43.1479 68.0002 41.3803 68.4048 39.6014C68.5397 39.0159 68.787 38.8583 69.3378 38.9484C71.5072 39.2749 73.6654 39.6014 75.8348 39.9054C76.3294 39.9729 76.453 40.2319 76.453 40.716C76.4305 42.3373 76.4755 43.9473 76.4305 45.5686C76.3856 46.9196 76.9251 47.8991 78.0267 48.6535C82.2193 51.547 85.9736 54.9021 88.8287 59.1804C91.8299 63.6614 93.6396 68.6716 95.0896 73.8169C95.4718 75.1567 95.7978 76.519 96.18 77.9489H22.645V77.9263ZM59.6261 49.8356C52.7244 49.7118 46.8344 55.42 46.722 62.3329C46.6096 69.4935 52.1849 75.303 59.2889 75.4156C66.3366 75.5282 72.1591 69.9439 72.2828 62.9409C72.4064 55.769 66.7975 49.9595 59.6261 49.8244V49.8356Z" fill="white"/>
<path d="M59.5131 94.2744C47.1823 94.2744 34.8515 94.2744 22.5208 94.2744C20.2952 94.2744 19.7332 93.7002 19.7332 91.4485C19.7332 88.4874 19.7332 85.5376 19.7332 82.5766C19.7332 80.6738 20.4301 79.987 22.3297 79.987C47.1149 79.987 71.8888 79.987 96.674 79.987C98.5736 79.987 99.2817 80.6851 99.2817 82.5653C99.2817 85.6502 99.2817 88.7239 99.2817 91.8088C99.2817 93.5989 98.5848 94.2857 96.7751 94.2857C84.3544 94.2857 71.9337 94.2857 59.5131 94.2857V94.2744Z" fill="white"/>
<path d="M82.6117 43.8348C90.2215 45.9402 97.3142 48.9576 104.092 52.9544C103.553 53.8439 103.081 54.7446 102.496 55.544C101.507 56.895 99.8321 57.1314 98.1572 56.3658C94.3692 54.6433 90.57 52.9769 86.7594 51.3106C85.9277 50.9504 85.0284 50.7364 84.1741 50.4325C82.3644 49.8132 81.4764 48.1807 81.9485 46.3117C82.1396 45.5236 82.3757 44.7355 82.6117 43.8235V43.8348Z" fill="white"/>
<path d="M14.9224 52.9552C21.6891 48.9471 28.7706 45.9523 36.4253 43.8356C36.6839 44.984 37.066 46.0761 37.1672 47.202C37.3021 48.6994 36.3017 49.8703 34.7505 50.467C31.3446 51.7843 27.95 53.1016 24.5779 54.4864C23.2852 55.0156 22.0713 55.7361 20.8236 56.3554C18.924 57.3011 17.2379 56.817 16.1363 54.9931C15.7429 54.3401 15.3607 53.687 14.9336 52.944L14.9224 52.9552Z" fill="white"/>
<path d="M59.4912 66.4544C57.3667 66.4544 55.6694 64.7656 55.6582 62.6489C55.6582 60.5435 57.3443 58.8097 59.4462 58.7759C61.5707 58.7421 63.3354 60.5097 63.3242 62.6489C63.3129 64.7656 61.6156 66.4544 59.4799 66.4544H59.4912Z" fill="white"/>
<path d="M55.5123 56.3106C55.5235 57.6054 54.5231 58.6524 53.2529 58.675C51.994 58.6975 50.9262 57.6504 50.9037 56.3782C50.8812 55.1059 51.9041 54.0363 53.1743 54.0251C54.4444 54.0026 55.4898 55.0271 55.5123 56.3219V56.3106Z" fill="white"/>
<path d="M63.4818 56.3782C63.4705 55.0947 64.4822 54.0476 65.7636 54.0251C67.0338 54.0026 68.0904 55.0384 68.1016 56.3219C68.1016 57.5941 67.0787 58.6524 65.8198 58.675C64.5609 58.6975 63.5043 57.6504 63.493 56.3782H63.4818Z" fill="white"/>
<path d="M59.4692 56.0512C58.1878 56.0287 57.1425 54.9591 57.1874 53.6868C57.2212 52.4484 58.2665 51.4238 59.4917 51.4126C60.7506 51.4126 61.8297 52.4821 61.8185 53.7431C61.8185 55.0266 60.7507 56.0624 59.4692 56.0399V56.0512Z" fill="white"/>
<path d="M50.5893 64.9452C49.2966 64.934 48.3075 63.8869 48.33 62.5809C48.3524 61.3199 49.3416 60.3404 50.6118 60.3404C51.9157 60.3404 52.9385 61.3649 52.9273 62.6597C52.9273 63.9432 51.8707 64.9677 50.5893 64.9565V64.9452Z" fill="white"/>
<path d="M68.3369 64.9461C67.0554 64.9235 66.0438 63.8765 66.0663 62.5817C66.0888 61.2982 67.1454 60.3074 68.4493 60.3412C69.7082 60.375 70.6749 61.377 70.6636 62.6493C70.6636 63.944 69.6183 64.9686 68.3369 64.9461Z" fill="white"/>
<path d="M50.9037 68.8863C50.9262 67.6141 52.0052 66.567 53.2754 66.6008C54.5568 66.6346 55.546 67.7041 55.5123 68.9989C55.4785 70.2599 54.4669 71.2281 53.1967 71.2169C51.9041 71.2169 50.8812 70.1698 50.9037 68.8751V68.8863Z" fill="white"/>
<path d="M68.0911 68.9428C68.0911 70.2376 67.0457 71.2508 65.7418 71.2283C64.438 71.2058 63.4488 70.17 63.4825 68.864C63.5162 67.6255 64.5504 66.6122 65.7756 66.6122C67.057 66.6122 68.0911 67.6706 68.0911 68.9541V68.9428Z" fill="white"/>
<path d="M59.5352 73.8622C58.2875 73.8847 57.1971 72.8151 57.1747 71.5541C57.1634 70.3269 58.1751 69.2686 59.4115 69.2123C60.6592 69.156 61.772 70.2031 61.817 71.4753C61.8619 72.7363 60.8053 73.8396 59.5352 73.8734V73.8622Z" fill="white"/>
</svg>
