<svg width="120" height="120" viewBox="0 0 120 120" fill="none" xmlns="http://www.w3.org/2000/svg">
<circle cx="60" cy="60" r="60" fill="#1B1464"/>
<path d="M78.9613 25.7143C79.0168 25.7514 79.0724 25.7947 79.1341 25.8132C81.0102 26.4005 81.9791 27.6059 81.9853 29.5345C82.01 38.3987 82.01 47.263 82.01 56.1273C82.01 56.3683 81.9606 56.6032 81.9236 56.9494C81.6767 56.7207 81.4977 56.56 81.3311 56.3931C77.8319 52.8943 74.3451 49.3709 70.8212 45.8907C67.7108 42.8123 62.749 43.4181 60.5396 47.1023C59.0338 49.612 59.3856 52.7089 61.4345 54.9651C62.9341 56.6156 64.4461 58.2537 66.0198 59.9722C65.7792 59.9969 65.6187 60.034 65.4582 60.034C53.4919 60.0463 41.5255 60.0587 29.553 60.0649C27.7571 60.0649 26.4487 59.1067 25.881 57.4068C25.8501 57.3079 25.7884 57.2152 25.739 57.1225C25.7329 47.6524 25.7267 38.1824 25.7144 28.7123C26.1834 27.2164 27.1646 26.2336 28.6581 25.7638C45.4258 25.7514 62.1936 25.7391 78.9613 25.7205V25.7143ZM40.4146 34.3128C40.4146 33.3979 40.4208 32.4831 40.4146 31.5682C40.39 29.5469 39.0693 28.2116 37.0512 28.1931C35.2245 28.1746 33.3978 28.1807 31.5648 28.1931C29.5036 28.2116 28.1767 29.5407 28.1644 31.5991C28.1521 33.4288 28.1521 35.2647 28.1644 37.0945C28.1829 39.1158 29.5098 40.451 31.5278 40.4695C33.3546 40.4881 35.1813 40.4819 37.0142 40.4695C39.0693 40.451 40.3961 39.1158 40.4208 37.0635C40.4332 36.1487 40.4208 35.2338 40.4208 34.319L40.4146 34.3128ZM41.6057 44.1537H36.7673C36.7673 44.9635 36.7673 45.7238 36.7673 46.5274H41.6057C41.6057 45.7362 41.6057 44.982 41.6057 44.1537ZM44.1237 44.1414V46.5027C45.7653 46.5027 47.3513 46.5027 48.9312 46.5027V44.1414C47.302 44.1414 45.7282 44.1414 44.1237 44.1414ZM34.2556 53.8896V51.5282C32.6202 51.5282 31.0341 51.5282 29.4604 51.5282V53.8896C31.0896 53.8896 32.6572 53.8896 34.2556 53.8896ZM56.2813 51.5035H51.4615C51.4615 52.3133 51.4615 53.0798 51.4615 53.8648H56.2813C56.2813 53.0489 56.2813 52.2824 56.2813 51.5035ZM29.4295 46.5212H34.2556C34.2556 45.6991 34.2556 44.9388 34.2556 44.1661H29.4295C29.4295 44.9635 29.4295 45.7115 29.4295 46.5212ZM51.4553 44.1414V46.515C53.0784 46.515 54.6583 46.515 56.2813 46.515V44.1414C54.6706 44.1414 53.1031 44.1414 51.4553 44.1414ZM60.0089 29.4294V33.0518C60.8174 33.0518 61.5826 33.0518 62.354 33.0518V29.4294C61.5456 29.4294 60.7988 29.4294 60.0089 29.4294ZM64.9151 29.4294V33.0518C65.7298 33.0518 66.4951 33.0518 67.2665 33.0518V29.4294C66.458 29.4294 65.7113 29.4294 64.9151 29.4294ZM72.1419 33.0456V29.4418C71.3149 29.4418 70.5497 29.4418 69.7844 29.4418V33.0456C70.5929 33.0456 71.3581 33.0456 72.1419 33.0456ZM74.6969 33.0456H77.0482C77.0482 31.8155 77.0482 30.6286 77.0482 29.4356H74.6969C74.6969 30.6657 74.6969 31.8402 74.6969 33.0456Z" fill="#20A7DB"/>
<path d="M88.4034 67.0373C89.0575 66.3821 89.6068 65.8381 90.2116 65.2324C88.7243 63.755 87.2431 62.2838 85.7188 60.7631C86.1261 60.59 86.4717 60.4479 86.8111 60.3057C90.2177 58.9025 91.668 55.5954 90.3659 52.1338C89.1501 48.9256 87.9034 45.7236 86.6692 42.5215C86.5889 42.3176 86.5272 42.1074 86.447 41.891C86.5272 41.8849 86.5766 41.8663 86.589 41.8787C88.0948 43.4055 89.6746 44.8581 91.0756 46.4715C93.1553 48.8576 94.2045 51.7196 94.223 54.8845C94.2662 63.7982 94.2539 72.7058 94.26 81.6195C94.26 81.7307 94.2477 81.842 94.2353 82.0336C94.0008 82.046 93.7663 82.0646 93.5318 82.0707C87.2863 82.0769 81.047 82.0707 74.8015 82.1016C74.314 82.1016 74.0425 81.9409 73.7956 81.5329C70.6852 76.4023 70.426 71.1666 73.1538 65.801C73.6043 64.9109 73.5734 64.5833 72.8822 63.823C69.6608 60.2995 66.427 56.7884 63.2055 53.2588C61.4528 51.3425 61.6935 48.5609 63.7115 47.0835C65.3346 45.8966 67.5316 46.0697 69.0251 47.5409C71.0432 49.5314 73.0365 51.5465 75.0422 53.5493C79.3314 57.8455 83.6267 62.1354 87.9096 66.4316C88.0824 66.6046 88.2244 66.8086 88.4034 67.0312V67.0373Z" fill="white"/>
<path d="M33.6086 68.15C36.0896 67.1857 38.5149 66.2399 40.9403 65.3065C43.1805 64.4411 45.4207 63.5695 47.6733 62.7226C48.0559 62.5804 48.4879 62.4939 48.9014 62.4939C55.0975 62.4754 61.2936 62.4815 67.4959 62.4568C68.0822 62.4568 68.5142 62.5928 68.8721 63.0626C69.1622 63.4459 69.5139 63.7858 69.8965 64.2124C68.2735 64.8429 66.7492 65.4425 65.2186 66.0359C57.1403 69.1576 49.0495 72.2236 41.002 75.4256C38.4038 76.4579 36.1821 75.2896 35.4477 72.9839C34.9355 71.3705 34.2505 69.819 33.6086 68.1562V68.15Z" fill="white"/>
<path d="M74.7399 94.2858C74.7399 91.0467 74.7399 87.8385 74.7338 84.587C81.2199 84.587 87.6937 84.5746 94.2107 84.5685C94.2107 87.7766 94.2108 90.9972 94.2169 94.2672C87.7555 94.2672 81.2878 94.2796 74.7399 94.2858ZM77.19 86.9978V89.3653C78.0046 89.3653 78.7699 89.3653 79.5228 89.3653V86.9978C78.7143 86.9978 77.9676 86.9978 77.19 86.9978Z" fill="white"/>
<path d="M84.5294 43.7708C85.813 47.115 87.0535 50.2614 88.2199 53.4325C88.8123 55.0459 88.0841 56.8818 86.5968 57.6915C85.8254 58.1119 84.9737 58.39 84.1776 58.7238C84.7701 53.8343 84.3257 48.988 84.4615 44.1541C84.4615 44.0923 84.4862 44.0304 84.5356 43.7708H84.5294Z" fill="white"/>
<path d="M32.7255 65.8691C32.2874 64.7255 31.8739 63.6561 31.4419 62.5249H41.0446C41.0446 62.5249 41.0693 62.5929 41.0816 62.63C38.323 63.6994 35.5644 64.7688 32.7255 65.8691Z" fill="white"/>
<path d="M30.6396 33.1131C30.6396 32.4703 30.5656 31.883 30.6705 31.3329C30.7199 31.0794 31.1087 30.7085 31.3493 30.7024C33.3057 30.6467 35.2682 30.6653 37.2245 30.6715C37.675 30.6715 37.9219 30.9496 37.9342 31.3947C37.9528 31.9263 37.9342 32.4641 37.9342 33.0699H35.5521C35.5521 33.9106 35.5521 34.6771 35.5521 35.5177H37.9157C37.9157 36.2039 37.9836 36.822 37.8849 37.4216C37.8479 37.6442 37.4344 37.9533 37.1937 37.9594C35.2558 38.0027 33.3242 37.9903 31.3864 37.9842C30.942 37.9842 30.6643 37.7431 30.6458 37.2918C30.6211 36.7417 30.6396 36.1853 30.6396 35.561H33.0341C33.0341 34.7203 33.0341 33.9538 33.0341 33.1131H30.6458H30.6396Z" fill="white"/>
</svg>
