<svg width="128" height="128" viewBox="0 0 128 128" fill="none" xmlns="http://www.w3.org/2000/svg">
<g filter="url(#filter0_d_166_9548)">
<circle cx="64" cy="60" r="60" fill="#1B1464"/>
<path d="M48.5675 94.2858C47.5344 93.9865 46.5369 93.6231 45.7674 92.8251C44.7485 91.7778 44.2854 90.5166 44.2854 89.0702C44.2854 87.2819 44.2854 85.5006 44.2854 83.7122C44.2854 66.1918 44.2854 48.6786 44.2854 31.1582C44.2854 28.9637 45.0977 27.2252 47.1283 26.2633C47.8265 25.9284 48.6673 25.7432 49.4439 25.7432C58.9487 25.7075 68.4606 25.7075 77.9653 25.7289C81.0504 25.7289 83.1238 27.9163 83.1238 31.094C83.1238 46.5126 83.1238 61.9311 83.1238 77.3567C83.1238 80.9691 83.0455 84.5886 83.1452 88.201C83.2236 90.9584 82.2973 93.4094 78.8346 94.2858H48.5675ZM48.0474 78.4041H79.3333V34.2006H48.0474V78.4041ZM63.7652 28.7713C61.5351 28.7713 59.3049 28.7713 57.0748 28.7713C56.2412 28.7713 55.9419 29.0919 55.9419 29.954C55.9419 30.8162 56.2554 31.1724 57.0605 31.1724C61.4994 31.1724 65.9383 31.1724 70.3772 31.1724C71.1681 31.1724 71.4816 30.8019 71.4744 29.9327C71.4673 29.0919 71.1681 28.7713 70.3914 28.7642C68.1827 28.7642 65.9739 28.7642 63.7652 28.7642V28.7713ZM63.7082 89.3481C65.4609 89.3481 66.9073 87.8946 66.8931 86.1561C66.8788 84.4247 65.4681 83.0282 63.7367 83.014C61.9697 82.9997 60.5304 84.4105 60.5162 86.1632C60.5019 87.9017 61.9554 89.3481 63.7082 89.3481Z" fill="white"/>
<path d="M62.3033 70.2816C61.776 70.0678 61.6406 69.6759 61.6834 69.1273C61.89 66.5196 62.0681 63.9118 62.2534 61.304C62.3175 60.4348 62.3816 59.5727 62.4529 58.6678C62.3246 58.6678 62.2178 58.6678 62.1109 58.6678C60.2798 58.6678 58.4415 58.6678 56.6104 58.6678C56.0974 58.6678 55.7269 58.4327 55.6913 58.0052C55.6699 57.7701 55.7483 57.4993 55.8623 57.2927C56.8028 55.5756 57.7575 53.8655 58.7123 52.1555C60.4151 49.0989 62.118 46.0423 63.8209 42.9785C64.0061 42.6508 64.2341 42.3943 64.6331 42.3943C65.1248 42.3943 65.481 42.8147 65.4454 43.349C65.2245 46.3914 64.9965 49.4338 64.7685 52.469C64.7329 52.9678 64.7044 53.4594 64.6617 53.9938C64.7828 53.9938 64.8897 53.9938 64.9965 53.9938C66.8277 53.9938 68.6659 53.9938 70.497 53.9938C70.7892 53.9938 71.0528 54.0579 71.2523 54.293C71.5017 54.5852 71.5159 54.9129 71.2808 55.3262C70.5469 56.6443 69.8202 57.9553 69.0863 59.2734C67.1625 62.7291 65.2388 66.1847 63.3221 69.6403C63.1583 69.9324 62.9588 70.1747 62.631 70.2816H62.3033Z" fill="#20A7DB"/>
</g>
<defs>
<filter id="filter0_d_166_9548" x="0" y="0" width="128" height="128" filterUnits="userSpaceOnUse" color-interpolation-filters="sRGB">
<feFlood flood-opacity="0" result="BackgroundImageFix"/>
<feColorMatrix in="SourceAlpha" type="matrix" values="0 0 0 0 0 0 0 0 0 0 0 0 0 0 0 0 0 0 127 0" result="hardAlpha"/>
<feOffset dy="4"/>
<feGaussianBlur stdDeviation="2"/>
<feComposite in2="hardAlpha" operator="out"/>
<feColorMatrix type="matrix" values="0 0 0 0 0 0 0 0 0 0 0 0 0 0 0 0 0 0 0.25 0"/>
<feBlend mode="normal" in2="BackgroundImageFix" result="effect1_dropShadow_166_9548"/>
<feBlend mode="normal" in="SourceGraphic" in2="effect1_dropShadow_166_9548" result="shape"/>
</filter>
</defs>
</svg>
