<svg width="120" height="120" viewBox="0 0 120 120" fill="none" xmlns="http://www.w3.org/2000/svg">
<circle cx="60" cy="60" r="60" fill="#1B1464"/>
<path d="M92.5131 80.0861C91.9787 81.2424 91.0595 81.5785 89.8199 81.5785C68.7439 81.5541 47.6679 81.5598 26.5919 81.5598C24.7562 81.5598 24.0566 80.8532 24.0566 79.0146C24.0566 72.0094 24.0566 64.9998 24.0566 57.9946C24.0566 56.3385 24.8036 55.5829 26.4583 55.5829C47.5759 55.5829 68.7008 55.5887 89.8199 55.5642C91.0595 55.5642 91.9787 55.8932 92.5131 57.0566V80.0919V80.0861ZM58.3215 59.0604C57.3361 59.0547 56.4915 59.6033 56.108 60.6016C54.235 65.5169 52.3806 70.4322 50.5377 75.3532C50.1298 76.4377 50.6526 77.5394 51.6811 77.9359C52.7081 78.3381 53.8026 77.8569 54.2652 76.7911C54.4663 76.3214 54.6544 75.8402 54.8067 75.3532C54.9216 74.9755 55.1169 74.8476 55.5177 74.8534C56.9225 74.8778 58.3272 74.8606 59.732 74.8663C60.3339 74.8663 61.075 74.6767 61.4887 74.964C61.8966 75.2441 61.9871 76.0054 62.2011 76.5598C62.6809 77.7836 63.7395 78.3495 64.834 77.9545C65.9587 77.5466 66.4212 76.4076 65.953 75.1464C65.2721 73.3064 64.5784 71.4736 63.8918 69.6408C62.7786 66.6804 61.6712 63.7143 60.5522 60.7539C60.14 59.6579 59.337 59.0676 58.3086 59.0604H58.3215ZM75.4144 65.0716C75.232 64.8346 75.0912 64.6709 74.9706 64.4942C73.8933 62.9889 72.8232 61.4793 71.7416 59.9811C71.213 59.2443 70.4891 58.9024 69.5885 59.1222C68.1593 59.4626 67.6005 61.0527 68.4767 62.3009C69.8327 64.2385 71.2058 66.1619 72.5991 68.0694C72.872 68.44 72.872 68.6784 72.5991 69.0562C71.1943 70.9809 69.8082 72.9229 68.4451 74.885C67.7528 75.8775 67.9768 77.0654 68.9205 77.7161C69.8326 78.3495 70.9932 78.1556 71.6928 77.2047C72.7988 75.6951 73.8761 74.1596 74.9648 72.6371C75.0912 72.4604 75.2262 72.2952 75.3957 72.0769C75.5667 72.2895 75.7002 72.4546 75.8281 72.6313C76.9154 74.1539 77.987 75.6951 79.0987 77.199C80.041 78.4716 81.8293 78.338 82.5231 76.9735C82.9353 76.1634 82.7658 75.4265 82.2544 74.7198C80.9057 72.8381 79.5727 70.9378 78.2053 69.0676C77.9381 68.6956 77.9195 68.4644 78.1995 68.0809C79.5914 66.1748 80.966 64.25 82.322 62.3138C83.0387 61.2897 82.8333 60.0774 81.8839 59.4195C80.9531 58.7803 79.7868 59.0058 79.0628 59.9811C78.4912 60.7539 77.9496 61.5396 77.3909 62.3195C76.746 63.2201 76.101 64.1165 75.4144 65.0716ZM43.1735 63.0751C43.8069 63.0751 44.3599 63.0751 44.9129 63.0751C45.4731 63.0751 46.0261 63.0923 46.5849 63.0679C47.6794 63.0205 48.5196 62.1371 48.5196 61.0713C48.5196 60.0055 47.6793 59.0791 46.592 59.0733C42.9853 59.0489 39.3742 59.0546 35.7675 59.0733C34.9401 59.0733 34.3267 59.5243 33.9863 60.2784C33.4017 61.5827 34.3383 63.032 35.7976 63.0751C36.9051 63.1052 38.0111 63.0808 39.1602 63.0808C39.1602 63.404 39.1602 63.641 39.1602 63.8852C39.1602 67.8798 39.1602 71.87 39.1602 75.8646C39.1602 77.1688 39.9876 78.0766 41.1553 78.0824C42.3231 78.0881 43.1677 77.1803 43.1735 75.889C43.1806 73.4098 43.1735 70.9378 43.1735 68.4586C43.1735 66.6991 43.1735 64.9381 43.1735 63.0808V63.0751Z" fill="#20A7DB"/>
<path d="M65.9043 25.7143C65.9043 30.599 65.9043 35.4897 65.9043 40.3746C65.9043 41.9398 66.6828 42.7195 68.2384 42.7195C72.8061 42.7195 77.3723 42.7195 81.9443 42.7195H82.7114V51.5265H33.8156C33.8156 51.2708 33.8156 51.0151 33.8156 50.7595C33.8156 44.0837 33.8156 37.4145 33.8156 30.7391C33.8156 27.8583 34.5452 26.7619 37.1609 25.7143H65.9043ZM49.1877 34.4178C47.6737 34.4178 46.1598 34.4178 44.6516 34.4178C43.2957 34.4178 42.3836 35.2219 42.3721 36.4095C42.3649 37.6032 43.277 38.4316 44.6215 38.4316C47.668 38.4316 50.7146 38.4316 53.7669 38.4316C55.1113 38.4316 56.0234 37.5972 56.0105 36.4034C55.999 35.2339 55.0984 34.4178 53.797 34.4117C52.2644 34.4117 50.7261 34.4117 49.1949 34.4117L49.1877 34.4178ZM49.1216 47.0072C50.6772 47.0072 52.2343 47.0072 53.7913 47.0072C55.0927 47.0072 55.9918 46.185 56.0047 45.0157C56.0162 43.8462 55.1113 42.9935 53.8272 42.9935C50.739 42.9874 47.6436 42.9874 44.5539 42.9935C43.2713 42.9935 42.3649 43.8524 42.3778 45.0157C42.3893 46.185 43.2957 47.0012 44.5913 47.0072C46.1052 47.0072 47.6192 47.0072 49.1274 47.0072H49.1216Z" fill="white"/>
<path d="M33.8156 85.6032H82.6682C82.6682 87.4245 82.8263 89.2343 82.6266 91.0126C82.4011 93.0106 80.6746 94.2832 78.6005 94.2832C72.2287 94.289 65.8554 94.2832 59.4822 94.2832C52.3994 94.2832 45.3152 94.2832 38.231 94.2832C35.4645 94.2832 33.8156 92.6386 33.8156 89.885C33.8156 88.4846 33.8156 87.0783 33.8156 85.6032Z" fill="white"/>
<path d="M69.9532 27.1881C73.7841 31.0313 77.579 34.844 81.3797 38.6629H69.9532V27.1881Z" fill="white"/>
<path d="M60.0601 70.8285H56.5338C57.1112 69.3045 57.6642 67.8192 58.2977 66.1444C58.9239 67.8006 59.4769 69.28 60.0601 70.8285Z" fill="#20A7DB"/>
</svg>
