<svg width="120" height="120" viewBox="0 0 120 120" fill="none" xmlns="http://www.w3.org/2000/svg">
<circle cx="60" cy="60" r="60" fill="#1B1464"/>
<path d="M101.657 91.3971C101.072 92.8102 100.211 93.9523 98.5894 94.2136C97.9651 94.3152 97.3167 94.2765 96.6779 94.2765C95.1051 94.2862 93.5324 94.291 91.9596 94.2765C89.8642 94.2571 88.2334 92.6795 88.2237 90.589C88.2044 82.9527 88.2044 75.3163 88.2237 67.68C88.2237 65.5943 89.8546 64.007 91.9548 63.9877C93.847 63.9732 95.7391 63.9828 97.6312 63.9877C99.6153 63.9877 100.786 64.8104 101.517 66.688C101.541 66.7557 101.609 66.809 101.657 66.867V91.3971Z" fill="white"/>
<path d="M86.9029 68.8559V89.563H34.5037V68.8559H86.9029ZM60.6017 75.0404C64.8118 75.0404 69.0171 75.0404 73.2273 75.0404C73.4402 75.0404 73.7063 75.113 73.8563 75.0114C74.0886 74.8565 74.3645 74.6 74.3984 74.3581C74.4225 74.1839 74.1032 73.9129 73.8806 73.7822C73.7209 73.6903 73.4644 73.7532 73.2514 73.7532C64.8892 73.7532 56.5222 73.7532 48.16 73.7532C47.9471 73.7532 47.6954 73.6903 47.5309 73.7822C47.3034 73.908 46.9744 74.1693 46.9937 74.3436C47.0179 74.5855 47.2841 74.8517 47.5164 75.0114C47.6615 75.113 47.9277 75.0404 48.1406 75.0404C52.2975 75.0404 56.4496 75.0404 60.6065 75.0404H60.6017Z" fill="white"/>
<path d="M76.8029 41.1951C75.2544 41.1951 73.7639 41.1951 72.2782 41.1951C71.8088 41.1951 71.2862 41.1757 71.262 41.8048C71.2378 42.4968 71.7895 42.492 72.2831 42.492C73.7735 42.492 75.2592 42.492 76.7448 42.492C76.89 49.1218 71.2233 57.6727 61.3319 57.9921C61.3319 57.2033 61.3319 56.4145 61.3319 55.6257C61.3319 54.8756 61.3222 54.1304 61.3319 53.3803C61.3415 52.906 61.2448 52.4754 60.6931 52.4608C60.1366 52.4512 60.0301 52.877 60.0349 53.3513C60.0446 54.6095 60.0349 55.8628 60.0349 57.121C60.0349 57.3823 60.0349 57.6485 60.0349 57.9098C52.6599 58.084 44.7333 51.6672 44.5833 42.492C45.8802 42.492 47.1819 42.492 48.4788 42.492C48.7208 42.492 48.9579 42.4872 49.1999 42.492C49.6838 42.5065 50.0903 42.3613 50.0758 41.8097C50.0613 41.3112 49.6741 41.1854 49.2193 41.1902C47.9369 41.2048 46.6593 41.1902 45.3769 41.1902C45.1156 41.1902 44.8591 41.1902 44.5978 41.1902C44.5978 33.4039 51.3146 25.8644 60.0301 25.7144C60.0301 27.0693 60.0301 28.4243 60.0301 29.7842C60.0301 30.0261 59.9527 30.302 60.0495 30.4955C60.1946 30.781 60.4608 31.0085 60.6737 31.2601C60.8867 31.0085 61.2786 30.7617 61.2883 30.5004C61.3512 29.1938 61.3174 27.8823 61.3174 26.5757C61.3174 26.2902 61.3174 26.0047 61.3174 25.7144C69.4182 25.8547 76.4738 32.6296 76.7836 41.1951H76.8029ZM61.3319 38.5093C61.3319 38.0012 61.4093 37.4785 61.3028 36.9946C61.2399 36.7139 60.8915 36.4913 60.6737 36.2445C60.4656 36.501 60.1027 36.743 60.0737 37.0188C59.9914 37.8125 60.0107 38.6206 60.0543 39.4142C60.0833 40.0046 59.9527 40.3434 59.3429 40.6047C58.1476 41.1225 57.5573 42.5017 57.8573 43.7454C58.1525 44.9842 59.2897 45.9327 60.5527 45.9956C61.8061 46.0585 63.0256 45.1923 63.4079 43.9728C63.8047 42.7098 63.374 41.2386 62.2078 40.7354C61.3222 40.3531 61.2835 39.8014 61.3319 39.0658C61.3464 38.8819 61.3319 38.6932 61.3319 38.5045V38.5093Z" fill="#20A7DB"/>
<path d="M19.7237 79.1101C19.7237 75.3984 19.7237 71.6867 19.7237 67.975C19.7237 65.5312 21.2723 63.9875 23.721 63.9826C25.5841 63.9826 27.452 63.973 29.3151 63.9826C31.5557 63.9972 33.1526 65.5747 33.1575 67.8105C33.1672 75.3403 33.1672 82.8702 33.1575 90.3952C33.1575 92.6842 31.5654 94.2618 29.2764 94.2714C27.3843 94.2811 25.4921 94.2811 23.6 94.2714C21.311 94.2618 19.7286 92.6842 19.7189 90.3952C19.7092 86.6303 19.7189 82.8653 19.7189 79.1004L19.7237 79.1101Z" fill="white"/>
<path d="M51.9137 67.4288V57.068C57.3869 59.8699 62.7778 60.0393 68.2994 57.6487V67.424H51.9137V67.4288Z" fill="white"/>
<path d="M62.2844 43.082C62.2941 43.9579 61.5343 44.737 60.6777 44.737C59.8648 44.737 59.1147 43.9918 59.0905 43.1449C59.0614 42.2254 59.7583 41.5237 60.6923 41.5334C61.602 41.5431 62.2795 42.2012 62.2844 43.0771V43.082Z" fill="white"/>
</svg>
