<svg width="120" height="120" viewBox="0 0 120 120" fill="none" xmlns="http://www.w3.org/2000/svg">
<circle cx="60" cy="60" r="60" fill="#1B1464"/>
<path d="M45.4174 94.2858C44.3875 93.9855 43.3914 93.6223 42.6226 92.8232C41.6072 91.7771 41.1431 90.513 41.1431 89.0698V31.1565C41.1431 28.9626 41.9554 27.2239 43.9813 26.2602C44.6776 25.926 45.5189 25.7419 46.2925 25.7419C55.7839 25.708 65.2802 25.708 74.7668 25.7274C77.8468 25.7274 79.9162 27.9165 79.9162 31.0935V77.3593C79.9162 80.9722 79.8389 84.59 79.9356 88.2029C80.0129 90.9586 79.0894 93.4092 75.6323 94.2858H45.4125H45.4174ZM44.9 78.4054H76.1351V34.2028H44.9V78.4054ZM60.5949 28.7737H53.9176C53.0859 28.7737 52.7861 29.0933 52.7861 29.9554C52.7861 30.8175 53.1004 31.1759 53.9031 31.1759H67.1998C67.9879 31.1759 68.3022 30.8029 68.2973 29.936C68.2925 29.0933 67.9927 28.7737 67.2143 28.7689H60.5998L60.5949 28.7737ZM60.5369 89.3604C62.2872 89.3604 63.733 87.9074 63.7184 86.1688C63.7039 84.435 62.2969 83.0402 60.5659 83.0256C58.8011 83.0111 57.365 84.4204 57.3505 86.1736C57.336 87.9123 58.7866 89.3604 60.5369 89.3604Z" fill="white"/>
<path d="M49.4875 52.2715H72.3385C72.3385 52.3781 72.353 52.4701 72.353 52.567C72.353 56.7998 72.3337 61.0326 72.3627 65.2655C72.3723 66.6893 71.3038 67.7451 69.8919 67.7403C63.8866 67.7161 57.8814 67.7306 51.8761 67.7306C50.6673 67.7306 49.7486 67.009 49.5165 65.8757C49.4827 65.7013 49.4778 65.5221 49.4778 65.343C49.4778 61.0665 49.4778 56.7853 49.4778 52.5089C49.4778 52.4362 49.4827 52.3684 49.4875 52.2715ZM52.9108 63.1442C52.9108 63.3234 52.9108 63.5026 52.9108 63.6818C52.9205 64.3743 53.375 64.849 54.0616 64.8683C54.4339 64.8829 54.811 64.8829 55.1882 64.8683C55.8409 64.8441 56.3051 64.4034 56.3389 63.7544C56.3631 63.3428 56.3631 62.9311 56.3389 62.5195C56.3003 61.8802 55.8361 61.4491 55.2027 61.4346C54.8207 61.4249 54.4339 61.4249 54.0519 61.4346C53.3943 61.4491 52.935 61.9141 52.9205 62.5776C52.9156 62.7665 52.9205 62.9553 52.9205 63.1394L52.9108 63.1442ZM68.9152 56.8676C68.9152 56.669 68.9152 56.4753 68.9152 56.2767C68.8959 55.6181 68.4462 55.1532 67.7838 55.1241C67.4018 55.1096 67.015 55.1096 66.633 55.1241C65.9851 55.1483 65.5209 55.5987 65.4919 56.2429C65.4726 56.6448 65.4726 57.0468 65.4919 57.4488C65.5258 58.0977 65.9899 58.5433 66.6378 58.553C67.0392 58.5627 67.4405 58.5627 67.8418 58.553C68.4268 58.5288 68.8813 58.0735 68.9104 57.4827C68.92 57.2793 68.9104 57.071 68.9104 56.8676H68.9152ZM60.942 61.4346C60.7534 61.4346 60.5649 61.4346 60.3811 61.4346C59.6752 61.4491 59.2062 61.9189 59.2014 62.6212C59.2014 62.9795 59.2014 63.3379 59.2014 63.6963C59.211 64.355 59.6559 64.8344 60.3134 64.8683C60.7148 64.8877 61.1161 64.8877 61.5174 64.8683C62.146 64.8344 62.6053 64.3792 62.6246 63.7738C62.6392 63.3525 62.6392 62.9311 62.6246 62.5146C62.6005 61.9334 62.1363 61.4734 61.5561 61.4443C61.353 61.4346 61.1451 61.4443 60.942 61.4443V61.4346ZM60.913 58.553C61.1113 58.553 61.3047 58.5578 61.5029 58.553C62.1556 58.5336 62.6198 58.059 62.6343 57.4003C62.6392 57.0323 62.6343 56.6642 62.6343 56.301C62.6247 55.6423 62.1798 55.158 61.5271 55.1241C61.1258 55.1047 60.7244 55.1047 60.3231 55.1241C59.6994 55.1532 59.2304 55.6133 59.211 56.2138C59.1965 56.6351 59.1965 57.0565 59.211 57.473C59.2304 58.0542 59.6945 58.5191 60.2748 58.5481C60.4875 58.5578 60.7051 58.5481 60.9178 58.5481L60.913 58.553ZM54.6031 58.553C54.7917 58.553 54.9803 58.553 55.164 58.553C55.8409 58.5385 56.3099 58.0929 56.3389 57.4149C56.3534 57.0323 56.3534 56.6448 56.3389 56.2622C56.3148 55.6084 55.8651 55.1532 55.2172 55.1193C54.8159 55.0999 54.4145 55.0999 54.0132 55.1193C53.3653 55.1532 52.9253 55.6229 52.9108 56.2719C52.9011 56.6545 52.9011 57.042 52.9108 57.4246C52.9253 58.059 53.3847 58.5191 54.0084 58.5481C54.2066 58.5578 54.4 58.5481 54.5983 58.5481L54.6031 58.553ZM68.92 63.1491C68.92 62.9505 68.9249 62.7568 68.92 62.5582C68.9007 61.9092 68.4414 61.4491 67.7983 61.4298C67.4211 61.4201 67.0488 61.4201 66.6717 61.4298C65.9803 61.4395 65.5112 61.8995 65.4919 62.5873C65.4822 62.965 65.4774 63.3379 65.4919 63.7157C65.5161 64.3744 65.9754 64.8393 66.633 64.8635C67.015 64.878 67.4018 64.878 67.7838 64.8635C68.4607 64.8344 68.9055 64.3647 68.9152 63.6866C68.9152 63.5074 68.9152 63.3282 68.9152 63.1491H68.92Z" fill="#20A7DB"/>
<path d="M64.9315 45.3997C64.8493 46.3053 65.0185 47.1141 65.7438 47.7146C66.2031 48.0972 66.735 48.2716 67.3345 48.2377C68.0501 48.1941 68.6159 47.8793 69.0462 47.3175C69.4765 46.7557 69.5345 46.1019 69.491 45.4336C71.0769 45.1381 72.2519 46.1988 72.3244 47.4241C72.3921 48.6203 72.3438 49.8214 72.3486 51.0225C72.3486 51.0467 72.3341 51.0709 72.3196 51.1096H49.4976C49.4928 51.0176 49.4831 50.9401 49.4831 50.8626C49.4831 49.8311 49.4783 48.8043 49.4831 47.7728C49.4928 46.3537 50.4598 45.3948 51.8862 45.39C52.0264 45.39 52.1666 45.39 52.3117 45.39C52.3359 45.7338 52.3262 46.0583 52.3794 46.3683C52.5824 47.55 53.6123 48.3249 54.8405 48.2377C55.9429 48.1602 56.8519 47.2013 56.8954 46.0632C56.9051 45.8501 56.8954 45.637 56.8954 45.4045H64.9266L64.9315 45.3997Z" fill="#20A7DB"/>
<path d="M66.0637 45.3611C66.0637 45.1722 66.0637 44.9833 66.0637 44.7993C66.0782 44.1988 66.5278 43.7193 67.1081 43.6709C67.7076 43.6224 68.2588 44.0293 68.3217 44.6346C68.3701 45.1286 68.3701 45.6372 68.3217 46.1311C68.2637 46.7414 67.7173 47.1482 67.1129 47.0998C66.5327 47.0562 66.0782 46.5767 66.0637 45.9762C66.0588 45.7728 66.0637 45.5645 66.0637 45.3611Z" fill="#20A7DB"/>
<path d="M55.765 45.3994C55.765 45.598 55.7699 45.7917 55.765 45.9903C55.7457 46.586 55.2864 47.0654 54.7013 47.0993C54.1114 47.1381 53.5699 46.7361 53.5118 46.1404C53.4635 45.6367 53.4635 45.1185 53.5118 44.6197C53.5699 44.024 54.1162 43.6269 54.7061 43.6656C55.2767 43.7043 55.736 44.1693 55.765 44.7553C55.7747 44.9684 55.765 45.1863 55.765 45.3994Z" fill="#20A7DB"/>
</svg>
