<svg width="120" height="120" viewBox="0 0 120 120" fill="none" xmlns="http://www.w3.org/2000/svg">
<circle cx="60" cy="60" r="60" fill="#1B1464"/>
<path d="M35.922 25.7144C37.6216 26.0447 39.039 26.9936 40.5104 27.8164C51.6212 34.0324 62.7259 40.2484 73.8367 46.4585C74.0109 46.5545 74.1791 46.6627 74.2812 46.7227C70.9599 50.0439 67.6387 53.3591 64.3715 56.6323C54.1737 46.4344 43.9037 36.1645 33.6458 25.9065C33.7479 25.8585 33.898 25.7864 34.0481 25.7144C34.6727 25.7144 35.2974 25.7144 35.922 25.7144Z" fill="white"/>
<path d="M61.0386 60.0373C50.6245 70.4514 40.1324 80.9436 29.5982 91.4838C28.7994 90.4989 28.421 89.2917 28.3009 87.9884C28.2769 87.7422 28.2889 87.496 28.2889 87.2497C28.2889 69.0821 28.2889 50.9145 28.2889 32.7409C28.2889 31.1794 28.6672 29.756 29.5621 28.5488C40.0843 39.071 50.5825 49.5752 61.0386 60.0313V60.0373Z" fill="white"/>
<path d="M33.5798 94.1086C43.8978 83.7906 54.1498 73.5386 64.3476 63.3407C67.6328 66.6259 70.954 69.9471 74.2873 73.2804C72.8158 74.1032 71.2603 74.974 69.7108 75.8449C59.2487 81.7005 48.7866 87.5622 38.3244 93.4119C36.853 94.2347 35.2915 94.4989 33.5798 94.1086Z" fill="white"/>
<path d="M67.5844 59.9355C68.1069 59.437 68.6174 58.9686 69.1038 58.4821C72.0707 55.5212 75.0496 52.5603 77.9924 49.5755C78.4069 49.161 78.6891 49.155 79.1696 49.4313C81.8782 50.9748 84.6169 52.4763 87.3315 54.0138C91.0791 56.1458 92.1481 60.7523 89.6017 64.0255C89.0011 64.7942 88.1783 65.4608 87.3375 65.9593C84.5928 67.5749 81.7821 69.0884 79.0074 70.6499C78.6771 70.8361 78.4669 70.8901 78.1486 70.5778C74.7073 67.1064 71.2479 63.6591 67.7945 60.2058C67.7465 60.1577 67.7105 60.1037 67.5844 59.9415V59.9355Z" fill="#20A7DB"/>
</svg>
