<svg width="120" height="120" viewBox="0 0 120 120" fill="none" xmlns="http://www.w3.org/2000/svg">
<circle cx="60" cy="60" r="60" fill="#1B1464"/>
<path d="M90.9499 25.7143C91.1355 25.7777 91.3212 25.8461 91.5223 25.9094C93.1929 26.4509 94.353 27.9144 94.3685 29.6266C94.384 35.944 94.3994 42.2563 94.3685 48.5737C94.353 50.7194 92.5742 52.4762 90.393 52.4852C82.674 52.5154 74.9395 52.5003 67.2205 52.4852C67.0194 52.4852 66.7255 52.3105 66.6017 52.1297C62.951 46.7248 55.4177 46.715 51.7825 52.1055C51.6587 52.2999 51.3338 52.4807 51.1017 52.4807C43.4291 52.5003 35.7565 52.5048 28.0838 52.4913C26.2585 52.4913 24.7425 51.3492 24.1701 49.6517C24.1237 49.4858 24.0619 49.3151 24 49.1492C24 42.4515 24 35.7586 24 29.0609C24.4641 27.29 25.6244 26.173 27.4343 25.7143C48.6113 25.7143 69.7728 25.7143 90.9499 25.7143ZM67.6999 39.0758C67.6999 40.7929 67.6845 42.5101 67.6999 44.2321C67.6999 45.5004 68.3342 46.115 69.6336 46.1248C70.8092 46.1346 71.9694 46.1296 73.1451 46.1102C75.1096 46.0712 76.5792 45.1833 77.3836 43.4466C78.2034 41.7052 77.9096 40.0466 76.6566 38.5782C76.4245 38.3002 76.3782 38.105 76.5174 37.7635C77.6157 35.0024 75.6821 32.1877 72.6501 32.0951C71.6447 32.0658 70.639 32.0805 69.6181 32.0951C68.3187 32.1097 67.6999 32.7293 67.6845 33.9976C67.6845 35.6952 67.6845 37.3879 67.6845 39.0855L67.6999 39.0758ZM64.9466 37.6074C64.9466 36.3586 64.9621 35.1099 64.9466 33.8609C64.9311 32.9586 64.405 32.295 63.6161 32.1341C62.4869 31.9 61.5278 32.6414 61.5278 33.8269C61.4969 36.1683 61.5278 38.5147 61.4969 40.8563C61.4969 41.2515 61.3576 41.71 61.1101 42.0174C60.5532 42.7296 59.3777 42.9637 58.5424 42.6369C57.6143 42.2709 57.2893 41.7538 57.2893 40.6466C57.2893 38.3684 57.3048 36.0952 57.2739 33.8171C57.2739 32.6366 56.3148 31.895 55.1856 32.1389C54.3812 32.3096 53.8553 32.9878 53.8553 33.939C53.8398 36.2367 53.8707 38.5343 53.8398 40.8319C53.8243 42.8271 54.7061 44.315 56.4232 45.3248C58.2949 46.4174 60.2285 46.4078 62.1311 45.432C64.0184 44.4662 64.9775 42.9295 64.9466 40.8222C64.9466 39.749 64.9466 38.6806 64.9466 37.6074ZM46.1362 46.1248C46.2909 46.115 46.6158 46.1052 46.9407 46.0662C49.4157 45.7638 51.2564 43.7588 51.0708 41.4612C50.9315 39.6026 49.7096 38.5147 48.0699 37.8025C47.1108 37.3879 46.1053 37.0513 45.1462 36.6464C44.9296 36.5586 44.6203 36.2464 44.6513 36.1537C44.7441 35.9196 44.9761 35.6464 45.2081 35.5781C46.1363 35.3 47.0179 35.4171 47.7913 36.0318C48.6731 36.7342 49.6321 36.7098 50.2973 35.983C50.9625 35.261 50.8543 34.2317 50.0345 33.4853C48.3019 31.9048 45.0379 31.6072 43.0424 32.8804C41.6966 33.7488 41.0159 34.9976 41.186 36.5782C41.3407 38.0514 42.1452 39.0904 43.5838 39.6514C44.4655 40.0026 45.3627 40.349 46.2444 40.705C46.5384 40.8222 46.8324 40.9393 47.1108 41.1002C47.8224 41.5295 47.8224 42.0904 47.1108 42.4808C46.7859 42.6564 46.3838 42.7442 45.9971 42.754C45.0535 42.7734 44.2335 42.4124 43.5374 41.7636C42.7484 41.032 41.712 41.032 41.0314 41.7148C40.3353 42.4124 40.3818 43.3978 41.1553 44.1589C42.4701 45.4614 44.0943 46.076 46.1208 46.1248H46.1362Z" fill="#20A7DB"/>
<path d="M50.53 70.7345C50.53 73.7886 50.53 76.8427 50.53 79.8968C50.53 80.2042 50.5455 80.5251 50.6384 80.8189C50.9323 81.7456 51.8448 82.3256 52.8039 82.2232C53.7629 82.1162 54.5365 81.3644 54.6293 80.4181C54.6602 80.1741 54.6448 79.9255 54.6448 79.6814C54.6448 72.0032 54.6448 64.3295 54.6448 56.6513C54.6448 54.1743 56.5011 52.2171 58.9297 52.1056C61.5285 51.9835 63.6787 53.9302 63.7096 56.4901C63.7405 59.7054 63.7251 62.9147 63.7251 66.13C63.7251 66.3741 63.7251 66.6182 63.7251 67.0808C64.5913 64.6082 66.2001 63.3004 68.737 63.5249C70.8717 63.7148 72.1711 65.0331 72.7589 67.1501C73.7489 64.3883 75.6052 62.9298 78.5288 63.6816C81.5608 64.4666 82.0868 66.8909 81.9476 69.5985C82.025 69.3785 82.1022 69.154 82.195 68.94C82.9684 67.028 85.0878 65.8618 87.1142 66.2174C89.2953 66.6031 90.9041 68.3102 90.9195 70.4272C90.9505 74.3793 91.0587 78.3298 90.8886 82.2774C90.7029 86.9889 88.5683 90.8386 84.7474 93.7556C84.3452 94.0584 83.742 94.2633 83.247 94.2633C74.1667 94.2919 65.1019 94.2964 56.037 94.2573C55.4801 94.2573 54.7994 93.9755 54.3972 93.6049C52.6956 92.0484 51.0869 90.3941 49.4162 88.7985C44.3269 83.9017 44.2805 76.6664 49.3388 71.7199C49.6791 71.3749 50.004 70.9982 50.3444 70.6321L50.53 70.7451V70.7345Z" fill="white"/>
<path d="M71.1658 42.7394V40.4272C71.9547 40.4272 72.7436 40.354 73.5016 40.4516C74.1204 40.5297 74.4144 41.0468 74.368 41.6419C74.337 42.2321 73.9967 42.676 73.3624 42.7248C72.6509 42.7834 71.9238 42.7394 71.1658 42.7394Z" fill="#20A7DB"/>
<path d="M71.1658 35.4516C71.7072 35.4516 72.2024 35.4272 72.6819 35.4613C73.146 35.4906 73.3779 35.7832 73.3779 36.2175C73.3779 36.6516 73.146 36.9443 72.6819 36.9735C72.1869 37.0077 71.6917 36.9833 71.1658 36.9833V35.4516Z" fill="#20A7DB"/>
</svg>
