<svg width="120" height="120" viewBox="0 0 120 120" fill="none" xmlns="http://www.w3.org/2000/svg">
<circle cx="60" cy="60" r="60" fill="#1B1464"/>
<path d="M39.6972 94.2857C40.2098 94.1537 40.7274 94.037 41.2349 93.8848C45.5485 92.6161 48.497 88.277 47.8424 83.9533C47.6546 82.7251 47.137 81.5123 46.5788 80.3907C45.1324 77.4574 41.0167 72.1745 38.4894 69.8452C37.307 71.2052 36.1093 72.5501 34.9421 73.9304C33.1963 75.9959 31.6739 78.2136 30.3595 80.5836C26.8122 86.988 31.6181 93.5194 37.1801 94.1791C37.2613 94.1893 37.3374 94.2502 37.4186 94.2857H39.6972Z" fill="#20A7DB"/>
<path d="M70.1464 35.7626H64.1428V31.723H74.1504V27.7189H64.1174V25.7144H60.0829V27.6631H50.0398V31.7078H60.0271V35.7169H54.0591C54.0439 36.0315 54.0236 36.265 54.0236 36.5035C54.0236 38.3355 53.9525 40.1676 54.0388 41.9945C54.1504 44.3036 52.5417 45.8362 50.2529 45.8159C42.1078 45.7499 35.1552 50.8248 32.6736 58.4929C31.887 60.9237 31.7145 63.4155 31.8312 65.9884H45.9444C45.9444 65.4556 45.9444 64.9278 45.9444 64.4C45.9545 61.619 47.5886 59.9798 50.3544 59.9798C59.6465 59.9798 68.9335 59.9798 78.2256 59.9798H78.9716V45.8666C78.1748 45.8666 77.3578 45.8666 76.5356 45.8666C75.7338 45.8666 74.9269 45.8818 74.1251 45.8666C71.7348 45.8108 70.1667 44.2173 70.1464 41.822C70.1362 40.0813 70.1464 38.3406 70.1464 36.5949C70.1464 36.3513 70.1464 36.1077 70.1464 35.7575V35.7626Z" fill="white"/>
<path d="M92.3189 41.8217C90.563 41.8877 88.797 41.5832 87.0766 42.0958C84.6812 42.8063 83.0167 44.958 82.9812 47.4701C82.9304 51.1087 82.9203 54.7474 82.9812 58.381C83.037 61.4919 85.5643 63.9329 88.6701 63.9989C89.8728 64.0243 91.0756 63.9989 92.324 63.9989V41.8167L92.3189 41.8217Z" fill="white"/>
</svg>
