<svg width="24" height="25" viewBox="0 0 24 25" fill="none" xmlns="http://www.w3.org/2000/svg">
<path fill-rule="evenodd" clip-rule="evenodd" d="M0 12.3794C0 5.75198 5.37258 0.379395 12 0.379395C18.6274 0.379395 24 5.75198 24 12.3794C24 19.0068 18.6274 24.3794 12 24.3794C5.37258 24.3794 0 19.0068 0 12.3794ZM12 6.37939C15.3 6.37939 18 9.07939 18 12.3794C18 15.3794 15.825 17.9294 12.825 18.3794V14.1044H14.25L14.55 12.3794H12.9V11.2544C12.9 10.8044 13.125 10.3544 13.875 10.3544H14.625V8.85439C14.625 8.85439 13.95 8.70439 13.275 8.70439C11.925 8.70439 11.025 9.52939 11.025 11.0294V12.3794H9.525V14.1044H11.025V18.3044C8.175 17.8544 6 15.3794 6 12.3794C6 9.07939 8.7 6.37939 12 6.37939Z" fill="white"/>
</svg>
