<svg width="24" height="25" viewBox="0 0 24 25" fill="none" xmlns="http://www.w3.org/2000/svg">
<path d="M12 14.4794C10.875 14.4794 9.9 13.5794 9.9 12.3794C9.9 11.2544 10.8 10.2794 12 10.2794C13.125 10.2794 14.1 11.1794 14.1 12.3794C14.1 13.5044 13.125 14.4794 12 14.4794Z" fill="white"/>
<path fill-rule="evenodd" clip-rule="evenodd" d="M14.55 7.27939H9.45C8.85 7.35439 8.55 7.42939 8.325 7.50439C8.025 7.57939 7.8 7.72939 7.575 7.95439C7.39696 8.13243 7.31284 8.31047 7.21116 8.52567C7.18437 8.58239 7.15628 8.64184 7.125 8.70439C7.1134 8.7392 7.1 8.7758 7.08564 8.81503C7.00718 9.02939 6.9 9.32221 6.9 9.82939V14.9294C6.975 15.5294 7.05 15.8294 7.125 16.0544C7.2 16.3544 7.35 16.5794 7.575 16.8044C7.75304 16.9824 7.93108 17.0666 8.14628 17.1682C8.20304 17.195 8.26239 17.2231 8.325 17.2544C8.35981 17.266 8.39641 17.2794 8.43564 17.2938C8.65 17.3722 8.94282 17.4794 9.45 17.4794H14.55C15.15 17.4044 15.45 17.3294 15.675 17.2544C15.975 17.1794 16.2 17.0294 16.425 16.8044C16.603 16.6264 16.6872 16.4483 16.7888 16.2331C16.8156 16.1764 16.8437 16.117 16.875 16.0544C16.8866 16.0196 16.9 15.983 16.9144 15.9438C16.9928 15.7294 17.1 15.4366 17.1 14.9294V9.82939C17.025 9.22939 16.95 8.92939 16.875 8.70439C16.8 8.40439 16.65 8.17939 16.425 7.95439C16.247 7.77635 16.0689 7.69223 15.8537 7.59056C15.797 7.56378 15.7375 7.53565 15.675 7.50439C15.6402 7.49279 15.6036 7.47939 15.5644 7.46503C15.35 7.38657 15.0572 7.27939 14.55 7.27939ZM12 9.15439C10.2 9.15439 8.775 10.5794 8.775 12.3794C8.775 14.1794 10.2 15.6044 12 15.6044C13.8 15.6044 15.225 14.1794 15.225 12.3794C15.225 10.5794 13.8 9.15439 12 9.15439ZM16.05 9.07939C16.05 9.49361 15.7142 9.82939 15.3 9.82939C14.8858 9.82939 14.55 9.49361 14.55 9.07939C14.55 8.66518 14.8858 8.32939 15.3 8.32939C15.7142 8.32939 16.05 8.66518 16.05 9.07939Z" fill="white"/>
<path fill-rule="evenodd" clip-rule="evenodd" d="M0 12.3794C0 5.75198 5.37258 0.379395 12 0.379395C18.6274 0.379395 24 5.75198 24 12.3794C24 19.0068 18.6274 24.3794 12 24.3794C5.37258 24.3794 0 19.0068 0 12.3794ZM9.45 6.15439H14.55C15.225 6.22939 15.675 6.30439 16.05 6.45439C16.5 6.67939 16.8 6.82939 17.175 7.20439C17.55 7.57939 17.775 7.95439 17.925 8.32939C18.075 8.70439 18.225 9.15439 18.225 9.82939V14.9294C18.15 15.6044 18.075 16.0544 17.925 16.4294C17.7 16.8794 17.55 17.1794 17.175 17.5544C16.8 17.9294 16.425 18.1544 16.05 18.3044C15.675 18.4544 15.225 18.6044 14.55 18.6044H9.45C8.775 18.5294 8.325 18.4544 7.95 18.3044C7.5 18.0794 7.2 17.9294 6.825 17.5544C6.45 17.1794 6.225 16.8044 6.075 16.4294C5.925 16.0544 5.775 15.6044 5.775 14.9294V9.82939C5.85 9.15439 5.925 8.70439 6.075 8.32939C6.3 7.87939 6.45 7.57939 6.825 7.20439C7.2 6.82939 7.575 6.60439 7.95 6.45439C8.325 6.30439 8.775 6.15439 9.45 6.15439Z" fill="white"/>
</svg>
