<svg width="24" height="25" viewBox="0 0 24 25" fill="none" xmlns="http://www.w3.org/2000/svg">
<path fill-rule="evenodd" clip-rule="evenodd" d="M0 12.3794C0 5.75198 5.37258 0.379395 12 0.379395C18.6274 0.379395 24 5.75198 24 12.3794C24 19.0068 18.6274 24.3794 12 24.3794C5.37258 24.3794 0 19.0068 0 12.3794ZM16.575 9.00439C17.1 8.92939 17.55 8.85439 18 8.62939C17.7 9.15439 17.25 9.60439 16.725 9.90439C16.875 13.4294 14.325 17.2544 9.75 17.2544C8.4 17.2544 7.125 16.8044 6 16.1294C7.275 16.2794 8.625 15.9044 9.525 15.2294C8.4 15.2294 7.5 14.4794 7.2 13.5044C7.575 13.5794 7.95 13.5044 8.325 13.4294C7.2 13.1294 6.375 12.0794 6.375 10.9544C6.75 11.1044 7.125 11.2544 7.5 11.2544C6.45 10.5044 6.075 9.0794 6.75 7.95439C8.025 9.4544 9.825 10.4294 11.85 10.5044C11.475 9.00439 12.675 7.50439 14.25 7.50439C14.925 7.50439 15.6 7.80439 16.05 8.25439C16.65 8.10439 17.175 7.95439 17.625 7.65439C17.475 8.25439 17.1 8.7044 16.575 9.00439Z" fill="white"/>
</svg>
