<svg width="24" height="25" viewBox="0 0 24 25" fill="none" xmlns="http://www.w3.org/2000/svg">
<path d="M13.95 12.3794L10.8 10.5794V14.1794L13.95 12.3794Z" fill="white"/>
<path fill-rule="evenodd" clip-rule="evenodd" d="M0 12.3794C0 5.75198 5.37258 0.379395 12 0.379395C18.6274 0.379395 24 5.75198 24 12.3794C24 19.0068 18.6274 24.3794 12 24.3794C5.37258 24.3794 0 19.0068 0 12.3794ZM16.65 8.4044C17.175 8.5544 17.55 8.9294 17.7 9.4544C18 10.4294 18 12.3794 18 12.3794C18 12.3794 18 14.3294 17.775 15.3044C17.625 15.8294 17.25 16.2044 16.725 16.3544C15.75 16.5794 12 16.5794 12 16.5794C12 16.5794 8.175 16.5794 7.275 16.3544C6.75 16.2044 6.375 15.8294 6.225 15.3044C6 14.3294 6 12.3794 6 12.3794C6 12.3794 6 10.4294 6.15 9.4544C6.3 8.9294 6.675 8.5544 7.2 8.4044C8.175 8.1794 11.925 8.1794 11.925 8.1794C11.925 8.1794 15.75 8.1794 16.65 8.4044Z" fill="white"/>
</svg>
