<svg width="132" height="120" viewBox="0 0 132 120" fill="none" xmlns="http://www.w3.org/2000/svg">
<path d="M131.159 96.0499C130.385 98.0587 129.89 100.226 128.791 102.035C126.029 106.573 121.8 108.835 116.495 109.08C115.993 109.106 115.487 109.08 114.825 109.08C114.825 110.768 114.825 112.376 114.825 113.973C114.817 117.485 112.608 119.958 109.429 120C106.248 120.041 103.94 117.503 103.913 113.947C103.906 112.376 103.913 110.813 103.913 109.163H27.7211C27.7211 110.862 27.7446 112.595 27.7211 114.309C27.6612 117.243 25.9233 119.377 23.2397 119.874C19.9828 120.479 16.9526 118.085 16.8354 114.755C16.7677 112.931 16.825 111.097 16.825 109.281C15.1392 109.054 13.4769 108.978 11.898 108.593C5.14194 106.943 0.5172 101.042 0.493751 94.0905C0.467696 87.8686 0.483329 81.6467 0.493751 75.4274C0.501567 66.5479 7.03093 60.0003 15.8688 59.9925C40.1181 59.9925 64.3569 59.9925 88.6036 59.9925H90.3259C90.3259 59.4948 90.3259 59.0493 90.3259 58.6037C90.3259 51.9962 90.2998 45.3973 90.3415 38.7895C90.3597 36.0741 92.306 33.8881 94.9428 33.4511C97.4675 33.0389 100.063 34.5608 100.868 37.0407C101.136 37.8732 101.219 38.7978 101.219 39.6806C101.245 45.9437 101.238 52.2073 101.238 58.4709V59.9821C102.152 59.9821 102.949 59.9821 103.739 59.9821C107.691 59.9821 111.652 59.9821 115.604 59.9821C123.546 59.9821 129.387 64.784 130.956 72.5692C130.99 72.7281 131.091 72.8714 131.167 73.0147V96.0238L131.159 96.0499ZM33.1432 84.5987C33.1666 80.0756 29.5085 76.3758 25.001 76.368C20.5456 76.3602 16.8693 79.9844 16.8171 84.4294C16.7676 88.9629 20.4023 92.6862 24.8994 92.7279C29.4147 92.7617 33.1249 89.114 33.151 84.5987H33.1432ZM106.668 76.368C102.16 76.368 98.4836 80.0417 98.4836 84.557C98.4836 89.0202 102.118 92.6862 106.566 92.72C111.081 92.7539 114.791 89.0958 114.807 84.5909C114.833 80.0678 111.175 76.368 106.66 76.3602L106.668 76.368ZM44.0628 84.5232C44.0523 89.0724 47.687 92.7279 52.2128 92.7279C56.702 92.7279 60.4122 88.9942 60.3783 84.5049C60.3445 80.0495 56.6942 76.394 52.2544 76.368C47.7209 76.3419 44.0706 79.974 44.0628 84.5232Z" fill="white"/>
<path d="M96.8393 3.05176e-05C107.355 0.243904 116.964 4.649 124.434 13.5772C126.164 15.6452 126.081 18.1757 124.249 19.7142C122.412 21.2528 119.945 20.8997 118.191 18.8398C108.663 7.62501 93.2281 4.90957 80.8651 12.2993C77.9964 14.0145 75.5603 16.2421 73.3456 18.7559C72.6161 19.5881 71.4905 20.2859 70.4249 20.5717C68.7808 21.0089 67.1602 20.0506 66.3447 18.6045C65.4979 17.0996 65.649 15.3847 66.7902 13.9472C69.8465 10.0968 73.5228 6.96947 77.8192 4.60707C83.4002 1.53858 89.4111 0.0419902 96.8289 0.00837941L96.8393 3.05176e-05Z" fill="#20A7DB"/>
<path d="M77.6191 28.1881C77.9109 27.4484 78.0959 26.6496 78.4997 25.9854C86.1885 13.2071 105.289 13.1987 113.03 25.9435C114.312 28.062 113.817 30.5422 111.863 31.761C109.925 32.9718 107.465 32.4588 106.207 30.3825C101.438 22.5303 89.8987 22.6564 85.2558 30.458C84.2396 32.1646 82.3767 32.7532 80.6154 32.1899C78.8515 31.6266 77.7519 30.105 77.6086 28.1798L77.6191 28.1881Z" fill="#20A7DB"/>
</svg>
