<svg width="123" height="120" viewBox="0 0 123 120" fill="none" xmlns="http://www.w3.org/2000/svg">
<path d="M0.806396 2.88203C1.74777 0.711609 3.38185 3.05176e-05 5.72649 3.05176e-05C33.204 0.0532766 60.6818 0.0357043 88.1772 0.0357043C91.5165 0.0357043 92.8487 1.36995 92.8487 4.71463C92.8487 21.8118 92.8487 38.9084 92.8487 56.0066V57.3403C92.3868 57.3765 92.0316 57.4101 91.6941 57.4101C61.5521 57.4101 31.4281 57.4101 1.28587 57.4101C1.12613 57.4101 0.966135 57.4101 0.806396 57.4101C0.806396 39.247 0.806396 21.0645 0.806396 2.89988V2.88203ZM64.11 40.847C63.8435 40.3145 63.666 39.9759 63.4881 39.6192C59.5272 31.2588 55.5664 22.8793 51.5876 14.5173C51.2857 13.8768 50.9838 13.0407 50.0603 13.4501C49.0654 13.8947 49.5273 14.6954 49.8471 15.3713C50.4333 16.6167 51.0371 17.8799 51.6233 19.1252C55.3888 27.0601 59.1367 35.0127 62.9022 42.9484C63.2395 43.6411 63.5592 44.4424 64.5362 43.9254C64.8736 43.7471 65.069 43.2663 65.2465 42.876C69.5982 33.7317 73.9324 24.5692 78.2662 15.407C78.3906 15.1578 78.6214 14.8911 78.586 14.6598C78.5149 14.2506 78.3906 13.6636 78.1062 13.5212C77.8222 13.3788 77.2181 13.5923 76.9162 13.8414C76.6143 14.0903 76.5078 14.5887 76.3124 14.98C72.2626 23.5195 68.2128 32.0772 64.0565 40.8315L64.11 40.847ZM30.078 15.2467C34.0922 15.2467 37.9287 15.2467 41.7653 15.2467C42.4758 15.2467 43.2218 15.2292 43.2575 14.3038C43.2929 13.3787 42.5823 13.3077 41.8364 13.3077C33.364 13.3077 24.8914 13.3077 16.4191 13.3077C15.7086 13.3077 14.9626 13.3433 14.9983 14.3038C15.0337 15.2467 15.7797 15.2467 16.4724 15.2467C19.9181 15.2467 23.3641 15.2467 26.8099 15.2467C27.2361 15.2467 27.6447 15.2467 28.142 15.2467C28.142 15.834 28.142 16.2788 28.142 16.7056C28.142 25.1919 28.142 33.6782 28.142 42.1652C28.142 42.5193 28.0355 42.9484 28.1953 43.2146C28.3907 43.5687 28.8169 44.0159 29.1367 44.0159C29.4386 44.0159 29.8472 43.5532 30.0248 43.1965C30.1669 42.9122 30.078 42.5038 30.078 42.1471C30.078 33.696 30.078 25.2454 30.078 16.7948C30.078 16.3321 30.078 15.8518 30.078 15.2467Z" fill="white"/>
<path d="M0.806399 59.315C1.32154 59.315 1.83669 59.3512 2.35183 59.3512C31.961 59.3512 61.5878 59.3512 91.197 59.3512C91.6943 59.3512 92.2094 59.3512 92.7422 59.3512C92.7422 60.4006 92.8487 61.3079 92.7243 62.1971C92.5114 63.6394 91.1792 64.8309 89.7227 65.0429C89.4562 65.0791 89.1721 65.0971 88.8878 65.0971C60.8597 65.0971 32.8135 65.0971 4.78512 65.0971C2.70697 65.0971 1.51695 63.9754 0.788818 62.1609C0.788818 61.2019 0.788818 60.2585 0.788818 59.297L0.806399 59.315ZM46.7567 63.5851C47.254 62.9983 47.7692 62.6416 47.7335 62.3754C47.6624 61.9825 47.1829 61.662 46.881 61.3079C46.5613 61.6284 46.064 61.9127 45.9572 62.2849C45.8862 62.5537 46.3481 62.9621 46.7389 63.5851H46.7567Z" fill="white"/>
<path d="M70.9138 120C61.4466 120 51.9973 120 42.5303 120C40.15 120 39.3862 119.253 39.3862 116.885C39.3862 110.785 39.3862 104.665 39.3862 98.562C39.3862 96.2487 40.15 95.4836 42.4414 95.4836C61.4466 95.4836 80.4343 95.4836 99.4395 95.4836C101.713 95.4836 102.477 96.2487 102.477 98.5801C102.477 104.683 102.477 110.801 102.477 116.903C102.477 119.217 101.695 120 99.4217 120C89.9191 120 80.4165 120 70.9138 120ZM90.1499 115.818C94.5548 115.784 98.1606 112.171 98.1606 107.777C98.1606 103.277 94.4838 99.6114 89.9902 99.6476C85.532 99.6838 81.9795 103.331 82.0149 107.831C82.0505 112.316 85.6563 115.854 90.1499 115.836V115.818ZM51.6421 115.818C56.1003 115.908 59.7593 112.385 59.8658 107.903C59.9547 103.455 56.4379 99.8079 51.9262 99.6657C47.5212 99.5236 43.8269 103.116 43.7204 107.616C43.6136 112.083 47.1483 115.748 51.6421 115.836V115.818ZM70.8249 115.818C75.2477 115.89 78.9245 112.349 78.9954 107.973C79.0664 103.401 75.5853 99.7717 71.0203 99.6476C66.6332 99.5391 62.8853 103.189 62.8321 107.635C62.7788 112.119 66.3135 115.748 70.8071 115.818H70.8249Z" fill="#20A7DB"/>
<path d="M70.0785 82.4073C69.7588 83.1 69.5279 83.7953 69.155 84.382C68.1603 85.9484 66.7217 86.8375 64.8389 86.9254C64.1638 86.9616 63.4889 86.9435 62.814 86.9435C61.3813 86.9435 60.5524 86.2327 60.3272 84.8085C59.2794 84.8085 58.2315 84.8085 57.1658 84.8085C56.4907 84.8085 55.9401 84.6146 55.9579 83.8315C55.9579 83.0664 56.5263 82.8699 57.2012 82.8699C58.2315 82.8699 59.2615 82.8699 60.3805 82.8699V79.9879C59.3505 79.9879 58.3023 79.9879 57.2545 79.9879C56.5439 79.9879 55.9401 79.8277 55.9579 78.9747C55.9755 78.1915 56.5617 78.0494 57.219 78.0675C58.2491 78.0675 59.2615 78.0675 60.3805 78.0675C60.4162 77.7469 60.4694 77.4962 60.4694 77.23C60.4694 76.2529 60.9489 75.8781 61.8902 75.9324C62.6365 75.966 63.4 75.9324 64.1462 75.9324C66.9703 75.9324 68.7466 77.124 69.7412 79.8096C70.0253 80.5747 70.505 80.4506 71.0377 80.4506C77.574 80.4506 84.1106 80.4506 90.647 80.4506C96.6328 80.4506 102.601 80.3782 108.586 80.4687C116.562 80.5928 122.672 87.0521 122.475 95.0571C122.318 101.746 117.042 107.653 110.416 108.49C109.652 108.578 109.261 108.792 108.959 109.539C108.214 111.442 106.544 112.455 104.466 112.44V102.974C106.686 102.85 108.125 103.933 109.368 106.673C113.56 106.246 116.827 104.29 118.942 100.607C123.667 92.4232 117.805 82.4615 108.196 82.3892C97.6985 82.3194 87.201 82.3892 76.7216 82.3892C74.5013 82.3892 72.2988 82.3892 70.0963 82.3892L70.0785 82.4073Z" fill="white"/>
<path d="M17.7351 67.0718C15.3018 70.7189 13.0639 74.1179 10.7547 77.4626C10.5417 77.7831 9.84899 77.765 9.36926 77.9072C9.24494 77.3902 8.87196 76.7673 9.04953 76.3951C10.4174 73.4226 11.8915 70.4889 13.3658 67.5707C13.4723 67.3381 13.8099 67.108 14.0585 67.108C15.1953 67.0537 16.3321 67.0899 17.7529 67.0899L17.7351 67.0718Z" fill="white"/>
<path d="M75.9563 67.072C77.3596 67.072 78.4609 67.0358 79.5621 67.1082C79.864 67.1263 80.2726 67.4442 80.4147 67.7311C81.8534 70.595 83.2567 73.459 84.6775 76.341C84.9794 76.9458 85.0684 77.5868 84.3932 77.8531C84.0202 77.9952 83.221 77.853 83.0078 77.5506C80.681 74.1879 78.4077 70.7553 75.9563 67.0901V67.072Z" fill="white"/>
<path d="M89.9702 113.861C86.5067 113.81 83.878 111.052 83.9312 107.547C84.0023 104.166 86.7907 101.514 90.2011 101.604C93.6114 101.674 96.2225 104.432 96.1868 107.849C96.1336 111.23 93.3627 113.916 89.9702 113.861ZM88.4959 107.759C88.4959 107.438 88.6026 107.066 88.4783 106.833C88.2651 106.479 87.9099 106.068 87.5724 106.016C87.3059 105.98 86.7375 106.407 86.6842 106.691C86.5599 107.368 86.5599 108.115 86.6842 108.793C86.7375 109.077 87.2883 109.467 87.6078 109.449C87.9099 109.449 88.2829 109.023 88.4605 108.684C88.6026 108.454 88.4783 108.079 88.4783 107.759H88.4959ZM93.4871 107.759C93.4871 107.759 93.4871 107.759 93.5049 107.759C93.5049 107.529 93.5936 107.226 93.4871 107.066C93.2206 106.658 92.8654 106.319 92.5457 105.962C92.226 106.319 91.7641 106.639 91.6222 107.066C91.4622 107.565 91.48 108.203 91.6397 108.684C91.7641 109.023 92.2438 109.413 92.5989 109.449C92.8654 109.467 93.2562 109.023 93.4517 108.684C93.5936 108.454 93.4692 108.061 93.4692 107.759H93.4871Z" fill="white"/>
<path d="M57.912 107.743C57.912 111.14 55.1944 113.879 51.8197 113.879C48.3915 113.879 45.7096 111.212 45.6739 107.795C45.6563 104.38 48.3026 101.641 51.6954 101.604C55.1589 101.568 57.8942 104.256 57.912 107.743ZM50.2389 107.725C50.2389 107.725 50.2389 107.725 50.2564 107.725C50.2564 107.529 50.3275 107.28 50.2564 107.138C49.9902 106.727 49.7237 106.104 49.3507 106.035C48.6224 105.874 48.3383 106.479 48.3561 107.154C48.3561 107.671 48.2672 108.221 48.4094 108.684C48.5159 109.023 48.9953 109.485 49.2618 109.449C49.6172 109.415 49.9902 108.986 50.221 108.65C50.3632 108.418 50.2564 108.027 50.2564 107.725H50.2389ZM53.2227 107.689C53.3295 108.188 53.2938 108.811 53.5781 109.113C53.8089 109.361 54.4484 109.219 54.9103 109.255C54.9103 108.239 54.9103 107.244 54.9103 106.231C54.4484 106.247 53.8622 106.104 53.5781 106.355C53.2938 106.585 53.3295 107.208 53.2051 107.689H53.2227Z" fill="white"/>
<path d="M70.877 101.604C74.3227 101.586 77.076 104.326 77.076 107.777C77.076 111.085 74.3584 113.843 71.0369 113.861C67.5909 113.897 64.7847 111.176 64.7668 107.759C64.7668 104.396 67.5023 101.622 70.877 101.604ZM74.4116 107.901C74.3938 107.474 74.4827 107.048 74.3227 106.782C74.1097 106.443 73.7011 106.053 73.3459 106.017C73.0794 105.998 72.5821 106.461 72.5289 106.764C72.4224 107.438 72.44 108.17 72.5821 108.862C72.6354 109.129 73.1327 109.467 73.4346 109.467C73.7367 109.467 74.1097 109.147 74.2873 108.844C74.447 108.578 74.3938 108.17 74.4294 107.901H74.4116ZM67.5023 107.777C67.5023 107.777 67.5023 107.777 67.4845 107.777C67.4845 107.973 67.4134 108.221 67.4845 108.363C67.7509 108.774 68.035 109.397 68.3904 109.467C69.1007 109.627 69.385 109.005 69.4029 108.345C69.4029 107.831 69.5094 107.28 69.3318 106.833C69.2075 106.479 68.7277 106.035 68.408 106.035C68.1061 106.035 67.7153 106.515 67.5023 106.851C67.3601 107.084 67.4845 107.456 67.4845 107.777H67.5023Z" fill="white"/>
</svg>
