<svg width="120" height="120" viewBox="0 0 120 120" fill="none" xmlns="http://www.w3.org/2000/svg">
<path d="M30.4608 120C20.5396 119.932 11.8524 118.22 3.49454 114.73C1.86323 114.058 0.86449 112.884 0.597834 111.104C-0.332849 105.062 0.731218 99.3551 3.72718 94.0533C4.72584 92.273 6.35717 91.7031 8.68911 92.2076C12.2184 92.9109 15.5124 94.2546 18.6417 95.9983C25.2349 99.6923 30.6935 104.727 35.5874 110.4C35.922 110.769 36.2201 111.172 36.5547 111.54C38.118 113.321 39.4513 113.253 40.748 111.305C42.1466 109.224 43.5112 107.143 44.9099 105.062C48.7058 99.3237 52.5331 93.6167 56.329 87.8418C56.8623 87.0026 57.2938 86.9033 58.0258 87.5412C58.7918 88.179 60.1563 88.6156 60.2897 89.3189C60.423 90.0247 59.393 90.9972 58.8597 91.8364C53.7331 99.5564 48.5046 107.211 43.5453 115.033C41.6133 118.086 39.1847 119.697 35.6214 119.765C33.6241 119.765 31.5928 119.932 30.4608 120ZM21.7709 114.562C23.0048 114.628 23.9042 113.958 24.1369 112.949C24.3695 111.877 23.8701 110.837 22.7381 110.466C17.7762 108.821 12.817 107.245 7.85507 105.632C7.48907 105.499 7.12312 105.499 6.75712 105.632C5.79245 105.969 5.19372 106.607 5.19372 107.648C5.15974 108.821 5.82634 109.459 6.89036 109.796C11.617 111.339 16.3463 112.884 21.0729 114.395C21.3736 114.46 21.6402 114.528 21.7709 114.562ZM10.0197 97.0074C9.855 97.0388 9.72164 97.0388 9.61968 97.0728C8.62102 97.3081 8.02239 97.946 7.95703 98.9865C7.88906 100.095 8.42237 100.866 9.45501 101.169C14.1476 102.646 18.5423 104.761 22.6049 107.58C22.6389 107.614 22.6702 107.614 22.7042 107.648C23.8022 108.285 25.0335 108.016 25.6661 107.01C26.2674 106.069 26.0661 104.827 25.1014 104.124C20.6728 100.968 15.8469 98.6178 10.6184 97.0728C10.3857 97.0388 10.187 97.0388 10.0197 97.0074Z" fill="white"/>
<path d="M64.8187 90.5947C65.318 90.898 65.5194 91.3999 65.7834 91.8025C70.0787 98.2493 74.3739 104.727 78.7005 111.206C80.0991 113.321 81.4324 113.42 83.0298 111.472C87.8243 105.768 93.1496 100.631 99.5755 96.7383C103.037 94.6573 106.734 93.0443 110.728 92.2391C113.457 91.6692 114.989 92.375 116.255 94.8246C118.885 99.8257 119.784 105.13 119.052 110.735C118.785 112.683 117.787 114.024 115.954 114.764C104.969 119.26 93.5836 120.839 81.7984 119.462C79.8325 119.226 78.2692 118.288 77.1713 116.609C72.3767 109.425 67.616 102.21 62.8214 95.0259C62.4554 94.49 62.4215 94.1188 62.8214 93.5828C63.5195 92.6417 64.1521 91.6352 64.8187 90.5947ZM114.391 107.815C114.357 106.137 113.026 105.195 111.494 105.7C106.665 107.245 101.874 108.787 97.079 110.366C95.7457 110.803 95.1469 111.875 95.4816 113.051C95.7796 114.191 96.9796 114.863 98.2763 114.46C103.17 112.918 108.064 111.305 112.924 109.695C113.857 109.391 114.357 108.654 114.391 107.815ZM111.593 99.3212C111.627 97.7448 110.328 96.7043 108.864 97.1409C103.67 98.6519 98.9088 101 94.4829 104.155C93.5156 104.861 93.3169 106.103 93.9156 107.044C94.5483 108.05 95.8137 108.385 96.8463 107.682C100.974 104.861 105.369 102.712 110.095 101.201C111.06 100.9 111.528 100.16 111.593 99.3212Z" fill="white"/>
<path d="M112.26 3.05176e-05C112.592 0.20133 112.825 0.335694 113.057 0.503531C114.822 1.67839 116.555 2.92017 118.351 4.02784C119.216 4.56507 119.185 4.9342 118.652 5.73993C111.261 16.7832 103.902 27.8936 96.5453 38.9705C95.6146 40.3802 94.6134 41.7913 93.7167 43.2658C93.2828 43.9377 92.982 43.9377 92.352 43.5011C90.6187 42.2593 88.8882 41.0515 87.0582 39.9438C86.0909 39.3734 86.2242 38.9368 86.7576 38.1314C92.5168 29.5048 98.276 20.8447 104.004 12.1846C106.532 8.39159 109.031 4.59854 111.559 0.839211C111.826 0.570725 112.059 0.30198 112.26 3.05176e-05Z" fill="#20A7DB"/>
<path d="M7.2567 0.0671387C7.69067 0.201251 7.79009 0.570663 7.98878 0.872612C11.918 6.81408 15.8787 12.7553 19.8079 18.6965C24.1345 25.2084 28.4298 31.72 32.7904 38.1985C33.3917 39.1048 33.2583 39.4405 32.393 39.9775C30.6937 41.018 29.0285 42.1599 27.4312 43.3337C26.5998 43.9376 26.1997 43.8723 25.6324 42.9991C17.8759 31.2168 10.054 19.5019 2.22951 7.72017C1.59686 6.78034 0.430926 5.70614 0.532883 4.80003C0.632225 3.8602 2.26339 3.42387 3.19407 2.75252C4.32605 1.9468 5.45807 1.20828 6.59005 0.436287C6.82272 0.335638 7.02403 0.201251 7.2567 0.0671387Z" fill="#20A7DB"/>
<path d="M62.92 85.6616C62.3213 85.259 61.7881 84.9217 61.2888 84.5531C59.3908 83.2773 59.3908 83.2773 60.6561 81.3977C68.6794 69.3145 76.7365 57.2313 84.7257 45.1141C85.3584 44.139 85.7924 44.0736 86.6917 44.7429C89.055 46.4212 89.0863 46.3899 87.455 48.8055C79.5338 60.7553 71.576 72.7052 63.6521 84.6551C63.4194 84.9897 63.1867 85.3269 62.92 85.6616Z" fill="white"/>
<path d="M54.6985 82.7075C54.3979 82.3049 54.1651 82.0043 53.9664 81.701C46.3746 70.2897 38.8167 58.9097 31.2275 47.5298C30.6602 46.6906 30.6288 46.288 31.5281 45.7181C34.0901 44.0737 34.0561 44.0397 35.7214 46.5233C42.6466 56.9621 49.5718 67.3669 56.5284 77.7744C57.0617 78.5796 57.195 79.1835 56.5624 79.9547C55.8957 80.7599 55.3625 81.667 54.6985 82.7075Z" fill="white"/>
</svg>
