<svg width="178" height="120" viewBox="0 0 178 120" fill="none" xmlns="http://www.w3.org/2000/svg">
<path d="M0.202817 108.874C0.202817 76.279 0.202817 43.7199 0.202817 11.1263C0.310259 10.8056 0.449605 10.4844 0.521233 10.1637C2.23235 3.78041 7.01144 3.05176e-05 13.645 3.05176e-05C63.8564 3.05176e-05 114.032 3.05176e-05 164.243 3.05176e-05C172.123 3.05176e-05 177.614 5.59898 177.65 13.4443C177.65 18.009 177.65 22.5737 177.65 27.1384C177.65 53.529 177.65 79.9519 177.65 106.343C177.65 111.122 175.831 114.97 171.912 117.752C169.341 119.57 166.452 120 163.352 120C113.745 120 64.1072 120 14.5007 120C13.9316 120 13.3585 120 12.7536 120C7.26215 119.821 2.51883 116.255 0.80771 111.015C0.592825 110.298 0.377898 109.586 0.166992 108.874H0.202817ZM32.0814 36.0199C28.3727 36.0199 24.6997 36.0199 20.9909 36.0199C18.1377 36.0199 16.749 37.4087 16.749 40.2977C16.749 45.5027 16.749 50.6758 16.749 55.8808C16.749 58.734 18.1377 60.1586 20.9909 60.1944C28.301 60.2302 35.6468 60.2302 42.9609 60.1944C45.7783 60.1944 47.2387 58.6982 47.2387 55.8808C47.2745 50.6758 47.2745 45.5027 47.2387 40.2977C47.2387 37.4803 45.7424 36.0517 42.9609 36.0199C39.3198 36.0199 35.6827 36.0199 32.0456 36.0199H32.0814ZM51.9821 102.742C61.9662 102.742 71.9505 102.742 81.9386 102.742C85.3609 102.742 87.2152 101.385 87.1794 98.8896C87.1436 96.4264 85.3251 95.1092 82.0063 95.1092C61.9663 95.1092 41.9263 95.1092 21.8823 95.1092C21.2058 95.1092 20.4935 95.1092 19.8131 95.2525C17.8911 95.6066 16.7131 97.1427 16.7847 99.1045C16.8564 101.385 18.4601 102.742 21.1342 102.742C31.4049 102.742 41.6755 102.742 51.9821 102.742ZM136.464 29.9199C139.993 29.9199 143.523 29.9199 147.017 29.9199C150.551 29.9199 154.08 29.9554 157.574 29.8841C159.536 29.8487 160.925 28.3509 161.068 26.4607C161.211 24.4993 160.141 22.9302 158.215 22.4666C157.61 22.3242 156.969 22.2884 156.325 22.2884C143.169 22.2884 130.009 22.2884 116.849 22.2884C116.101 22.2884 115.349 22.3596 114.637 22.5737C112.854 23.1085 111.891 24.7134 112.07 26.6036C112.249 28.3509 113.531 29.7059 115.317 29.9199C115.958 29.9912 116.599 29.9912 117.204 29.9912C123.626 29.9912 130.009 29.9912 136.428 29.9912L136.464 29.9199ZM97.8043 85.7299C100.622 85.7299 103.475 85.7657 106.292 85.7299C108.791 85.6941 110.395 84.1978 110.431 82.0211C110.467 79.7728 108.827 78.1333 106.292 78.0975C100.693 78.0259 95.0943 78.0617 89.4954 78.0975C86.9645 78.0975 85.2177 79.737 85.2535 81.9495C85.2535 84.162 86.9645 85.6941 89.5312 85.7299C92.3128 85.7657 95.0586 85.7299 97.8401 85.7299H97.8043ZM63.6058 85.7299C66.3157 85.7299 69.0257 85.7299 71.7396 85.7299C74.5212 85.7299 76.1606 84.3013 76.1606 81.9495C76.1606 79.6296 74.5212 78.0975 71.8073 78.0617C66.3158 78.0259 60.8242 78.0617 55.3685 78.0617C52.6944 78.0617 50.9833 79.6654 51.0192 81.9495C51.0192 84.2337 52.7303 85.6941 55.476 85.6941C58.1859 85.6941 60.8959 85.6941 63.6058 85.6941V85.7299ZM132.11 85.7299C134.824 85.7299 137.534 85.7299 140.244 85.7299C142.954 85.7299 144.701 84.2337 144.701 81.9495C144.701 79.7012 142.954 78.0975 140.28 78.0975C134.788 78.0975 129.293 78.0617 123.801 78.0975C121.127 78.0975 119.416 79.737 119.452 81.9853C119.452 84.1978 121.163 85.6941 123.765 85.7299C126.547 85.7657 129.329 85.7299 132.074 85.7299H132.11ZM29.4073 85.7299C32.1173 85.7299 34.8272 85.7299 37.5371 85.7299C40.3187 85.7299 41.9263 84.2655 41.9622 81.9495C41.9622 79.6296 40.2828 78.0975 37.5728 78.0975C32.0813 78.0975 26.5899 78.0617 21.1342 78.0975C18.4243 78.0975 16.7847 79.6295 16.8205 81.9853C16.8205 84.2655 18.4243 85.6941 21.0984 85.7299C23.88 85.7657 26.6258 85.7299 29.4073 85.7299Z" fill="white"/>
<path d="M43.4226 35.6617H19.9565C16.1562 35.6617 13.0762 38.7418 13.0762 42.542V55.9883C13.0762 59.7885 16.1562 62.8725 19.9565 62.8725H43.4226C47.2229 62.8725 50.3069 59.7885 50.3069 55.9883V42.542C50.3069 38.7418 47.2229 35.6617 43.4226 35.6617Z" fill="#20A7DB"/>
</svg>
