<svg width="96" height="128" viewBox="0 0 96 128" fill="none" xmlns="http://www.w3.org/2000/svg">
<g filter="url(#filter0_d_170_5547)">
<path d="M66.4836 0C67.9269 0.315343 69.3824 0.557913 70.8014 0.946028C80.6862 3.68709 87.9755 12.5773 88.7275 22.7775C88.7639 23.3596 88.7275 23.9418 88.7275 24.6089H81.7778C81.5959 19.8302 79.9464 15.6459 76.5382 12.2377C73.1544 8.85386 69.0064 7.20436 64.1428 7.03456V0.0121404C64.9191 0.0121404 65.7074 0.0121404 66.4836 0.0121404V0Z" fill="#20A7DB"/>
<path d="M72.6817 83.1167C65.3682 86.6582 54.0886 88.0773 45.732 86.4278C47.1632 76.1549 44.2887 69.3993 36.8296 65.5424C30.3408 62.1828 21.778 62.9104 15.5803 69.4235C10.3165 63.1773 6.81139 56.0821 5.12552 48.1136C3.00301 38.0105 3.90053 28.1742 7.95148 18.2894C29.601 39.9753 51.1171 61.5278 72.6695 83.1167H72.6817Z" fill="white"/>
<path d="M52.3543 31.5955C54.5374 29.6185 56.6235 27.7386 58.7824 25.7859C60.3713 27.5324 61.8995 29.2183 63.5247 31.0012C61.4871 32.8569 59.5101 34.664 57.521 36.4833C68.7036 47.6658 79.8498 58.812 91.0323 69.9946C87.4423 73.8514 83.743 77.1504 79.5587 79.6853C56.854 56.9806 34.2099 34.3366 11.481 11.6076C13.9552 7.4475 17.3148 3.73616 21.0262 0.27951C31.4567 10.7222 41.8388 21.1043 52.3422 31.6076L52.3543 31.5955Z" fill="white"/>
<path d="M42.1534 113.026H53.3724V120H4.13037V113.062H15.3372C16.5258 107.338 17.7144 101.698 18.903 95.9491C25.4282 99.8423 31.9412 99.8666 38.5755 95.9491C39.7641 101.637 40.9406 107.265 42.1413 113.002L42.1534 113.026Z" fill="white"/>
<path d="M39.3165 81.1887C39.3408 87.059 34.6592 91.777 28.7889 91.8134C22.9672 91.8498 18.1764 87.0953 18.1643 81.2615C18.1643 75.4155 22.8823 70.649 28.7162 70.6247C34.55 70.6005 39.3044 75.3306 39.3165 81.1887Z" fill="white"/>
<path d="M64.1553 21.1394V14.2626C69.3463 13.8623 74.8527 18.8714 74.5495 24.6325H67.6968C67.3572 22.6919 66.2656 21.4305 64.1553 21.1394Z" fill="#20A7DB"/>
</g>
<defs>
<filter id="filter0_d_170_5547" x="0.0124512" y="0" width="95.0198" height="128" filterUnits="userSpaceOnUse" color-interpolation-filters="sRGB">
<feFlood flood-opacity="0" result="BackgroundImageFix"/>
<feColorMatrix in="SourceAlpha" type="matrix" values="0 0 0 0 0 0 0 0 0 0 0 0 0 0 0 0 0 0 127 0" result="hardAlpha"/>
<feOffset dy="4"/>
<feGaussianBlur stdDeviation="2"/>
<feComposite in2="hardAlpha" operator="out"/>
<feColorMatrix type="matrix" values="0 0 0 0 0 0 0 0 0 0 0 0 0 0 0 0 0 0 0.25 0"/>
<feBlend mode="normal" in2="BackgroundImageFix" result="effect1_dropShadow_170_5547"/>
<feBlend mode="normal" in="SourceGraphic" in2="effect1_dropShadow_170_5547" result="shape"/>
</filter>
</defs>
</svg>
