<svg width="148" height="120" viewBox="0 0 148 120" fill="none" xmlns="http://www.w3.org/2000/svg">
<path d="M0.297119 27.0533C1.01543 25.1917 2.46848 24.2782 4.34652 23.6306C26.7568 15.9298 49.1453 8.18231 71.5337 0.412055C73.1046 -0.131533 74.5796 -0.143059 76.1396 0.412055C98.6212 8.19384 121.103 15.9644 143.598 23.7349C146.798 24.8448 148.133 27.2151 146.998 29.7366C146.315 31.2511 144.969 31.8756 143.48 32.3849C133.35 35.8989 123.217 39.4263 113.086 42.9537C100.795 47.2317 88.4908 51.4855 76.2109 55.7983C74.5933 56.3666 73.1045 56.3666 71.487 55.7983C48.9451 47.9125 26.3813 40.0616 3.81472 32.2455C2.09022 31.6451 0.979791 30.6024 0.297119 29.0182V27.0533Z" fill="white"/>
<path d="M30.5704 50.5152C36.1798 52.4692 41.4932 54.3079 46.7956 56.1574C54.1761 58.7253 61.5676 61.2797 68.9372 63.8931C72.3835 65.1181 75.7255 64.9573 79.1608 63.7537C91.2049 59.5107 103.285 55.348 115.353 51.1504C115.836 50.9762 116.332 50.8154 117.007 50.5956C117.042 51.1611 117.1 51.6007 117.1 52.0403C117.1 57.4306 117.053 62.8183 117.125 68.2059C117.16 71.0043 116.061 73.1888 113.947 74.9713C110.641 77.7348 106.687 79.2733 102.613 80.5331C91.7725 83.8863 80.6386 84.9505 69.3129 84.4867C59.4073 84.082 49.7017 82.6265 40.5144 78.8204C38.1292 77.8259 35.8728 76.416 33.759 74.9123C31.5054 73.3175 30.5239 70.9802 30.5595 68.1845C30.6308 62.8397 30.5841 57.4976 30.5841 52.1556C30.5841 51.7053 30.5841 51.2442 30.5841 50.5259L30.5704 50.5152Z" fill="white"/>
<path d="M128.412 46.583C131.258 45.5886 134.032 44.629 137.032 43.589V45.1946C137.032 56.4925 137.032 67.7905 137.021 79.0884C137.021 79.9542 137.256 80.4983 137.988 81.0532C142.57 84.5672 142.463 90.9868 137.895 94.5357C137.435 94.8948 137.067 95.6561 137.067 96.2458C137.01 102.665 137.045 109.093 137.021 115.51C137.021 118.528 134.553 120.517 131.729 119.882C129.736 119.431 128.423 117.753 128.423 115.523C128.412 109.198 128.401 102.861 128.437 96.5353C128.437 95.565 128.201 94.9404 127.373 94.3159C122.981 90.9868 122.956 84.5458 127.337 81.1577C128.212 80.4876 128.437 79.8148 128.437 78.8204C128.412 68.6455 128.423 58.4707 128.423 48.3066C128.423 47.7517 128.423 47.1835 128.423 46.5723L128.412 46.583Z" fill="#20A7DB"/>
</svg>
