<svg width="101" height="120" viewBox="0 0 101 120" fill="none" xmlns="http://www.w3.org/2000/svg">
<path d="M45.0161 119.99C42.7371 119.079 42.1649 117.372 42.3492 115.025C43.2317 103.814 43.9978 92.5942 44.8124 81.3739C45.0839 77.6403 45.3749 73.9164 45.6658 70.047C45.113 70.047 44.6573 70.047 44.2015 70.047C36.3075 70.047 28.4233 70.047 20.5293 70.047C18.3279 70.047 16.7375 69.0385 16.563 67.2056C16.466 66.2067 16.8054 65.0333 17.3 64.1217C21.3439 56.7224 25.4655 49.3715 29.5676 42.0109C36.8991 28.8511 44.2305 15.701 51.5426 2.53146C52.3281 1.1156 53.3076 0.0197388 55.0338 0.000343377C57.1576 -0.0287498 58.6899 1.79444 58.5153 4.1122C57.5552 17.1944 56.5758 30.2863 55.6157 43.3686C55.4605 45.5021 55.3248 47.6356 55.1696 49.9242C55.6933 49.9242 56.1491 49.9242 56.6048 49.9242C64.4988 49.9242 72.383 49.9242 80.277 49.9242C81.5377 49.9242 82.682 50.1861 83.5354 51.1946C84.6022 52.4553 84.6604 53.8615 83.6712 55.6556C80.5291 61.3191 77.3677 66.9728 74.2256 72.6363C65.9535 87.5029 57.6716 102.36 49.4092 117.236C48.7012 118.507 47.8478 119.544 46.4222 120H45.0161V119.99Z" fill="#20A7DB"/>
<path d="M38.7321 11.0649C37.1223 13.9548 35.5707 16.7865 33.9609 19.5795C33.7766 19.9092 33.3111 20.1129 32.9329 20.2874C22.4884 25.0393 14.9436 32.652 10.4342 43.2032C7.4085 50.2825 6.39994 57.6819 7.4085 65.3237C8.96014 77.1937 14.4975 86.8235 23.8558 94.2617C27.2694 96.977 31.0515 99.0814 35.1537 100.546C36.0944 100.885 36.395 101.312 36.2689 102.311C36.0362 104.202 35.9489 106.112 35.8034 108.023C20.2289 104.173 1.008 87.512 0.0673188 61.8034C-0.883058 35.765 17.7463 15.6422 38.7224 11.0746L38.7321 11.0649Z" fill="white"/>
<path d="M62.0549 108.934C63.6744 106.035 65.1969 103.261 66.768 100.526C66.9813 100.168 67.4371 99.8864 67.8347 99.7021C77.29 95.4351 84.4275 88.7049 89.1212 79.4533C93.0973 71.6175 94.5228 63.2968 93.3785 54.5786C91.8172 42.6601 86.2119 33.0206 76.7954 25.6018C73.4982 23.0028 69.8421 21.0051 65.9145 19.5019C65.4491 19.3177 64.9836 19.1237 64.4696 18.9201C64.6442 16.5538 64.8187 14.2361 64.9933 11.8989C82.3813 16.5732 100.506 34.2328 100.758 59.5438C101.011 84.3894 83.419 104.076 62.0452 108.934H62.0549Z" fill="white"/>
</svg>
