<svg width="158" height="120" viewBox="0 0 158 120" fill="none" xmlns="http://www.w3.org/2000/svg">
<path d="M157.309 118.079C156.568 119.516 155.417 120.085 153.792 119.99C152.373 119.895 150.923 119.99 149.503 119.943C147.958 119.879 146.933 118.884 146.87 117.494C146.807 116.12 147.753 114.92 149.267 114.809C151.143 114.683 153.067 114.604 154.928 114.873C155.779 114.999 156.52 115.962 157.309 116.547V118.079Z" fill="white"/>
<path d="M10.5665 114.635V15.1627H68.2322V114.635H73.4831C73.4831 114.035 73.4831 113.451 73.4831 112.851C73.4831 99.6307 73.4831 86.395 73.4831 73.1752C73.4831 70.0795 75.328 67.8683 78.056 67.584C81.4147 67.2365 83.9219 69.5425 83.9219 73.0962C83.9376 81.9095 83.9219 90.7227 83.9219 99.5517C83.9219 104.527 83.9219 109.486 83.9219 114.714C84.5684 114.714 85.1518 114.714 85.7353 114.714C103.033 114.714 120.331 114.714 137.63 114.714C138.339 114.714 139.065 114.746 139.743 114.935C141.004 115.283 141.588 116.262 141.509 117.494C141.43 118.789 140.673 119.689 139.317 119.879C138.765 119.958 138.197 119.942 137.63 119.942C93.1149 119.942 48.5845 119.942 4.06989 119.942C3.70722 119.942 3.3603 119.942 2.99762 119.942C1.26308 119.879 0.143506 118.884 0.111969 117.399C0.0804318 115.946 1.21577 114.777 2.90301 114.73C5.15791 114.651 7.41282 114.714 9.65195 114.698C9.90425 114.698 10.1408 114.667 10.5508 114.635H10.5665ZM15.8017 45.1877C15.8017 51.4422 15.8017 57.6968 15.8017 63.9355C15.8017 68.0578 17.8358 70.0953 21.9041 70.0953C33.5729 70.0953 45.2258 70.0953 56.8946 70.0953C60.9786 70.0953 63.0128 68.042 63.0128 63.9355C63.0128 51.4264 63.0128 38.9331 63.0128 26.424C63.0128 22.3175 60.9629 20.2485 56.9104 20.2485C45.2416 20.2485 33.5886 20.2485 21.9199 20.2485C17.8516 20.2485 15.8175 22.3175 15.8017 26.4082C15.8017 32.6628 15.8017 38.9173 15.8017 45.1561V45.1877ZM39.423 109.471C44.532 109.471 49.6568 109.486 54.7658 109.471C58.1876 109.455 60.3163 107.354 60.3321 103.911C60.3636 96.2823 60.3636 88.6378 60.3321 81.0092C60.3321 77.5028 58.1876 75.3706 54.6554 75.3548C44.4847 75.3232 34.2982 75.3232 24.1275 75.3548C20.6111 75.3548 18.4823 77.5028 18.4666 81.025C18.435 88.6062 18.435 96.1875 18.4666 103.769C18.4666 107.401 20.5796 109.455 24.2221 109.471C29.2838 109.486 34.3455 109.471 39.4072 109.471H39.423ZM81.2885 75.3548C81.3201 73.9333 80.232 72.8435 78.7813 72.8119C77.3306 72.7803 76.1795 73.8386 76.1322 75.2285C76.0849 76.7447 77.2991 78.0083 78.7971 77.9925C80.1216 77.9925 81.2412 76.7921 81.2728 75.3706L81.2885 75.3548Z" fill="white"/>
<path d="M73.4673 1.99017C73.4673 3.69596 73.5146 5.29118 73.4673 6.87062C73.4042 8.71855 72.4265 9.65041 70.5658 9.77677C70.2031 9.80836 69.8562 9.77677 69.4935 9.77677C49.4359 9.77677 29.3783 9.77677 9.33649 9.77677C6.1197 9.77677 5.34705 9.00285 5.34705 5.7966C5.34705 4.56465 5.34705 3.34848 5.34705 1.99017H73.483H73.4673Z" fill="white"/>
<path d="M125.74 18.8744C125.803 19.522 125.882 19.9168 125.882 20.2959C125.882 24.3393 125.898 28.3826 125.882 32.4259C125.882 32.8998 125.819 33.5315 125.519 33.8474C122.271 37.1642 118.975 40.4337 115.396 44.0032C115.396 42.5027 115.396 41.3497 115.396 40.1967C115.396 36.9273 115.396 33.6421 115.396 30.3727C115.396 29.8831 115.443 29.2513 115.727 28.9512C118.975 25.6344 122.271 22.365 125.74 18.8902V18.8744Z" fill="#20A7DB"/>
<path d="M141.619 3.1908C141.619 7.37629 141.525 11.3565 141.667 15.3208C141.73 17.1214 141.162 18.3691 139.885 19.5853C137.031 22.3019 134.318 25.1607 131.291 28.209C131.228 27.4824 131.149 27.056 131.149 26.6453C131.149 22.6494 131.117 18.6534 131.165 14.6575C131.165 14.0573 131.354 13.2992 131.748 12.8885C134.776 9.76123 137.866 6.69713 140.941 3.63304C141.067 3.50668 141.241 3.42771 141.604 3.1908H141.619Z" fill="#20A7DB"/>
<path d="M99.6438 59.7972C99.6438 54.7272 99.6438 50.131 99.6596 45.5507C99.6596 45.2348 99.833 44.8399 100.054 44.603C103.286 41.3336 106.535 38.0958 109.941 34.6842C110.02 35.158 110.114 35.4265 110.114 35.695C110.114 39.8963 110.13 44.0976 110.114 48.2831C110.114 48.7569 110.004 49.3729 109.704 49.673C106.487 52.9582 103.223 56.1961 99.6438 59.7814V59.7972Z" fill="#20A7DB"/>
<path d="M82.1396 62.8617C86.2552 58.7394 90.2605 54.7434 94.4076 50.6053C94.4076 51.474 94.4076 52.3111 94.4076 53.1482C94.4076 56.6861 94.4549 60.2241 94.3603 63.7462C94.3445 64.5043 93.9345 65.3888 93.4299 65.9732C92.1053 67.521 90.6389 68.9425 89.0305 70.6009C87.8952 66.7155 85.6402 64.1884 82.1554 62.8301L82.1396 62.8617Z" fill="#20A7DB"/>
<path d="M146.933 12.5249V0C148.92 0 150.339 0.900276 151.301 2.5113C152.389 4.32764 152.42 6.28614 151.159 7.97613C149.992 9.52397 148.51 10.8507 146.933 12.5249Z" fill="#20A7DB"/>
<path d="M57.6507 64.8048H49.8768C49.8768 63.2253 49.8768 61.7091 49.8768 60.1928C49.8453 55.2966 46.9911 52.1219 42.1817 51.7902C40.053 51.6481 37.8769 51.6955 35.7482 51.9166C32.0425 52.2799 29.1884 55.3756 28.9992 59.1188C28.9046 60.9509 28.9834 62.7989 28.9834 64.7574H21.1622V25.6033H57.6507V64.8206V64.8048Z" fill="white"/>
<path d="M44.627 64.8037H34.2671C34.2671 62.8768 34.1409 60.9498 34.3144 59.0545C34.409 57.8857 35.3393 57.1434 36.5378 57.096C38.4142 57.0171 40.3064 56.9697 42.1829 57.096C43.744 57.1908 44.5482 58.1542 44.5955 59.7337C44.6586 61.3605 44.5955 63.0031 44.5955 64.8037H44.627Z" fill="white"/>
<path d="M23.8279 80.677H55.0181V104.132H23.8279V80.677ZM39.3284 91.1012C41.8356 91.1012 44.327 91.1328 46.8342 91.1012C48.7264 91.0697 49.8145 90.1062 49.846 88.5426C49.8775 87.0105 48.758 85.8891 46.9131 85.8733C41.9144 85.8259 36.9 85.8259 31.9014 85.8733C30.0722 85.8891 28.9527 87.0105 28.9684 88.5268C28.9842 90.0746 30.088 91.0539 31.9645 91.0854C34.4086 91.117 36.8685 91.0854 39.3126 91.0854L39.3284 91.1012ZM39.486 93.7705C36.9788 93.7705 34.4874 93.7547 31.9802 93.7705C30.1353 93.7863 29 94.7971 28.9684 96.3292C28.9369 97.8612 30.088 98.9826 31.9014 98.9826C36.9 99.0142 41.9144 99.0142 46.9131 98.9826C48.7264 98.9826 49.8775 97.8612 49.846 96.3292C49.8302 94.7971 48.6791 93.7863 46.8342 93.7547C44.3901 93.7231 41.9302 93.7547 39.486 93.7547V93.7705Z" fill="white"/>
</svg>
