<svg width="68" height="120" viewBox="0 0 68 120" fill="none" xmlns="http://www.w3.org/2000/svg">
<path d="M13.1966 120C10.7139 118.916 9.25582 117.143 9.45286 114.306C9.58093 112.522 10.4972 111.173 11.7976 110.316C9.8962 109.301 7.84701 108.503 6.15247 107.232C2.63531 104.611 0.891496 100.936 0.783124 96.5424C0.733864 94.5622 0.783124 92.5721 0.783124 90.5032H67.2545C67.6387 96.4636 67.7273 102.326 62.6437 106.759C60.7817 108.385 58.6438 109.439 56.1316 110.02C56.3187 110.227 56.4271 110.404 56.5946 110.532C60.0822 113.202 58.969 118.66 55.1858 119.793C55.0873 119.823 55.0183 119.931 54.9296 120H13.1966Z" fill="white"/>
<path d="M0.852429 45.5986H67.2745V85.637H0.852429V45.5986Z" fill="#20A7DB"/>
<path d="M20.5065 0.0229976V3.16578H47.5896V0.0722455C50.4762 0.0722455 53.2348 -0.0164139 55.9835 0.111662C57.3726 0.180626 58.3972 1.5993 58.4071 2.99829C58.4169 4.40712 57.4416 5.66817 56.0229 5.92432C55.2643 6.06225 54.4761 6.0524 53.6091 6.11152V19.8945C57.077 20.0816 60.1805 21.1949 62.7518 23.5594C65.7173 26.2884 67.2739 29.6775 67.3428 33.7069C67.3822 36.0418 67.3428 38.3767 67.3428 40.7708H0.772971C0.772971 40.2191 0.753267 39.6477 0.772971 39.0762C0.881343 36.3177 0.635087 33.4705 1.1868 30.8006C2.49711 24.4461 7.57084 20.456 14.5066 19.8747V6.01299C13.8761 6.01299 13.2554 6.0524 12.6545 6.01299C10.9107 5.86521 9.68902 4.58446 9.70873 2.96873C9.72843 1.28404 11.0387 0.0328399 12.8416 0.013136C15.3342 -0.01642 17.8268 0.013136 20.4868 0.013136L20.5065 0.0229976ZM20.536 19.8747H31.6195V14.8896C30.8412 14.8404 30.1319 14.7911 29.4225 14.7419V11.7272H38.6834V14.7714C37.9051 14.8108 37.2155 14.8404 36.516 14.8699V19.855H47.5404V7.58931H20.536V19.8747Z" fill="white"/>
<path d="M20.6434 61.1085C23.4307 61.1085 25.8336 62.5118 26.8525 65.1261H24.2189C23.5076 63.7805 22.2389 63.1077 20.6434 63.1077C17.9906 63.1077 16.0683 64.9916 16.0683 67.9327C16.0683 70.8738 17.9906 72.7769 20.6434 72.7769C23.0655 72.7769 24.5841 71.316 24.9109 69.0669H19.8937V67.3176H27.2561V69.0284C26.8525 72.1234 24.2381 74.7569 20.6434 74.7569C16.8757 74.7569 13.8192 71.9503 13.8192 67.9327C13.8192 63.9343 16.8757 61.1085 20.6434 61.1085Z" fill="white"/>
<path d="M38.4332 74.6416L37.472 71.9119H31.8781L30.917 74.6416H28.6294L33.416 61.2623H35.9534L40.74 74.6416H38.4332ZM36.8569 70.1241L34.6847 63.9151L32.4932 70.1241H36.8569Z" fill="white"/>
<path d="M51.8368 70.8546C51.8368 72.8538 50.2029 74.7761 47.2233 74.7761C44.5513 74.7761 42.4944 73.3152 42.4944 70.9507H44.8396C44.9357 72.0465 45.7046 72.9307 47.2233 72.9307C48.7611 72.9307 49.6262 72.1041 49.6262 70.97C49.6262 67.7405 42.5328 69.8358 42.5328 64.9147C42.5328 62.5695 44.3975 61.1085 47.1272 61.1085C49.6838 61.1085 51.4908 62.4541 51.683 64.7417H49.2609C49.184 63.8382 48.3959 63.0116 47.0118 62.9731C45.7431 62.9347 44.7627 63.5498 44.7627 64.8378C44.7627 67.8558 51.8368 65.972 51.8368 70.8546Z" fill="white"/>
</svg>
