<svg width="123" height="120" viewBox="0 0 123 120" fill="none" xmlns="http://www.w3.org/2000/svg">
<path d="M47.8748 120H23.2209C23.2209 119.495 23.2209 118.982 23.2209 118.477C23.2209 85.2027 23.2209 51.9255 23.2209 18.6589C23.2209 15.7536 24.5511 14.4522 27.5266 14.4522C30.7553 14.4522 33.984 14.4522 37.2152 14.4522C37.644 14.4522 38.0649 14.4522 38.6099 14.4522C38.6099 13.875 38.6099 13.4442 38.6099 13.0228C38.6099 10.0168 38.5996 7.01074 38.6099 4.00496C38.628 1.40217 40.0511 3.05176e-05 42.6624 3.05176e-05C55.2205 3.05176e-05 67.7917 3.05176e-05 80.3523 3.05176e-05C82.9817 3.05176e-05 84.4229 1.40216 84.4307 3.98652C84.4514 7.02917 84.4307 10.0809 84.4307 13.1235C84.4307 13.5359 84.4694 13.9482 84.4979 14.4522C85.0506 14.4522 85.4793 14.4522 85.9107 14.4522C89.0644 14.4522 92.2105 14.4341 95.3642 14.4522C97.88 14.4707 99.2851 15.8637 99.3135 18.3014C99.3135 18.7321 99.3135 19.1629 99.3135 19.5937C99.3135 53.0618 99.3135 86.5309 99.3135 120H74.6595C74.6595 111.064 74.6802 102.128 74.6595 93.1843C74.6595 90.9471 73.2003 89.5104 70.9351 89.5003C64.4778 89.4826 58.0205 89.4826 51.5633 89.5003C49.298 89.5003 47.8361 90.9471 47.8361 93.1843C47.8361 102.12 47.8361 111.054 47.8361 120H47.8748ZM64.8703 28.1441C66.2186 28.1441 67.4068 28.1623 68.5949 28.1441C70.093 28.1073 71.1777 27.3833 71.7873 26.0544C72.8541 23.736 71.1597 21.2433 68.4373 21.1332C67.2672 21.0875 66.0869 21.1332 64.8703 21.1332C64.8703 19.9143 64.8703 18.9064 64.8703 17.889C64.8523 15.6347 63.3361 14.0492 61.2388 14.0674C59.1905 14.0858 57.7105 15.662 57.6925 17.8431C57.6821 18.9245 57.6925 19.9969 57.6925 21.1332C56.3623 21.1332 55.2026 21.0875 54.0506 21.1425C51.9171 21.2433 50.4294 22.7828 50.4862 24.7715C50.5327 26.696 52.0668 28.1166 54.1641 28.1532C55.3058 28.1716 56.4475 28.1532 57.6925 28.1532C57.6925 29.3811 57.6821 30.4626 57.6925 31.5532C57.7209 33.7161 59.2551 35.2649 61.3136 35.2465C63.3361 35.2281 64.8239 33.7067 64.8626 31.5991C64.8807 30.5086 64.8626 29.418 64.8626 28.1532L64.8703 28.1441ZM43.0733 42.1749C42.3991 42.1749 41.7172 42.1474 41.0431 42.1749C39.1317 42.2572 37.644 43.7144 37.5794 45.5473C37.5148 47.4259 38.9456 49.0571 40.8932 49.1682C42.3628 49.2591 43.8506 49.2591 45.31 49.1682C47.2575 49.0394 48.6704 47.3906 48.5955 45.5107C48.5103 43.6778 47.0327 42.2481 45.1033 42.1749C44.4292 42.1474 43.7474 42.1749 43.0733 42.1749ZM61.2594 42.1749C60.5853 42.1749 59.9008 42.1474 59.2267 42.1749C57.3179 42.2572 55.8302 43.7237 55.763 45.5473C55.6984 47.4158 57.1319 49.047 59.0872 49.1682C60.5568 49.2591 62.0447 49.2591 63.504 49.1682C65.4515 49.0394 66.8644 47.3906 66.7791 45.5107C66.6965 43.6778 65.2088 42.2481 63.2794 42.1749C62.6052 42.1474 61.9233 42.1749 61.2492 42.1749H61.2594ZM79.4716 49.196C80.1457 49.196 80.8276 49.2212 81.5017 49.196C83.5242 49.0849 85.0222 47.5093 84.9757 45.5933C84.9266 43.7144 83.4209 42.239 81.4269 42.184C80.1173 42.1474 78.7973 42.1474 77.4775 42.184C75.5041 42.239 73.988 43.7237 73.9389 45.6024C73.9027 47.4714 75.3544 49.047 77.2993 49.196C78.0122 49.249 78.7328 49.196 79.4534 49.196H79.4716ZM43.1482 56.2332C42.474 56.2332 41.7921 56.2155 41.118 56.2332C39.1317 56.2963 37.6259 57.7735 37.5794 59.6521C37.5329 61.5206 38.9921 63.1341 40.9397 63.2351C42.3706 63.3184 43.8118 63.3184 45.2453 63.2351C47.2006 63.124 48.6523 61.5206 48.6033 59.6521C48.5568 57.7735 47.0509 56.3064 45.0672 56.2332C44.4292 56.2155 43.7938 56.2332 43.1584 56.2332H43.1482ZM61.3059 56.2332C60.6318 56.2332 59.9473 56.2155 59.2732 56.2332C57.3463 56.3064 55.8482 57.7356 55.763 59.5587C55.6803 61.4297 57.0932 63.0962 59.0304 63.225C60.5363 63.326 62.0627 63.3361 63.5712 63.225C65.4696 63.0785 66.836 61.4574 66.7791 59.6243C66.7249 57.7911 65.2449 56.3342 63.3361 56.2433C62.662 56.2155 61.9801 56.2433 61.3059 56.2433V56.2332ZM79.4432 56.2332C78.8078 56.2332 78.1698 56.2155 77.5344 56.2332C75.5404 56.2963 74.0243 57.7457 73.9674 59.6142C73.9132 61.4852 75.3441 63.1164 77.2916 63.225C78.7613 63.3083 80.2489 63.3184 81.7083 63.225C83.6558 63.0962 85.0686 61.4373 84.9834 59.5587C84.9008 57.728 83.4105 56.3064 81.4836 56.2332C80.8095 56.2054 80.1276 56.2332 79.4534 56.2332H79.4432ZM43.0551 77.3196C43.7758 77.3196 44.4964 77.3575 45.2067 77.3196C47.162 77.1833 48.6239 75.6354 48.5955 73.7543C48.5671 71.8757 47.0613 70.3733 45.0853 70.3102C43.7758 70.2723 42.456 70.2723 41.1361 70.3102C39.1421 70.3556 37.6258 71.8126 37.569 73.6912C37.5147 75.6077 39.0025 77.2009 41.0145 77.3196C41.6887 77.3575 42.3706 77.3196 43.0447 77.3196H43.0551ZM61.1845 77.3196C61.9052 77.3196 62.6258 77.3575 63.3361 77.3196C65.3482 77.2009 66.8462 75.6152 66.7894 73.7013C66.7326 71.8227 65.2268 70.3657 63.2224 70.3102C61.9129 70.2723 60.5931 70.2723 59.2732 70.3102C57.2999 70.3657 55.7914 71.8681 55.7553 73.7467C55.7269 75.6152 57.1862 77.1833 59.1441 77.3196C59.8156 77.3676 60.5001 77.3196 61.1743 77.3297L61.1845 77.3196ZM79.4999 70.3001C78.8258 70.3001 78.1414 70.2824 77.4672 70.3001C75.5507 70.3733 74.0527 71.8025 73.9674 73.628C73.8848 75.4511 75.2303 77.1201 77.121 77.2742C78.6656 77.403 80.2387 77.3929 81.7833 77.2742C83.6843 77.1378 85.0506 75.5067 84.9938 73.6735C84.937 71.8403 83.4595 70.3834 81.5404 70.2925C80.8662 70.2647 80.1818 70.2925 79.5077 70.2925L79.4999 70.3001Z" fill="white"/>
<path d="M0 46.4007C0.816199 44.3284 2.38652 43.5861 4.59749 43.6411C7.94753 43.7234 11.2872 43.6593 14.6398 43.6593H16.0347V119.99H0V46.3906V46.4007Z" fill="#20A7DB"/>
<path d="M106.52 120V43.6685C107.016 43.6685 107.437 43.6685 107.868 43.6685C111.257 43.6685 114.653 43.6685 118.042 43.6685C121.271 43.6685 122.562 44.9239 122.562 48.0396C122.562 72.0222 122.562 96.0149 122.562 120H106.52Z" fill="#20A7DB"/>
<path d="M55.0532 120V96.6108H67.5027V120H55.0532Z" fill="white"/>
</svg>
