<svg width="121" height="120" viewBox="0 0 121 120" fill="none" xmlns="http://www.w3.org/2000/svg">
<path d="M120.225 115.525V117.163C119.439 119.298 117.888 120 115.664 120C85.8756 119.963 56.0875 119.971 26.3018 119.971C18.936 119.971 11.5628 119.971 4.19703 119.971C2.06684 119.971 0.468496 118.426 0.448795 116.451C0.429094 114.43 1.97322 112.94 4.16005 112.932C7.86141 112.913 11.5702 112.932 15.2716 112.932C15.6927 112.932 16.1138 112.932 16.6753 112.932C16.6753 112.388 16.6753 111.967 16.6753 111.556C16.6753 107.492 16.6185 103.429 16.7121 99.3754C16.7392 98.0653 16.4413 97.3339 15.1139 96.9226C14.2076 96.6517 13.3851 96.0237 12.5995 95.4524C9.56064 93.2336 7.37377 90.2932 5.8223 86.9243C0.635973 75.633 -0.888296 63.9035 2.27128 51.7996C5.15011 40.7891 10.627 31.0062 17.0569 21.7191C18.862 19.1166 21.6005 19.1166 23.3466 21.7848C25.7206 25.3983 28.0773 29.04 30.1902 32.8128C34.1526 39.8717 37.3122 47.2855 38.9572 55.2719C39.1986 56.4416 38.9647 57.1632 38.051 57.9685C33.0593 62.3298 28.0576 66.6936 23.1988 71.2052C17.8795 76.1576 19.0099 84.9862 25.5063 88.0669C27.6932 89.1062 28.1339 90.239 28.0305 92.3815C27.8531 95.8095 27.9837 95.8169 24.8143 97.1467C24.7404 97.1763 24.6739 97.2231 24.6 97.2304C23.7504 97.3536 23.6273 97.888 23.6371 98.6539C23.6667 103.028 23.6469 107.399 23.6568 111.78C23.6568 112.117 23.7036 112.462 23.7208 112.819H34.9087V79.556C34.032 80.3145 33.3301 80.9696 32.5716 81.568C31.1063 82.7304 29.0401 82.5703 27.8064 81.2405C26.5258 79.8565 26.5628 77.778 27.9173 76.3743C28.2448 76.0369 28.5994 75.7365 28.9565 75.4286C42.8261 63.0785 56.6957 50.7308 70.5654 38.3833C72.6315 36.5484 74.2297 36.5484 76.3229 38.4114C84.361 45.574 92.409 52.7354 100.447 59.8869C100.747 60.1504 101.055 60.4016 101.513 60.7956C101.513 60.0938 101.513 59.6628 101.513 59.2417C101.513 55.8802 101.503 52.5285 101.513 49.167C101.513 47.2387 102.607 45.8079 104.279 45.4706C106.559 45.0027 108.495 46.6305 108.505 49.0833C108.522 54.7474 108.522 60.4114 108.495 66.0657C108.495 66.7971 108.699 67.2822 109.251 67.7698C112.393 70.5231 115.504 73.2935 118.607 76.0936C120.244 77.5711 120.412 79.6964 119.075 81.1937C117.737 82.6934 115.637 82.7575 113.962 81.3267C113.327 80.7824 112.711 80.2308 111.935 79.5462V112.932C113.233 112.932 114.44 113.016 115.634 112.913C117.794 112.725 119.328 113.531 120.198 115.533L120.225 115.525ZM51.3492 112.846C51.3492 112.331 51.3492 111.873 51.3492 111.415C51.3492 103.606 51.369 95.7997 51.3321 87.9832C51.3321 87.0179 51.5832 86.6805 52.5658 86.7273C54.041 86.811 55.5284 86.8208 57.0035 86.7273C58.1166 86.6534 58.3605 87.0548 58.3605 88.1039C58.3236 95.8735 58.3407 103.643 58.3407 111.415C58.3407 111.873 58.3407 112.331 58.3407 112.839H65.2853C65.305 112.388 65.342 112.014 65.342 111.63C65.342 102.37 65.342 93.1227 65.342 83.8632C65.342 81.0459 64.0049 79.726 61.163 79.726C56.9962 79.726 52.817 79.726 48.6478 79.726C45.6581 79.726 44.3578 81.0164 44.3578 83.9937C44.3578 93.1695 44.3578 102.343 44.3578 111.526V112.846H51.3592H51.3492ZM89.3996 103.784C92.0912 103.784 94.7731 103.784 97.4648 103.784C100.026 103.776 101.467 102.363 101.467 99.8064C101.476 94.46 101.476 89.1136 101.467 83.7696C101.467 81.1863 100.073 79.7432 97.5214 79.7334C92.148 79.7161 86.7745 79.7063 81.3985 79.7334C78.9605 79.7432 77.5396 81.1568 77.5297 83.5997C77.5026 89.02 77.5026 94.4501 77.5297 99.8704C77.5396 102.38 78.9678 103.776 81.4649 103.784C84.1098 103.793 86.7646 103.784 89.4095 103.784H89.3996Z" fill="white"/>
<path d="M58.9291 0.00938719C60.9386 0.439858 63.0048 0.69278 64.9576 1.32002C75.4633 4.65272 82.5212 13.949 83.127 25.2769C83.2969 28.4224 83.1566 31.5867 83.1566 35.041C82.1937 34.1986 81.3982 33.5152 80.6127 32.8131C79.1942 31.5305 77.5762 30.6317 75.7071 30.2386C72.0894 29.4895 68.93 30.4445 66.1915 32.8879C59.7615 38.6266 53.3217 44.355 46.8819 50.0856C46.414 50.4968 45.9485 50.9007 45.3969 51.3859C45.2737 51.1051 45.1727 50.9179 45.1161 50.7135C42.4614 40.4896 37.8071 31.1747 32.1701 22.3185C31.5716 21.3729 31.4509 20.5772 31.7489 19.5005C34.6006 9.03401 43.4513 1.38552 54.1909 0.205915C54.452 0.177841 54.7056 0.074895 54.9667 3.05176e-05C56.294 3.05176e-05 57.6215 3.05176e-05 58.939 3.05176e-05L58.9291 0.00938719Z" fill="white"/>
<path d="M106.42 0.00918579C107.971 0.486693 109.599 0.814229 111.067 1.4789C117.701 4.51214 121.255 11.8799 119.58 18.9575C117.851 26.2876 111.542 31.1277 103.945 30.9499C96.9238 30.7814 90.6909 25.3703 89.3906 18.3116C87.8318 9.81101 93.5033 1.69438 102.029 0.233783C102.253 0.196351 102.457 0.0934069 102.674 0.0185425C103.915 0.0185425 105.169 0.0185425 106.412 0.0185425L106.42 0.00918579Z" fill="#20A7DB"/>
<path d="M94.4097 86.774V96.6788H84.5122C84.5122 95.9671 84.5122 95.2455 84.5122 94.5264C84.5122 92.2608 84.4852 89.9952 84.5418 87.7394C84.5418 87.4119 84.9431 86.8208 85.1672 86.8208C88.1938 86.7543 91.2328 86.7839 94.4097 86.7839V86.774Z" fill="white"/>
</svg>
