<svg width="109" height="120" viewBox="0 0 109 120" fill="none" xmlns="http://www.w3.org/2000/svg">
<path d="M108.26 31.3294C107.744 50.2517 103.942 68.3562 94.5743 85.0117C85.7946 100.62 73.1702 112.039 56.8877 119.428C55.0227 120.274 53.1864 120.145 51.3214 119.284C28.325 108.582 13.7926 90.5923 6.07453 66.7351C1.69903 53.2069 -0.122894 39.3201 0.27879 25.132C0.321828 23.4392 0.364871 21.6747 1.58427 20.3548C2.35895 19.5228 3.30577 18.6764 4.33868 18.289C20.277 12.2351 36.2439 6.20979 52.2396 0.313635C53.5164 -0.159779 55.2952 -0.0737042 56.6007 0.414056C72.2951 6.19545 87.9465 12.1203 103.612 17.9734C106.539 19.0637 108.174 21.0147 108.246 24.1565C108.303 26.5523 108.246 28.948 108.246 31.3294H108.26ZM52.6126 60.0929C52.4691 60.0356 52.4117 60.0355 52.383 60.0068C49.8869 57.525 47.405 55.0288 44.8801 52.5757C42.3983 50.1799 38.7544 50.1656 36.4017 52.4753C33.9773 54.8567 33.9342 58.5436 36.4017 61.0397C40.3468 65.0566 44.335 69.0304 48.3518 72.9899C50.8624 75.4574 54.4632 75.4861 56.9163 72.9612C65.5525 64.0094 74.1314 55.0145 82.7102 46.0196C83.944 44.7285 84.5178 43.1504 84.317 41.3859C84.0444 38.8897 82.7246 37.0821 80.3145 36.2644C77.933 35.461 75.7525 35.9488 73.9879 37.7851C70.1146 41.8019 66.2699 45.8475 62.3965 49.8787C59.1256 53.293 55.8547 56.7216 52.6126 60.1073V60.0929Z" fill="white"/>
<path d="M52.6123 60.0935C55.8544 56.7079 59.1253 53.2935 62.3962 49.8649C66.2552 45.8337 70.0999 41.7881 73.9876 37.7713C75.7522 35.935 77.9327 35.4473 80.3142 36.2506C82.7243 37.0684 84.0441 38.8759 84.3167 41.3721C84.5175 43.1367 83.9437 44.729 82.7099 46.0058C74.1311 55.0007 65.5522 63.9956 56.916 72.9474C54.4772 75.4723 50.8621 75.4579 48.3515 72.9761C44.3347 69.031 40.3609 65.0428 36.4014 61.026C33.9339 58.5298 33.977 54.8285 36.4014 52.4615C38.7541 50.1518 42.398 50.1661 44.8798 52.5619C47.4047 55.0151 49.8866 57.5112 52.3827 59.9931C52.4114 60.0218 52.4688 60.0218 52.6123 60.0791V60.0935Z" fill="#20A7DB"/>
</svg>
