<svg width="164" height="120" viewBox="0 0 164 120" fill="none" xmlns="http://www.w3.org/2000/svg">
<path d="M163.789 37.5632C163.14 39.8488 162.51 42.1146 161.782 44.676C149.527 37.5041 136.86 32.0858 123.346 28.362C123.523 27.6527 123.66 27.0419 123.798 26.4311C123.955 25.8203 124.093 25.2095 124.31 24.382C96.0426 16.7964 67.8938 16.8161 39.5482 24.382C39.8629 25.7218 40.158 26.9237 40.4924 28.362C27.0573 32.0858 14.3696 37.445 2.25244 44.5775C0.364048 40.5975 -0.383432 36.5387 0.18702 32.3617C1.44595 22.8649 6.58002 16.3432 15.4909 12.777C28.749 7.47692 42.4398 3.75307 56.5831 1.80249C88.3907 -2.61096 119.254 1.05378 149.055 13.0922C157.199 16.3826 161.959 22.5693 163.494 31.2386C163.553 31.5538 163.69 31.8297 163.789 32.1449V37.5829V37.5632Z" fill="#20A7DB"/>
<path d="M17.418 91.3713C19.4047 85.0861 21.1554 78.9979 23.2602 73.0279C28.0205 59.5512 36.5576 48.9313 48.3404 40.9713C51.3894 38.9222 52.786 36.4791 52.4713 32.8341C52.2746 30.6076 52.3926 28.3615 52.4713 26.1154C52.4713 25.7016 52.8253 24.9529 53.1007 24.9135C57.389 24.1845 61.6969 23.554 66.0638 22.8841C67.008 26.6276 67.8932 30.0756 68.7587 33.5236C69.5455 36.617 71.2569 38.0553 74.4239 38.0947C79.4399 38.1341 84.4363 38.1341 89.4523 38.0947C92.639 38.075 94.3897 36.6564 95.1765 33.6025C95.983 30.5091 96.7895 27.4158 97.4977 24.3027C97.7337 23.2782 98.1665 23.0023 99.1303 23.1599C102.927 23.7313 106.704 24.3027 110.5 24.8347C111.366 24.9529 111.582 25.4061 111.582 26.2533C111.543 29.0905 111.621 31.908 111.543 34.7452C111.464 37.1096 112.408 38.8237 114.336 40.1438C121.673 45.2075 128.243 51.0789 133.239 58.566C138.492 66.4078 141.659 75.1756 144.196 84.1798C144.865 86.5244 145.435 88.9085 146.104 91.4107H17.418V91.3713ZM82.1348 42.2126C70.057 41.9959 59.7495 51.9853 59.5527 64.0828C59.356 76.6139 69.1128 86.7806 81.5447 86.9776C93.8782 87.1746 104.068 77.402 104.284 65.1468C104.5 52.5961 94.6848 42.4294 82.1348 42.1929V42.2126Z" fill="white"/>
<path d="M81.9391 119.98C60.3602 119.98 38.7814 119.98 17.2026 119.98C13.3078 119.98 12.3242 118.975 12.3242 115.035C12.3242 109.853 12.3242 104.691 12.3242 99.509C12.3242 96.1792 13.5438 94.9773 16.8682 94.9773C60.2422 94.9773 103.597 94.9773 146.971 94.9773C150.295 94.9773 151.534 96.1989 151.534 99.4893C151.534 104.888 151.534 110.267 151.534 115.665C151.534 118.798 150.315 120 147.148 120C125.411 120 103.675 120 81.9391 120V119.98Z" fill="white"/>
<path d="M122.362 31.7108C135.679 35.3952 148.091 40.6756 159.952 47.6701C159.008 49.2267 158.182 50.8029 157.159 52.2018C155.428 54.5662 152.497 54.9799 149.566 53.6401C142.937 50.6256 136.288 47.7096 129.62 44.7935C128.164 44.163 126.591 43.7887 125.096 43.2567C121.929 42.173 120.375 39.3161 121.201 36.0454C121.535 34.6662 121.948 33.287 122.362 31.6911V31.7108Z" fill="white"/>
<path d="M3.90527 47.6715C15.7471 40.6573 28.1397 35.4163 41.5355 31.7122C41.9879 33.7219 42.6567 35.633 42.8337 37.6033C43.0698 40.2238 41.3191 42.2729 38.6045 43.3172C32.6443 45.6224 26.7037 47.9276 20.8025 50.3511C18.5403 51.2771 16.4159 52.5381 14.2324 53.6218C10.9081 55.2768 7.95746 54.4296 6.02972 51.2377C5.34124 50.095 4.67244 48.9522 3.92495 47.6518L3.90527 47.6715Z" fill="white"/>
<path d="M81.9001 71.2952C78.1823 71.2952 75.2121 68.3397 75.1924 64.6356C75.1924 60.9511 78.143 57.9169 81.8214 57.8578C85.5392 57.7987 88.6275 60.892 88.6078 64.6356C88.5882 68.3397 85.6179 71.2952 81.8804 71.2952H81.9001Z" fill="white"/>
<path d="M74.9368 53.5435C74.9564 55.8093 73.2057 57.6417 70.9829 57.6811C68.7798 57.7205 66.9111 55.8881 66.8717 53.6617C66.8324 51.4353 68.6224 49.5635 70.8452 49.5438C73.068 49.5044 74.8974 51.2973 74.9368 53.5632V53.5435Z" fill="white"/>
<path d="M88.882 53.6617C88.8623 51.4156 90.6327 49.5832 92.8752 49.5438C95.098 49.5044 96.947 51.317 96.9667 53.5632C96.9667 55.7896 95.1766 57.6417 92.9735 57.6811C90.7704 57.7205 88.9213 55.8881 88.9017 53.6617H88.882Z" fill="white"/>
<path d="M81.8618 53.0893C79.6194 53.0499 77.79 51.1782 77.8687 48.9517C77.9277 46.7844 79.757 44.9914 81.9011 44.9717C84.1043 44.9717 85.9927 46.8435 85.973 49.0502C85.973 51.2964 84.1043 53.109 81.8618 53.0696V53.0893Z" fill="white"/>
<path d="M66.3207 68.6541C64.0585 68.6344 62.3275 66.802 62.3669 64.5165C62.4062 62.3097 64.1372 60.5956 66.36 60.5956C68.6418 60.5956 70.4319 62.3885 70.4122 64.6544C70.4122 66.9005 68.5631 68.6935 66.3207 68.6738V68.6541Z" fill="white"/>
<path d="M97.3797 68.6555C95.1372 68.6161 93.3668 66.7838 93.4062 64.5179C93.4455 62.2718 95.2945 60.5379 97.5764 60.597C99.7795 60.6562 101.471 62.4097 101.451 64.6361C101.451 66.902 99.6221 68.6949 97.3797 68.6555Z" fill="white"/>
<path d="M66.8717 75.5512C66.9111 73.3248 68.7995 71.4924 71.0223 71.5515C73.2647 71.6106 74.9958 73.4824 74.9368 75.7482C74.8777 77.955 73.1074 79.6494 70.8846 79.6297C68.6224 79.6297 66.8324 77.7973 66.8717 75.5315V75.5512Z" fill="white"/>
<path d="M96.9483 75.6497C96.9483 77.9156 95.1189 79.6888 92.8371 79.6494C90.5553 79.61 88.8243 77.7974 88.8833 75.5118C88.9423 73.3445 90.752 71.5712 92.8962 71.5712C95.1386 71.5712 96.9483 73.4233 96.9483 75.6694V75.6497Z" fill="white"/>
<path d="M81.9772 84.2587C79.7938 84.2981 77.8857 82.4264 77.8464 80.2197C77.8267 78.072 79.5971 76.22 81.7608 76.1215C83.9443 76.0229 85.8917 77.8553 85.9704 80.0817C86.0491 82.2885 84.2 84.2193 81.9772 84.2785V84.2587Z" fill="white"/>
</svg>
