<svg width="121" height="120" viewBox="0 0 121 120" fill="none" xmlns="http://www.w3.org/2000/svg">
<path d="M93.3855 0C93.4827 0.0649057 93.5799 0.140629 93.6879 0.173082C96.9711 1.20075 98.6667 3.31019 98.6775 6.68528C98.7207 22.1977 98.7207 37.7102 98.7207 53.2226C98.7207 53.6445 98.6343 54.0556 98.5695 54.6614C98.1375 54.2611 97.8243 53.9799 97.5327 53.6878C91.4091 47.565 85.3071 41.399 79.1403 35.3087C73.6971 29.9215 65.014 30.9816 61.1476 37.4289C58.5124 41.8209 59.128 47.2405 62.7136 51.1889C65.338 54.0772 67.984 56.9439 70.738 59.9512C70.3168 59.9945 70.036 60.0594 69.7552 60.0594C48.814 60.081 27.8729 60.1027 6.92095 60.1135C3.77816 60.1135 1.48855 58.4367 0.494957 55.4619C0.440957 55.2888 0.332945 55.1265 0.246545 54.9643C0.235745 38.3917 0.224969 21.8191 0.203369 5.24654C1.02417 2.62868 2.74135 0.908679 5.35494 0.0865408C34.6985 0.0649056 64.042 0.0432707 93.3855 0.0108179V0ZM25.9289 15.0473C25.9289 13.4463 25.9397 11.8453 25.9289 10.2443C25.8857 6.70692 23.5745 4.37032 20.0429 4.33786C16.8461 4.30541 13.6493 4.31623 10.4417 4.33786C6.83453 4.37032 4.51256 6.6961 4.49096 10.2984C4.46936 13.5004 4.46936 16.7132 4.49096 19.9152C4.52336 23.4526 6.84533 25.7892 10.3769 25.8216C13.5737 25.8541 16.7705 25.8433 19.9781 25.8216C23.5745 25.7892 25.8965 23.4526 25.9397 19.8611C25.9613 18.2601 25.9397 16.6591 25.9397 15.0581L25.9289 15.0473ZM28.0133 32.2689H19.5461C19.5461 33.686 19.5461 35.0166 19.5461 36.4229H28.0133C28.0133 35.0382 28.0133 33.7185 28.0133 32.2689ZM32.4197 32.2473V36.3796C35.2925 36.3796 38.0681 36.3796 40.8329 36.3796V32.2473C37.9817 32.2473 35.2277 32.2473 32.4197 32.2473ZM15.1505 49.3067V45.1743C12.2885 45.1743 9.51292 45.1743 6.75893 45.1743V49.3067C9.61012 49.3067 12.3533 49.3067 15.1505 49.3067ZM53.6956 45.1311H45.2609C45.2609 46.5482 45.2609 47.8896 45.2609 49.2634H53.6956C53.6956 47.8355 53.6956 46.4941 53.6956 45.1311ZM6.70494 36.4121H15.1505C15.1505 34.9733 15.1505 33.6428 15.1505 32.2906H6.70494C6.70494 33.686 6.70494 34.995 6.70494 36.4121ZM45.25 32.2473V36.4013C48.0904 36.4013 50.8552 36.4013 53.6956 36.4013V32.2473C50.8768 32.2473 48.1336 32.2473 45.25 32.2473ZM60.2188 6.50138V12.8405C61.6336 12.8405 62.9728 12.8405 64.3228 12.8405V6.50138C62.908 6.50138 61.6012 6.50138 60.2188 6.50138ZM68.8048 6.50138V12.8405C70.2303 12.8405 71.5696 12.8405 72.9196 12.8405V6.50138C71.5048 6.50138 70.1979 6.50138 68.8048 6.50138ZM81.4515 12.8297V6.52302C80.0043 6.52302 78.6651 6.52302 77.3259 6.52302V12.8297C78.7407 12.8297 80.0799 12.8297 81.4515 12.8297ZM85.9227 12.8297H90.0375C90.0375 10.677 90.0375 8.6 90.0375 6.5122H85.9227C85.9227 8.66491 85.9227 10.7203 85.9227 12.8297Z" fill="#20A7DB"/>
<path d="M109.909 72.3152C111.054 71.1686 112.015 70.2166 113.074 69.1565C110.471 66.5711 107.879 63.9965 105.211 61.3354C105.924 61.0325 106.529 60.7837 107.123 60.5349C113.085 58.0793 115.623 52.2918 113.344 46.234C111.216 40.6196 109.035 35.0161 106.875 29.4126C106.734 29.0556 106.626 28.6878 106.486 28.3092C106.626 28.2984 106.713 28.2659 106.734 28.2876C109.369 30.9595 112.134 33.5016 114.586 36.325C118.225 40.5006 120.061 45.5092 120.094 51.0478C120.169 66.6468 120.148 82.235 120.159 97.834C120.159 98.0287 120.137 98.2234 120.115 98.5587C119.705 98.5804 119.295 98.6128 118.884 98.6237C107.955 98.6345 97.0359 98.6237 86.1063 98.6777C85.2531 98.6777 84.7779 98.3965 84.3459 97.6825C78.9027 88.7039 78.4491 79.5414 83.2227 70.1517C84.0111 68.594 83.9571 68.0206 82.7475 66.6901C77.1099 60.524 71.4507 54.3796 65.8132 48.2028C62.746 44.8493 63.1672 39.9814 66.6988 37.396C69.5392 35.319 73.3839 35.6219 75.9975 38.1965C79.5291 41.6798 83.0175 45.2063 86.5275 48.7112C94.0335 56.2294 101.55 63.7369 109.045 71.2551C109.348 71.558 109.596 71.915 109.909 72.3044V72.3152Z" fill="white"/>
<path d="M14.0166 74.2626C18.3582 72.5751 22.6026 70.92 26.847 69.2865C30.7674 67.772 34.6878 66.2468 38.6297 64.7647C39.2993 64.5159 40.0553 64.3645 40.7789 64.3645C51.6221 64.332 62.4653 64.3429 73.3193 64.2996C74.3453 64.2996 75.1013 64.5376 75.7277 65.3597C76.2353 66.0304 76.8508 66.6254 77.5204 67.3718C74.68 68.4752 72.0125 69.5245 69.3341 70.563C55.1969 76.0259 41.0381 81.3914 26.955 86.9949C22.4082 88.8015 18.5202 86.757 17.235 82.722C16.3386 79.8986 15.1398 77.1834 14.0166 74.2734V74.2626Z" fill="white"/>
<path d="M85.9986 120C85.9986 114.332 85.9986 108.717 85.9878 103.027C97.3386 103.027 108.668 103.006 120.073 102.995C120.073 108.609 120.073 114.245 120.083 119.968C108.776 119.968 97.4574 119.989 85.9986 120ZM90.2862 107.246V111.389C91.7118 111.389 93.051 111.389 94.3686 111.389V107.246C92.9538 107.246 91.647 107.246 90.2862 107.246Z" fill="white"/>
<path d="M103.128 31.5987C105.374 37.451 107.545 42.9572 109.586 48.5066C110.623 51.33 109.348 54.5428 106.746 55.96C105.396 56.6956 103.905 57.1823 102.512 57.7665C103.549 49.2098 102.771 40.7288 103.009 32.2694C103.009 32.1612 103.052 32.053 103.138 31.5987H103.128Z" fill="white"/>
<path d="M12.4726 70.2709C11.7058 68.2697 10.9822 66.3982 10.2262 64.4186H27.031C27.031 64.4186 27.0741 64.5376 27.0957 64.6025C22.2682 66.474 17.4406 68.3454 12.4726 70.2709Z" fill="white"/>
<path d="M8.82186 12.9479C8.82186 11.8229 8.69228 10.7952 8.87588 9.83241C8.96228 9.38889 9.64265 8.73983 10.0639 8.72902C13.4874 8.63166 16.9219 8.66411 20.3454 8.67493C21.1338 8.67493 21.5658 9.16172 21.5874 9.94059C21.6198 10.8709 21.5874 11.812 21.5874 12.8722H17.4187C17.4187 14.3434 17.4187 15.6847 17.4187 17.1559H21.555C21.555 18.3567 21.6739 19.4385 21.5011 20.4878C21.4363 20.8772 20.7126 21.4181 20.2914 21.4289C16.9002 21.5046 13.5199 21.483 10.1287 21.4722C9.35108 21.4722 8.86507 21.0503 8.83267 20.2606C8.78947 19.2978 8.82186 18.3242 8.82186 17.2317H13.0123C13.0123 15.7605 13.0123 14.4191 13.0123 12.9479H8.83267H8.82186Z" fill="white"/>
</svg>
