<svg width="77" height="128" viewBox="0 0 77 128" fill="none" xmlns="http://www.w3.org/2000/svg">
<g filter="url(#filter0_d_170_5543)">
<path d="M11.4937 120C9.68575 119.476 7.94012 118.84 6.5935 117.444C4.81046 115.611 4 113.404 4 110.873C4 107.743 4 104.626 4 101.496C4 70.8357 4 40.1874 4 9.52671C4 5.68633 5.42144 2.64396 8.97504 0.960676C10.197 0.374644 11.6683 0.0504803 13.0274 0.0504803C29.6607 -0.0118636 46.3065 -0.0118879 62.9399 0.0255184C68.3388 0.0255184 71.9673 3.85343 71.9673 9.4145C71.9673 36.3969 71.9673 63.3794 71.9673 90.3742C71.9673 96.6959 71.8301 103.03 72.0047 109.352C72.1418 114.177 70.5209 118.466 64.461 120H11.4937ZM10.5835 92.2071H65.3339V14.8509H10.5835V92.2071ZM38.0896 5.34971C34.1869 5.34971 30.2842 5.34971 26.3814 5.34971C24.9226 5.34971 24.3989 5.91077 24.3989 7.41949C24.3989 8.92821 24.9475 9.55168 26.3565 9.55168C34.1245 9.55168 41.8926 9.55168 49.6606 9.55168C51.0447 9.55168 51.5933 8.90327 51.5808 7.38208C51.5683 5.91077 51.0446 5.34969 49.6856 5.33723C45.8202 5.33723 41.9549 5.33723 38.0896 5.33723V5.34971ZM37.9899 111.359C41.0572 111.359 43.5883 108.816 43.5634 105.773C43.5385 102.743 41.0696 100.299 38.0397 100.274C34.9475 100.249 32.4288 102.718 32.4039 105.786C32.3789 108.828 34.9225 111.359 37.9899 111.359Z" fill="white"/>
<path d="M36.0271 77.9928C35.1044 77.6187 34.8675 76.9329 34.9423 75.9728C35.3039 71.4093 35.6157 66.8457 35.9398 62.2821C36.0521 60.7609 36.1643 59.2522 36.289 57.6687C36.0645 57.6687 35.8775 57.6687 35.6905 57.6687C32.486 57.6687 29.2691 57.6687 26.0646 57.6687C25.1668 57.6687 24.5185 57.2572 24.4561 56.5091C24.4187 56.0976 24.5559 55.6238 24.7554 55.2622C26.4012 52.2573 28.0721 49.2647 29.7429 46.2722C32.7229 40.9231 35.7029 35.5741 38.683 30.2125C39.0072 29.6389 39.4062 29.19 40.1044 29.19C40.9648 29.19 41.5882 29.9257 41.5259 30.8608C41.1393 36.185 40.7403 41.5092 40.3413 46.8209C40.279 47.6937 40.2291 48.554 40.1543 49.4892C40.3663 49.4892 40.5533 49.4892 40.7403 49.4892C43.9448 49.4892 47.1617 49.4892 50.3662 49.4892C50.8774 49.4892 51.3388 49.6014 51.6879 50.0129C52.1243 50.5241 52.1492 51.0977 51.7378 51.8208C50.4535 54.1276 49.1817 56.4218 47.8974 58.7285C44.5308 64.7759 41.1643 70.8232 37.8102 76.8706C37.5234 77.3818 37.1742 77.8057 36.6007 77.9928H36.0271Z" fill="#20A7DB"/>
</g>
<defs>
<filter id="filter0_d_170_5543" x="0" y="0" width="76.0125" height="128" filterUnits="userSpaceOnUse" color-interpolation-filters="sRGB">
<feFlood flood-opacity="0" result="BackgroundImageFix"/>
<feColorMatrix in="SourceAlpha" type="matrix" values="0 0 0 0 0 0 0 0 0 0 0 0 0 0 0 0 0 0 127 0" result="hardAlpha"/>
<feOffset dy="4"/>
<feGaussianBlur stdDeviation="2"/>
<feComposite in2="hardAlpha" operator="out"/>
<feColorMatrix type="matrix" values="0 0 0 0 0 0 0 0 0 0 0 0 0 0 0 0 0 0 0.25 0"/>
<feBlend mode="normal" in2="BackgroundImageFix" result="effect1_dropShadow_170_5543"/>
<feBlend mode="normal" in="SourceGraphic" in2="effect1_dropShadow_170_5543" result="shape"/>
</filter>
</defs>
</svg>
