<svg width="121" height="120" viewBox="0 0 121 120" fill="none" xmlns="http://www.w3.org/2000/svg">
<path d="M120.449 95.1506C119.514 97.1741 117.905 97.7623 115.736 97.7623C78.8525 97.7195 41.9696 97.7296 5.08656 97.7296C1.87409 97.7296 0.649902 96.4929 0.649902 93.2754C0.649902 81.0162 0.649902 68.7495 0.649902 56.4904C0.649902 53.5921 1.957 52.27 4.85274 52.27C41.8086 52.27 78.7771 52.28 115.736 52.2373C117.905 52.2373 119.514 52.8129 120.449 54.849V95.1606V95.1506ZM60.6134 58.3555C58.889 58.3455 57.411 59.3057 56.7398 61.0527C53.462 69.6545 50.2169 78.2562 46.9918 86.868C46.278 88.7659 47.1929 90.6938 48.9927 91.3876C50.79 92.0914 52.7054 91.2494 53.5148 89.3842C53.8667 88.5622 54.196 87.7202 54.4625 86.868C54.6636 86.2069 55.0054 85.9832 55.7067 85.9933C58.1651 86.036 60.6234 86.0059 63.0818 86.0159C64.135 86.0159 65.4321 85.6841 66.156 86.1868C66.8699 86.677 67.0283 88.0093 67.4028 88.9795C68.2424 91.1212 70.0949 92.1116 72.0104 91.4203C73.9786 90.7064 74.7879 88.7131 73.9685 86.5061C72.777 83.2861 71.5629 80.0786 70.3614 76.8712C68.4133 71.6905 66.4753 66.4998 64.5172 61.3191C63.7957 59.4012 62.3906 58.3681 60.5908 58.3555H60.6134ZM90.526 68.8752C90.2068 68.4605 89.9605 68.1739 89.7493 67.8647C87.8641 65.2304 85.9913 62.5886 84.0985 59.9668C83.1735 58.6773 81.9066 58.079 80.3306 58.4636C77.8295 59.0594 76.8517 61.842 78.385 64.0264C80.7579 67.4173 83.161 70.7831 85.5992 74.1212C86.0768 74.7698 86.0768 75.187 85.5992 75.8481C83.1409 79.2165 80.7152 82.6149 78.3297 86.0486C77.1181 87.7855 77.5103 89.8643 79.1617 91.003C80.7579 92.1116 82.7889 91.7722 84.0131 90.1082C85.9486 87.4663 87.8339 84.7792 89.7393 82.1147C89.9605 81.8055 90.1967 81.5164 90.4933 81.1344C90.7925 81.5064 91.0262 81.7955 91.2499 82.1047C93.1528 84.7691 95.028 87.4663 96.9736 90.0981C98.6225 92.3252 101.752 92.0914 102.966 89.7034C103.688 88.2857 103.391 86.9962 102.496 85.7595C100.136 82.4666 97.803 79.141 95.41 75.8682C94.9425 75.2172 94.9098 74.8125 95.4 74.1414C97.8357 70.8057 100.241 67.4374 102.614 64.049C103.869 62.2568 103.509 60.1352 101.848 58.984C100.219 57.8654 98.1776 58.26 96.9107 59.9668C95.9103 61.3192 94.9626 62.6941 93.9848 64.059C92.8562 65.6351 91.7275 67.2036 90.526 68.8752ZM34.1043 65.3812C35.2128 65.3812 36.1806 65.3812 37.1484 65.3812C38.1287 65.3812 39.0965 65.4114 40.0743 65.3687C41.9897 65.2857 43.4601 63.7398 43.4601 61.8747C43.4601 60.0095 41.9896 58.3882 40.0868 58.3782C33.775 58.3354 27.4557 58.3455 21.1439 58.3782C19.696 58.3782 18.6226 59.1675 18.0269 60.4871C17.0038 62.7695 18.6427 65.3058 21.1966 65.3812C23.1347 65.434 25.0702 65.3913 27.0811 65.3913C27.0811 65.9569 27.0811 66.3716 27.0811 66.7989C27.0811 73.7894 27.0811 80.7724 27.0811 87.7629C27.0811 90.0453 28.529 91.634 30.5726 91.644C32.6162 91.6541 34.0943 90.0654 34.1043 87.8056C34.1169 83.4671 34.1043 79.141 34.1043 74.8025C34.1043 71.7232 34.1043 68.6415 34.1043 65.3913V65.3812Z" fill="#20A7DB"/>
<path d="M73.8829 3.05176e-05C73.8829 8.54825 73.8829 17.107 73.8829 25.6555C73.8829 28.3946 75.2453 29.7591 77.9676 29.7591C85.9611 29.7591 93.952 29.7591 101.953 29.7591H103.295V45.1713H17.7277C17.7277 44.7239 17.7277 44.2765 17.7277 43.829C17.7277 32.1465 17.7277 20.4753 17.7277 8.79333C17.7277 3.75193 19.0046 1.83325 23.582 3.05176e-05H73.8829ZM44.6289 15.2311C41.9795 15.2311 39.3301 15.2311 36.6908 15.2311C34.3179 15.2311 32.7217 16.6382 32.7016 18.7165C32.689 20.8056 34.2852 22.2553 36.638 22.2553C41.9695 22.2553 47.301 22.2553 52.6425 22.2553C54.9953 22.2553 56.5914 20.7951 56.5688 18.706C56.5487 16.6593 54.9727 15.2311 52.6953 15.2205C50.0132 15.2205 47.321 15.2205 44.6415 15.2205L44.6289 15.2311ZM44.5133 37.2626C47.2356 37.2626 49.9604 37.2626 52.6852 37.2626C54.9626 37.2626 56.5361 35.8238 56.5587 33.7774C56.5789 31.7308 54.9953 30.2387 52.7481 30.2387C47.3437 30.2279 41.9267 30.2279 36.5199 30.2387C34.2751 30.2387 32.689 31.7416 32.7116 33.7774C32.7317 35.8238 34.3179 37.252 36.5852 37.2626C39.2346 37.2626 41.884 37.2626 44.5233 37.2626H44.5133Z" fill="white"/>
<path d="M17.7277 104.805H103.22C103.22 107.993 103.496 111.16 103.147 114.272C102.752 117.768 99.731 119.996 96.1013 119.996C84.9506 120.006 73.7974 119.996 62.6443 119.996C50.2494 119.996 37.8521 119.996 25.4547 119.996C20.6134 119.996 17.7277 117.117 17.7277 112.299C17.7277 109.848 17.7277 107.387 17.7277 104.805Z" fill="white"/>
<path d="M80.9695 2.57935C87.6734 9.30491 94.3146 15.9772 100.966 22.6603H80.9695V2.57935Z" fill="white"/>
<path d="M63.6558 78.9499H57.4847C58.4952 76.2829 59.463 73.6837 60.5715 70.7528C61.6675 73.6511 62.6352 76.2401 63.6558 78.9499Z" fill="#20A7DB"/>
</svg>
