<svg width="145" height="120" viewBox="0 0 145 120" fill="none" xmlns="http://www.w3.org/2000/svg">
<path d="M144.111 114.945C143.087 117.418 141.579 119.417 138.742 119.874C137.65 120.052 136.515 119.984 135.397 119.984C132.645 120.001 129.893 120.009 127.14 119.984C123.473 119.95 120.619 117.189 120.602 113.531C120.569 100.167 120.569 86.8037 120.602 73.4402C120.602 69.7902 123.456 67.0124 127.132 66.9786C130.443 66.9532 133.754 66.9701 137.066 66.9786C140.538 66.9786 142.587 68.4182 143.866 71.7041C143.908 71.8226 144.027 71.9158 144.111 72.0174V114.945Z" fill="white"/>
<path d="M118.291 75.4978V111.735H26.5923V75.4978H118.291ZM72.2638 86.3207C79.6316 86.3207 86.9908 86.3207 94.3586 86.3207C94.7312 86.3207 95.197 86.4478 95.4595 86.2699C95.866 85.9989 96.3487 85.5501 96.408 85.1267C96.4503 84.8218 95.8914 84.3475 95.5018 84.1189C95.2224 83.958 94.7735 84.0681 94.4009 84.0681C79.767 84.0681 65.1247 84.0681 50.4909 84.0681C50.1183 84.0681 49.6779 83.958 49.3899 84.1189C48.9919 84.3391 48.416 84.7964 48.4499 85.1012C48.4923 85.5247 48.958 85.9905 49.3645 86.2699C49.6186 86.4478 50.0844 86.3207 50.457 86.3207C57.7316 86.3207 64.9977 86.3207 72.2723 86.3207H72.2638Z" fill="white"/>
<path d="M100.616 27.0913C97.9064 27.0913 95.298 27.0913 92.6981 27.0913C91.8767 27.0913 90.9621 27.0574 90.9197 28.1583C90.8774 29.3693 91.8428 29.3609 92.7066 29.3609C95.3149 29.3609 97.9148 29.3609 100.515 29.3609C100.769 40.963 90.852 55.9271 73.542 56.486C73.542 55.1056 73.542 53.7252 73.542 52.3448C73.542 51.0322 73.5251 49.728 73.542 48.4154C73.5589 47.5855 73.3896 46.8318 72.4241 46.8063C71.4502 46.7894 71.2639 47.5346 71.2724 48.3646C71.2893 50.5664 71.2724 52.7598 71.2724 54.9617C71.2724 55.419 71.2724 55.8848 71.2724 56.3421C58.3661 56.6469 44.4945 45.4175 44.2319 29.3609C46.5015 29.3609 48.7796 29.3609 51.0492 29.3609C51.4727 29.3609 51.8876 29.3524 52.3111 29.3609C53.1579 29.3863 53.8693 29.1322 53.8439 28.1668C53.8185 27.2945 53.141 27.0743 52.3449 27.0828C50.1007 27.1082 47.865 27.0828 45.6208 27.0828C45.1635 27.0828 44.7146 27.0828 44.2573 27.0828C44.2573 13.4567 56.0119 0.262529 71.2639 0C71.2639 2.37123 71.2639 4.74245 71.2639 7.12215C71.2639 7.54558 71.1284 8.0283 71.2978 8.36704C71.5519 8.8667 72.0176 9.26472 72.3903 9.7051C72.7629 9.26472 73.4488 8.83282 73.4658 8.37551C73.5759 6.08897 73.5166 3.79396 73.5166 1.50742C73.5166 1.00777 73.5166 0.50812 73.5166 0C87.6932 0.245591 100.04 12.1017 100.582 27.0913H100.616ZM73.542 22.3912C73.542 21.5019 73.6775 20.5873 73.4912 19.7405C73.3811 19.2493 72.7713 18.8597 72.3903 18.4278C72.0261 18.8767 71.391 19.3001 71.3402 19.7828C71.1962 21.1717 71.2301 22.5859 71.3063 23.9748C71.3571 25.008 71.1284 25.6008 70.0614 26.0581C67.9696 26.9642 66.9364 29.3778 67.4615 31.5543C67.9781 33.7222 69.9682 35.3821 72.1785 35.4922C74.3719 35.6023 76.506 34.0864 77.1751 31.9523C77.8695 29.742 77.1158 27.1675 75.0748 26.2867C73.5251 25.6177 73.4573 24.6523 73.542 23.3651C73.5674 23.0432 73.542 22.713 73.542 22.3827V22.3912Z" fill="#20A7DB"/>
<path d="M0.728529 93.4425C0.728529 86.9471 0.728529 80.4516 0.728529 73.9561C0.728529 69.6794 3.43851 66.9779 7.72366 66.9695C10.9841 66.9695 14.253 66.9525 17.5134 66.9695C21.4344 66.9949 24.2291 69.7557 24.2376 73.6682C24.2545 86.8454 24.2545 100.023 24.2376 113.191C24.2376 117.197 21.4514 119.958 17.4457 119.975C14.1344 119.992 10.8232 119.992 7.51194 119.975C3.50626 119.958 0.736989 117.197 0.720052 113.191C0.703115 106.603 0.720052 100.014 0.720052 93.4256L0.728529 93.4425Z" fill="white"/>
<path d="M57.0614 73.0003V54.8688C66.6395 59.7722 76.0736 60.0686 85.7363 55.8851V72.9918H57.0614V73.0003Z" fill="white"/>
<path d="M75.21 30.3936C75.2269 31.9264 73.8973 33.2899 72.3984 33.2899C70.9757 33.2899 69.663 31.9857 69.6207 30.5037C69.5699 28.8946 70.7893 27.6667 72.4238 27.6836C74.0159 27.7006 75.2015 28.8523 75.21 30.3851V30.3936Z" fill="white"/>
</svg>
