<svg width="69" height="120" viewBox="0 0 69 120" fill="none" xmlns="http://www.w3.org/2000/svg">
<path d="M7.78872 120C5.98642 119.475 4.24334 118.839 2.89796 117.44C1.12103 115.61 0.308716 113.398 0.308716 110.872V9.52377C0.308716 5.68443 1.73026 2.6418 5.27565 0.955201C6.49411 0.370401 7.96641 0.0483316 9.32026 0.0483316C25.9303 -0.0109958 42.5487 -0.0109948 59.1502 0.0229066C64.5402 0.0229066 68.1618 3.85375 68.1618 9.41359V90.3786C68.1618 96.7013 68.0264 103.032 68.1956 109.355C68.331 114.177 66.7149 118.466 60.6649 120H7.78025H7.78872ZM6.88333 92.2093H61.5448V14.8548H6.88333V92.2093ZM34.3495 5.35391H22.6641C21.2087 5.35391 20.6841 5.91329 20.6841 7.4219C20.6841 8.93051 21.2341 9.55768 22.6387 9.55768H45.9079C47.2872 9.55768 47.8372 8.90508 47.8287 7.38799C47.8202 5.91328 47.2956 5.3539 45.9333 5.34543H34.358L34.3495 5.35391ZM34.2479 111.381C37.311 111.381 39.841 108.838 39.8156 105.795C39.7902 102.761 37.3279 100.32 34.2987 100.295C31.2103 100.269 28.6972 102.736 28.6718 105.804C28.6464 108.846 31.1849 111.381 34.2479 111.381Z" fill="white"/>
<path d="M14.9137 46.4755H54.9029C54.9029 46.6619 54.9283 46.8229 54.9283 46.9924C54.9283 54.3999 54.8944 61.8074 54.9452 69.2148C54.9621 71.7066 53.0921 73.5542 50.6213 73.5457C40.1121 73.5034 29.6029 73.5288 19.0937 73.5288C16.9783 73.5288 15.3706 72.266 14.9644 70.2827C14.9052 69.9776 14.8967 69.664 14.8967 69.3504C14.8967 61.8667 14.8967 54.3745 14.8967 46.8907C14.8967 46.7636 14.9052 46.645 14.9137 46.4755ZM20.9044 65.5026C20.9044 65.8162 20.9044 66.1298 20.9044 66.4434C20.9213 67.6554 21.7167 68.486 22.9183 68.5199C23.5698 68.5453 24.2298 68.5453 24.8898 68.5199C26.0321 68.4775 26.8444 67.7062 26.9036 66.5705C26.946 65.8501 26.946 65.1297 26.9036 64.4093C26.836 63.2906 26.0236 62.5363 24.9152 62.5108C24.2467 62.4939 23.5698 62.4939 22.9013 62.5108C21.7506 62.5363 20.9467 63.3499 20.9213 64.511C20.9129 64.8416 20.9213 65.1721 20.9213 65.4942L20.9044 65.5026ZM48.9121 54.5186C48.9121 54.1711 48.9121 53.8321 48.9121 53.4846C48.8783 52.3319 48.0913 51.5183 46.9321 51.4675C46.2636 51.442 45.5867 51.442 44.9183 51.4675C43.7844 51.5098 42.9721 52.298 42.9213 53.4253C42.8875 54.1287 42.8875 54.8322 42.9213 55.5356C42.9806 56.6713 43.7929 57.451 44.9267 57.468C45.629 57.4849 46.3313 57.4849 47.0336 57.468C48.0575 57.4256 48.8529 56.6289 48.9036 55.595C48.9206 55.239 48.9036 54.8745 48.9036 54.5186H48.9121ZM34.959 62.5108C34.629 62.5108 34.299 62.5108 33.9775 62.5108C32.7421 62.5363 31.9213 63.3584 31.9129 64.5873C31.9129 65.2145 31.9129 65.8416 31.9129 66.4688C31.9298 67.6215 32.7083 68.4605 33.859 68.5199C34.5613 68.5538 35.2637 68.5538 35.966 68.5199C37.066 68.4605 37.8698 67.6638 37.9036 66.6044C37.929 65.8671 37.929 65.1297 37.9036 64.4008C37.8613 63.3838 37.049 62.5786 36.0336 62.5278C35.6783 62.5108 35.3144 62.5278 34.959 62.5278V62.5108ZM34.9083 57.468C35.2552 57.468 35.5937 57.4765 35.9406 57.468C37.0829 57.4341 37.8952 56.6035 37.9206 55.4509C37.929 54.8067 37.9206 54.1626 37.9206 53.527C37.9036 52.3743 37.1252 51.5268 35.9829 51.4675C35.2806 51.4336 34.5783 51.4336 33.876 51.4675C32.7844 51.5183 31.9636 52.3235 31.9298 53.3744C31.9044 54.1118 31.9044 54.8491 31.9298 55.578C31.9636 56.595 32.776 57.4087 33.7913 57.4595C34.1636 57.4765 34.5444 57.4595 34.9167 57.4595L34.9083 57.468ZM23.866 57.468C24.196 57.468 24.526 57.468 24.8475 57.468C26.0321 57.4426 26.8529 56.6628 26.9036 55.4763C26.929 54.8067 26.929 54.1287 26.9036 53.4591C26.8613 52.315 26.0744 51.5183 24.9406 51.459C24.2383 51.4251 23.536 51.4251 22.8337 51.459C21.6998 51.5183 20.9298 52.3404 20.9044 53.4761C20.8875 54.1457 20.8875 54.8237 20.9044 55.4933C20.9298 56.6035 21.7336 57.4087 22.8252 57.4595C23.1721 57.4765 23.5106 57.4595 23.8575 57.4595L23.866 57.468ZM48.9206 65.5111C48.9206 65.1636 48.929 64.8246 48.9206 64.4771C48.8867 63.3414 48.0829 62.5363 46.9575 62.5024C46.2975 62.4854 45.646 62.4854 44.986 62.5024C43.776 62.5193 42.9552 63.3245 42.9213 64.528C42.9044 65.189 42.896 65.8416 42.9213 66.5027C42.9637 67.6554 43.7675 68.469 44.9183 68.5114C45.5867 68.5368 46.2636 68.5368 46.9321 68.5114C48.1167 68.4605 48.8952 67.6384 48.9121 66.4519C48.9121 66.1383 48.9121 65.8247 48.9121 65.5111H48.9206Z" fill="#20A7DB"/>
<path d="M41.9395 34.4496C41.7957 36.0345 42.0918 37.4499 43.361 38.5008C44.1649 39.1704 45.0957 39.4755 46.1449 39.4162C47.3972 39.3399 48.3872 38.789 49.1403 37.8058C49.8933 36.8227 49.9949 35.6785 49.9187 34.5089C52.6941 33.9919 54.7503 35.848 54.8772 37.9923C54.9957 40.0857 54.911 42.1876 54.9195 44.2895C54.9195 44.3319 54.8941 44.3742 54.8687 44.442H14.9303C14.9218 44.281 14.9049 44.1454 14.9049 44.0098C14.9049 42.2045 14.8964 40.4078 14.9049 38.6025C14.9218 36.1192 16.6141 34.4411 19.1103 34.4326C19.3557 34.4326 19.601 34.4326 19.8549 34.4326C19.8972 35.0344 19.8803 35.6022 19.9733 36.1447C20.3287 38.2126 22.131 39.5687 24.2803 39.4162C26.2095 39.2806 27.8003 37.6024 27.8764 35.6107C27.8934 35.2378 27.8764 34.8649 27.8764 34.4581H41.931L41.9395 34.4496Z" fill="#20A7DB"/>
<path d="M43.9198 34.382C43.9198 34.0514 43.9198 33.7209 43.9198 33.3988C43.9452 32.3479 44.7321 31.5088 45.7475 31.4241C46.7967 31.3393 47.7613 32.0513 47.8713 33.1107C47.9559 33.9752 47.9559 34.8651 47.8713 35.7296C47.7698 36.7975 46.8136 37.5094 45.7559 37.4246C44.7406 37.3484 43.9452 36.5093 43.9198 35.4583C43.9113 35.1024 43.9198 34.7379 43.9198 34.382Z" fill="#20A7DB"/>
<path d="M25.8972 34.4491C25.8972 34.7966 25.9056 35.1356 25.8972 35.4831C25.8633 36.5256 25.0595 37.3646 24.0356 37.4239C23.0033 37.4918 22.0556 36.7883 21.9541 35.7458C21.8695 34.8644 21.8695 33.9575 21.9541 33.0846C22.0556 32.0421 23.0118 31.3471 24.0441 31.4149C25.0425 31.4827 25.8464 32.2964 25.8972 33.3219C25.9141 33.6948 25.8972 34.0762 25.8972 34.4491Z" fill="#20A7DB"/>
</svg>
