<svg width="111" height="120" viewBox="0 0 111 120" fill="none" xmlns="http://www.w3.org/2000/svg">
<path d="M13.7773 0C16.7517 0.57806 19.2321 2.23867 21.8071 3.67857C41.2509 14.5566 60.6842 25.4346 80.1281 36.3022C80.4329 36.4703 80.7272 36.6595 80.9059 36.7646C75.0938 42.5768 69.2816 48.3784 63.5641 54.1064C45.7178 36.2601 27.7453 18.2877 9.79395 0.336326C9.97262 0.252244 10.2354 0.126122 10.4981 0C11.5912 0 12.6843 0 13.7773 0Z" fill="white"/>
<path d="M57.7308 60.0653C39.5062 78.29 21.1449 96.6513 2.71003 115.097C1.31218 113.373 0.650064 111.26 0.43986 108.98C0.397819 108.549 0.418819 108.118 0.418819 107.687C0.418819 75.8937 0.418819 44.1003 0.418819 12.2965C0.418819 9.56388 1.08096 7.07297 2.64697 4.96042C21.0608 23.3743 39.4326 41.7566 57.7308 60.0548V60.0653Z" fill="white"/>
<path d="M9.67871 119.69C27.7352 101.633 45.6761 83.6925 63.5224 65.8462C69.2715 71.5953 75.0836 77.4074 80.9167 83.2406C78.3417 84.6804 75.6196 86.2044 72.908 87.7284C54.5992 97.9758 36.2905 108.234 17.9818 118.471C15.4068 119.911 12.6741 120.373 9.67871 119.69Z" fill="white"/>
<path d="M69.1869 59.887C70.1013 59.0147 70.9947 58.1949 71.846 57.3435C77.038 52.162 82.2511 46.9805 87.4011 41.7569C88.1263 41.0317 88.6202 41.0212 89.461 41.5047C94.2011 44.2058 98.9938 46.8334 103.744 49.524C110.303 53.2551 112.174 61.3164 107.717 67.0444C106.666 68.3897 105.226 69.5564 103.755 70.4287C98.9518 73.256 94.033 75.9045 89.1773 78.6372C88.5992 78.963 88.2314 79.0576 87.6743 78.5111C81.652 72.4362 75.5981 66.4033 69.5547 60.36C69.4706 60.2759 69.4076 60.1813 69.1869 59.8975V59.887Z" fill="#20A7DB"/>
</svg>
