<svg width="124" height="120" viewBox="0 0 124 120" fill="none" xmlns="http://www.w3.org/2000/svg">
<path d="M117.725 3.05176e-05C118.049 0.111037 118.374 0.230749 118.726 0.341492C121.65 1.28914 123.68 3.85021 123.707 6.84661C123.734 17.9019 123.761 28.9486 123.707 40.0039C123.68 43.7589 120.567 46.8333 116.75 46.8491C103.242 46.9019 89.7064 46.8755 76.1981 46.8491C75.8462 46.8491 75.3318 46.5433 75.1152 46.2269C68.7265 36.7684 55.5432 36.7512 49.1816 46.1847C48.965 46.5248 48.3963 46.8412 47.9903 46.8412C34.5632 46.8755 21.1361 46.8834 7.70898 46.8597C4.51463 46.8597 1.86161 44.861 0.859995 41.8905C0.778782 41.6002 0.670539 41.3015 0.562256 41.0111C0.562256 29.29 0.562256 17.5776 0.562256 5.8565C1.37438 2.75754 3.40494 0.802655 6.57222 3.05176e-05C43.6321 3.05176e-05 80.6647 3.05176e-05 117.725 3.05176e-05ZM77.0372 23.3827C77.0372 26.3875 77.0101 29.3926 77.0372 32.4061C77.0372 34.6257 78.1471 35.7013 80.421 35.7184C82.4784 35.7355 84.5087 35.7269 86.5661 35.6928C90.0041 35.6245 92.5758 34.0707 93.9835 31.0316C95.4182 27.984 94.904 25.0815 92.7112 22.5118C92.3052 22.0253 92.224 21.6838 92.4677 21.0861C94.3897 16.2542 91.0059 11.3285 85.7 11.1664C83.9404 11.1152 82.1806 11.1408 80.3939 11.1664C78.12 11.192 77.0371 12.2762 77.0101 14.4958C77.0101 17.4666 77.0101 20.4287 77.0101 23.3996L77.0372 23.3827ZM72.2188 20.8129C72.2188 18.6276 72.2459 16.4422 72.2188 14.2566C72.1917 12.6775 71.271 11.5163 69.8904 11.2347C67.9143 10.8249 66.2359 12.1225 66.2359 14.197C66.1818 18.2945 66.2359 22.4008 66.1818 26.4985C66.1818 27.1901 65.9381 27.9925 65.505 28.5304C64.5304 29.7768 62.4733 30.1865 61.0115 29.6146C59.3872 28.9741 58.8186 28.0692 58.8186 26.1315C58.8186 22.1447 58.8456 18.1667 58.7915 14.1799C58.7915 12.114 57.1132 10.8162 55.137 11.2431C53.7293 11.5418 52.809 12.7286 52.809 14.3932C52.7819 18.4143 52.836 22.435 52.7819 26.4558C52.7548 29.9474 54.2979 32.5512 57.3028 34.3183C60.5784 36.2305 63.962 36.2136 67.2917 34.506C70.5944 32.8159 72.273 30.1267 72.2188 26.4389C72.2188 24.5608 72.2188 22.6911 72.2188 20.8129ZM39.3007 35.7184C39.5714 35.7013 40.1399 35.6841 40.7084 35.6158C45.0397 35.0866 48.2609 31.5779 47.9361 27.5572C47.6925 24.3045 45.554 22.4008 42.6845 21.1544C41.0061 20.4287 39.2465 19.8397 37.5681 19.1312C37.1891 18.9775 36.6478 18.4311 36.702 18.269C36.8644 17.8592 37.2704 17.3812 37.6765 17.2617C39.3007 16.775 40.8436 16.9799 42.1971 18.0557C43.7401 19.2849 45.4185 19.2422 46.5825 17.9702C47.7466 16.7067 47.5573 14.9055 46.1226 13.5993C43.0906 10.8334 37.3786 10.3126 33.8865 12.5407C31.5314 14.0605 30.3401 16.2458 30.6378 19.0117C30.9085 21.59 32.3164 23.4082 34.8339 24.3899C36.377 25.0045 37.947 25.6107 39.49 26.2338C40.0044 26.4389 40.5189 26.6438 41.0061 26.9254C42.2514 27.6766 42.2514 28.6583 41.0061 29.3414C40.4377 29.6486 39.7339 29.8024 39.0571 29.8195C37.4058 29.8535 35.9708 29.2217 34.7526 28.0864C33.372 26.806 31.5583 26.8059 30.3672 28.0009C29.149 29.2217 29.2304 30.9462 30.584 32.278C32.885 34.5574 35.7273 35.633 39.2736 35.7184H39.3007Z" fill="#20A7DB"/>
<path d="M46.9894 78.7854C46.9894 84.1301 46.9894 89.4748 46.9894 94.8194C46.9894 95.3573 47.0167 95.919 47.1791 96.4331C47.6934 98.0547 49.2903 99.0699 50.9687 98.8906C52.6471 98.7034 54.0008 97.3876 54.1632 95.7318C54.2174 95.3046 54.1903 94.8695 54.1903 94.4424C54.1903 81.0055 54.1903 67.5766 54.1903 54.1398C54.1903 49.805 57.4389 46.3798 61.689 46.1847C66.2369 45.9711 69.9996 49.3778 70.0537 53.8576C70.1079 59.4845 70.0808 65.1007 70.0808 70.7275C70.0808 71.1547 70.0808 71.5818 70.0808 72.3913C71.5968 68.0644 74.4121 65.7757 78.8517 66.1686C82.5875 66.5008 84.8614 68.808 85.8901 72.5126C87.6226 67.6794 90.871 65.1271 95.9874 66.4428C101.293 67.8166 102.214 72.0591 101.97 76.7973C102.106 76.4123 102.241 76.0195 102.403 75.6451C103.757 72.299 107.466 70.2582 111.012 70.8805C114.829 71.5555 117.644 74.5429 117.671 78.2475C117.725 85.1637 117.915 92.0772 117.617 98.9855C117.292 107.231 113.556 113.967 106.87 119.072C106.166 119.602 105.11 119.961 104.244 119.961C88.3536 120.011 72.4902 120.019 56.6268 119.95C55.6522 119.95 54.4609 119.457 53.7571 118.809C50.7793 116.085 47.964 113.19 45.0404 110.397C36.1341 101.828 36.0528 89.1663 44.9049 80.5098C45.5005 79.906 46.069 79.2468 46.6646 78.6061L46.9894 78.8039V78.7854Z" fill="white"/>
<path d="M83.1018 29.794V25.7477C84.4824 25.7477 85.8631 25.6195 87.1895 25.7904C88.2723 25.927 88.7869 26.8319 88.7056 27.8734C88.6515 28.9062 88.0559 29.683 86.946 29.7684C85.7007 29.871 84.4283 29.794 83.1018 29.794Z" fill="#20A7DB"/>
<path d="M83.1018 17.0401C84.0493 17.0401 84.9158 16.9974 85.755 17.057C86.5671 17.1084 86.9731 17.6204 86.9731 18.3803C86.9731 19.14 86.5671 19.6523 85.755 19.7035C84.8888 19.7633 84.0222 19.7206 83.1018 19.7206V17.0401Z" fill="#20A7DB"/>
</svg>
