<svg width="111" height="120" viewBox="0 0 111 120" fill="none" xmlns="http://www.w3.org/2000/svg">
<path d="M18.6168 120C19.5138 119.769 20.4197 119.565 21.3078 119.298C28.8566 117.078 34.0165 109.485 32.8708 101.918C32.5422 99.769 31.6364 97.6465 30.6595 95.6838C28.1284 90.5505 20.9259 81.3054 16.5032 77.229C14.4339 79.6091 12.338 81.9626 10.2953 84.3782C7.24027 87.9928 4.57597 91.8738 2.27579 96.0212C-3.93203 107.229 4.47828 118.659 14.2119 119.813C14.354 119.831 14.4872 119.938 14.6293 120H18.6168Z" fill="#20A7DB"/>
<path d="M71.9024 17.5844H61.3961V10.5151H78.9095V3.508H61.3517V0H54.2913V3.41031H36.7158V10.4885H54.1937V17.5045H43.7496C43.7229 18.0551 43.6874 18.4636 43.6874 18.881C43.6874 22.0871 43.5631 25.2931 43.7141 28.4903C43.9095 32.5311 41.0942 35.2132 37.0888 35.1777C22.8348 35.0622 10.6679 43.9432 6.32505 57.3624C4.9485 61.6164 4.64654 65.977 4.8508 70.4797H29.5489C29.5489 69.5471 29.5489 68.6235 29.5489 67.6999C29.5666 62.8331 32.4263 59.9645 37.2665 59.9645C53.5276 59.9645 69.7798 59.9645 86.0409 59.9645H87.3464V35.2665C85.9521 35.2665 84.5223 35.2665 83.0836 35.2665C81.6804 35.2665 80.2683 35.2931 78.8651 35.2665C74.6821 35.1688 71.9379 32.3801 71.9024 28.1883C71.8846 25.1421 71.9024 22.0959 71.9024 19.0409C71.9024 18.6146 71.9024 18.1883 71.9024 17.5755V17.5844Z" fill="white"/>
<path d="M110.704 28.1881C107.631 28.3036 104.54 27.7707 101.53 28.6677C97.3377 29.9111 94.4248 33.6766 94.3626 38.0727C94.2738 44.4404 94.256 50.808 94.3626 57.1668C94.4603 62.6109 98.883 66.8827 104.318 66.9981C106.423 67.0425 108.528 66.9981 110.713 66.9981V28.1793L110.704 28.1881Z" fill="white"/>
</svg>
