<svg width="500" height="500" viewBox="0 0 500 500" fill="none" xmlns="http://www.w3.org/2000/svg">
<path d="M214.855 270.58L99.3867 165.268L46.7304 223.002L162.199 328.314L214.855 270.58Z" fill="#79A73A"/>
<path d="M181.738 272.104L100.91 198.385L79.8476 221.479L160.676 295.197L181.738 272.104Z" fill="#AAC16B"/>
<path d="M130.91 270.041C117.966 270.041 107.473 259.548 107.473 246.604C107.473 233.659 117.966 223.166 130.91 223.166C143.854 223.166 154.348 233.659 154.348 246.604C154.348 259.548 143.854 270.041 130.91 270.041Z" fill="#79A73A"/>
<path d="M359.375 304.688H125V464.844C125 467.952 126.235 470.932 128.432 473.13C130.63 475.328 133.611 476.562 136.719 476.562H347.656C350.764 476.562 353.745 475.328 355.943 473.13C358.14 470.932 359.375 467.952 359.375 464.844V304.688Z" fill="#FBB540"/>
<path d="M351.562 304.688H125V320.312H351.562V304.688Z" fill="#EA9D2D"/>
<path d="M273.438 304.688H210.938V476.562H273.438V304.688Z" fill="#E82F3E"/>
<path d="M359.375 367.188H125V414.062H359.375V367.188Z" fill="#FF3444"/>
<path d="M261.884 24.8594L117.196 83.7656L146.649 156.109L291.337 97.2031L261.884 24.8594Z" fill="#79A73A"/>
<path d="M260.918 84.4355L249.138 55.498L147.856 96.7324L159.638 125.67L260.918 84.4355Z" fill="#AAC16B"/>
<path d="M204.277 114.032C191.333 114.032 180.84 103.539 180.84 90.5947C180.84 77.6506 191.333 67.1572 204.277 67.1572C217.221 67.1572 227.715 77.6506 227.715 90.5947C227.715 103.539 217.221 114.032 204.277 114.032Z" fill="#79A73A"/>
<path d="M56.4804 23.4375L46.2695 44.127L23.4375 47.4453L39.959 63.5498L36.0586 86.29L56.4804 75.5537L76.9023 86.29L73.0029 63.5498L89.5244 47.4453L66.6914 44.127L56.4804 23.4375Z" fill="#E82F3E"/>
<path d="M62.5 148.438C53.8706 148.438 46.875 141.442 46.875 132.812C46.875 124.183 53.8706 117.188 62.5 117.188C71.1295 117.188 78.125 124.183 78.125 132.812C78.125 141.442 71.1295 148.438 62.5 148.438Z" fill="#009CF7"/>
<path d="M62.5 132.812C58.1853 132.812 54.6875 129.315 54.6875 125C54.6875 120.685 58.1853 117.188 62.5 117.188C66.8148 117.188 70.3125 120.685 70.3125 125C70.3125 129.315 66.8148 132.812 62.5 132.812Z" fill="#41B2FF"/>
<path d="M367.188 85.9375C354.243 85.9375 343.75 75.4442 343.75 62.5C343.75 49.5558 354.243 39.0625 367.188 39.0625C380.132 39.0625 390.625 49.5558 390.625 62.5C390.625 75.4442 380.132 85.9375 367.188 85.9375Z" fill="#029532"/>
<path d="M359.375 62.5C355.06 62.5 351.562 59.0022 351.562 54.6875C351.562 50.3728 355.06 46.875 359.375 46.875C363.69 46.875 367.188 50.3728 367.188 54.6875C367.188 59.0022 363.69 62.5 359.375 62.5Z" fill="#02A437"/>
<path d="M436.26 328.001L252.922 169.853C250.569 167.824 247.506 166.812 244.408 167.041C241.309 167.269 238.428 168.719 236.398 171.072L203.238 209.514L404.317 382.966L437.477 344.524C439.507 342.172 440.519 339.109 440.29 336.01C440.062 332.911 438.611 330.03 436.259 328.001H436.26Z" fill="#FBB540"/>
<path d="M273.438 304.688H210.938V320.312H273.438V304.688Z" fill="#961B20"/>
<path d="M233.523 246.138L249.902 248.171C275.215 251.314 300.739 244.274 320.86 228.599L303.109 213.293C292.162 203.811 285.422 190.374 284.37 175.929C283.317 161.484 288.038 147.212 297.496 136.243C306.953 125.274 320.376 118.505 334.818 117.421C349.261 116.337 363.544 121.026 374.533 130.459C385.518 139.93 392.29 153.377 393.36 167.842C394.43 182.306 389.71 196.603 380.239 207.588C389.711 196.603 403.157 189.831 417.622 188.761C432.086 187.691 446.384 192.411 457.368 201.882C468.353 211.354 475.125 224.802 476.194 239.267C477.263 253.733 472.543 268.03 463.07 279.015C453.598 289.999 440.15 296.771 425.685 297.841C411.22 298.91 396.922 294.189 385.937 284.717L368.187 269.411C355.643 291.62 352.435 317.902 359.269 342.477L363.689 358.374L329.004 338.783L302.681 357.348L303.125 331.152C303.504 308.657 311.757 287.007 326.448 269.968C311.757 287.007 291.556 298.356 269.361 302.04L243.517 306.33L258.008 277.563L233.523 246.138ZM406.348 261.05C409.858 264.077 414.187 265.996 418.788 266.563C423.389 267.13 428.054 266.32 432.194 264.235C436.335 262.151 439.764 258.885 442.048 254.852C444.333 250.818 445.37 246.198 445.029 241.575C444.687 236.952 442.982 232.534 440.13 228.88C437.278 225.226 433.406 222.5 429.005 221.046C424.603 219.592 419.869 219.477 415.402 220.713C410.934 221.95 406.934 224.484 403.906 227.994L388.601 245.745L406.348 261.05ZM323.513 189.626L341.263 204.932L356.568 187.181C359.596 183.67 361.514 179.341 362.081 174.74C362.648 170.14 361.838 165.474 359.754 161.334C357.669 157.194 354.404 153.764 350.37 151.48C346.337 149.195 341.716 148.158 337.093 148.5C332.471 148.841 328.053 150.546 324.399 153.398C320.745 156.25 318.018 160.122 316.565 164.524C315.111 168.925 314.995 173.659 316.232 178.127C317.469 182.594 320.002 186.595 323.513 189.622V189.626Z" fill="#FF3444"/>
<path d="M303.125 331.152C303.504 308.657 311.757 287.007 326.448 269.968L380.235 207.588C389.707 196.603 403.154 189.831 417.618 188.761C432.082 187.691 446.38 192.411 457.364 201.882C468.349 211.354 475.121 224.801 476.191 239.266C477.26 253.731 472.54 268.028 463.068 279.013C453.597 289.997 440.149 296.769 425.684 297.839C411.219 298.909 396.922 294.189 385.937 284.717L368.187 269.411C355.643 291.62 352.435 317.902 359.269 342.477L363.689 358.374L329.004 338.783L302.681 357.348L303.125 331.152ZM406.348 261.05C409.858 264.077 414.187 265.996 418.788 266.563C423.389 267.13 428.054 266.32 432.194 264.235C436.335 262.151 439.764 258.885 442.048 254.852C444.333 250.818 445.37 246.198 445.029 241.575C444.687 236.952 442.982 232.534 440.13 228.88C437.278 225.226 433.406 222.5 429.005 221.046C424.603 219.592 419.869 219.477 415.402 220.713C410.934 221.95 406.934 224.484 403.906 227.994L388.601 245.745L406.348 261.05Z" fill="#E82F3E"/>
</svg>
