<svg width="500" height="305" viewBox="0 0 500 305" fill="none" xmlns="http://www.w3.org/2000/svg">
<path d="M55.4417 63.9261V49.8525H77.3206V63.9261H91.7181V80.6964H77.3206V102.533C77.3206 106.289 78.7836 108.614 81.7208 109.51C84.27 110.405 87.6061 110.503 91.7181 109.793V127.405C87.7169 128.005 83.472 128.3 78.9831 128.3C70.5707 128.3 64.5524 126.269 60.9281 122.218C57.2705 118.168 55.4417 111.868 55.4417 103.308V80.6855H47.6722V63.9152H55.4417V63.9261Z" fill="#1B1464"/>
<path d="M100.916 127.295V63.9257H121.82L122.851 70.957C126.397 65.5962 132.981 62.8885 142.613 62.8557V81.0891C129.434 81.0891 122.851 85.9259 122.851 95.6103V127.295H100.916Z" fill="#1B1464"/>
<path d="M174.326 62.8013C179.047 62.8013 183.148 63.5656 186.639 65.0832C190.12 66.6009 192.647 68.7299 194.21 71.4704L195.24 63.9259H216.144V127.295H195.24L194.21 119.751C192.724 122.524 190.253 124.653 186.784 126.138C183.314 127.623 179.169 128.365 174.326 128.365C165.947 128.365 158.942 125.308 153.3 119.194C147.659 113.156 144.844 105.295 144.844 95.6105C144.844 85.9261 147.659 78.0868 153.3 71.9726C158.942 65.8584 165.947 62.8013 174.326 62.8013ZM170.724 106.136C173.317 108.8 176.565 110.132 180.488 110.132C184.412 110.132 187.626 108.8 190.253 106.136C192.88 103.515 194.198 99.9997 194.198 95.6105C194.198 91.2214 192.88 87.6948 190.253 85.0308C187.626 82.4104 184.367 81.0893 180.488 81.0893C176.609 81.0893 173.273 82.3995 170.724 85.0308C168.097 87.6948 166.778 91.2214 166.778 95.6105C166.778 99.9997 168.097 103.504 170.724 106.136Z" fill="#1B1464"/>
<path d="M253.049 62.8012C257.771 62.8012 261.872 63.5655 265.363 65.0831C268.843 66.6008 271.37 68.7298 272.933 71.4703V40.8556H294.867V127.295H273.964L272.933 119.751C271.448 122.524 268.976 124.653 265.507 126.138C262.038 127.623 257.893 128.365 253.049 128.365C244.67 128.365 237.665 125.308 232.024 119.194C226.382 113.156 223.567 105.295 223.567 95.6104C223.567 85.926 226.382 78.0867 232.024 71.9725C237.665 65.8583 244.67 62.8012 253.049 62.8012ZM259.223 110.132C263.113 110.132 266.36 108.8 268.987 106.136C271.614 103.515 272.933 99.9996 272.933 95.6104C272.933 91.2213 271.614 87.6947 268.987 85.0307C266.36 82.4103 263.102 81.0892 259.223 81.0892C255.343 81.0892 252.007 82.3994 249.458 85.0307C246.831 87.6947 245.512 91.2213 245.512 95.6104C245.512 99.9996 246.842 103.504 249.513 106.136C252.14 108.8 255.377 110.132 259.223 110.132Z" fill="#1B1464"/>
<path d="M351.648 71.4701L352.678 63.9257H373.582V122.786C373.582 128.9 372.063 134.173 369.015 138.595C365.967 142.952 361.889 146.173 356.79 148.28C351.614 150.376 345.729 151.435 339.134 151.435C325.768 151.435 315.05 147.013 306.97 138.159L317.078 126.738C321.833 131.881 328.616 134.446 337.416 134.446C341.34 134.446 344.687 133.3 347.469 131.018C350.251 128.725 351.636 125.668 351.636 121.847V117.174C348.821 122.316 342.193 124.882 331.753 124.882C327.674 124.882 323.828 124.15 320.215 122.687C316.59 121.224 313.454 119.161 310.794 116.497C308.123 113.833 306.039 110.568 304.543 106.703C303.035 102.838 302.282 98.6892 302.282 94.2673C302.282 85.2271 305.119 77.7044 310.794 71.6994C316.468 65.7708 323.451 62.812 331.764 62.812C336.485 62.812 340.586 63.5763 344.077 65.0939C347.558 66.6115 350.085 68.7406 351.648 71.4811V71.4701ZM337.937 107.544C341.783 107.544 345.042 106.288 347.702 103.777C350.329 101.222 351.648 98.056 351.648 94.2673C351.648 90.4787 350.329 87.3234 347.702 84.8122C345.031 82.3338 341.783 81.1 337.937 81.1C334.091 81.1 330.932 82.3338 328.228 84.8122C325.557 87.3234 324.227 90.4787 324.227 94.2673C324.227 98.056 325.557 101.266 328.228 103.777C330.888 106.288 334.136 107.544 337.937 107.544Z" fill="#20A7DB"/>
<path d="M430.251 126.105C426.029 127.525 421.495 128.245 416.652 128.245C411.808 128.245 407.286 127.535 403.052 126.105C393.953 123.026 387.569 117.491 383.911 109.499C381.972 105.339 380.996 100.699 380.996 95.5997C380.996 90.5009 381.972 85.8825 383.911 81.6463C387.524 73.7306 393.909 68.195 403.052 65.0506C407.275 63.6203 411.808 62.9106 416.652 62.9106C421.495 62.9106 426.018 63.6203 430.251 65.0506C439.395 68.206 445.791 73.7415 449.448 81.6463C451.354 85.9262 452.308 90.5774 452.308 95.5997C452.308 100.622 451.354 105.295 449.448 109.499C445.757 117.491 439.351 123.026 430.251 126.105ZM406.832 106.125C409.459 108.789 412.739 110.121 416.663 110.121C420.587 110.121 423.801 108.789 426.428 106.125C429.054 103.505 430.373 99.9889 430.373 95.5997C430.373 91.2106 429.054 87.684 426.428 85.02C423.801 82.3996 420.542 81.0785 416.663 81.0785C412.784 81.0785 409.47 82.3887 406.832 85.02C404.205 87.684 402.886 91.2106 402.886 95.5997C402.886 99.9889 404.205 103.494 406.832 106.125Z" fill="#20A7DB"/>
<path d="M490.778 54.3399C490.457 53.4446 490.036 52.5602 489.504 51.7195C473.654 21.0721 441.368 0 404.139 0H42.5496C19.0526 0 0 18.7684 0 41.915V220.013C0 243.159 19.0526 261.928 42.5496 261.928H72.2313C77.1746 286.45 99.1976 305 125.532 305C151.866 305 173.823 286.45 178.833 261.928H321.278C326.221 286.45 348.244 305 374.579 305C400.913 305 422.87 286.45 427.879 261.928H457.45C480.947 261.928 500 243.159 500 220.013V94.4752C500 80.1178 496.653 66.5465 490.801 54.3399H490.778ZM125.465 284.048C107.222 284.048 92.4366 269.429 92.4366 251.512C92.4366 233.595 108.364 217.938 127.438 219.03C143.853 219.969 157.275 233.027 158.461 249.175C159.858 268.107 144.518 284.048 125.465 284.048ZM374.501 284.048C355.537 284.048 340.253 268.249 341.483 249.317C342.536 233.104 355.97 219.925 372.429 218.932C391.603 217.775 407.519 232.82 407.574 251.403C407.519 269.483 392.678 284.048 374.49 284.048H374.501ZM478.697 186.068H453.028C448.074 186.068 443.541 189.289 442.399 194.038C440.759 200.873 446.056 207.02 452.74 207.02H478.697V220.067C478.697 231.597 469.177 241.03 457.417 241.03H427.735C422.792 216.508 400.769 197.958 374.435 197.958C348.1 197.958 326.144 216.508 321.134 241.03H178.766C173.823 216.508 151.8 197.958 125.465 197.958C99.131 197.958 77.1746 216.508 72.1648 241.03H42.5386C30.79 241.03 21.2582 231.652 21.2582 220.067V41.9696C21.2582 30.3963 30.779 21.0066 42.5386 21.0066H404.083C404.903 21.0066 405.712 21.0175 406.522 21.0503C431.537 21.8473 454.236 35.7571 466.96 56.993L468.999 60.3995C474.796 70.073 478.298 80.9803 478.664 92.2042C478.686 92.9794 478.697 93.7437 478.697 94.5298V186.068Z" fill="#1B1464"/>
<path d="M216.708 194.508C218.759 195.076 220.554 196.386 222.117 198.439C223.68 200.546 224.467 203.057 224.467 205.983C224.467 209.848 223.081 212.949 220.31 215.318C217.517 217.687 214.07 218.867 209.98 218.867H183.934V172.235H208.296C212.452 172.235 215.91 173.327 218.659 175.521C221.408 177.738 222.782 180.751 222.782 184.562C222.782 187.226 222.228 189.409 221.131 191.112C220.033 192.816 218.559 193.951 216.708 194.508ZM205.447 182.476H197.456V190.578H205.447C206.5 190.578 207.398 190.195 208.141 189.42C208.883 188.645 209.249 187.684 209.249 186.505C209.249 185.326 208.883 184.398 208.141 183.623C207.398 182.858 206.511 182.465 205.447 182.465V182.476ZM197.456 208.625H207.132C208.185 208.625 209.094 208.232 209.836 207.457C210.579 206.682 210.956 205.71 210.956 204.564C210.956 203.417 210.59 202.457 209.848 201.703C209.105 200.95 208.207 200.568 207.121 200.568H197.445V208.636L197.456 208.625Z" fill="#1B1464"/>
<path d="M256.92 199.541L256.953 172.224H270.453V198.7C270.453 205.404 268.646 210.525 265.033 214.084C261.398 217.665 256.432 219.456 250.115 219.456C243.797 219.456 238.81 217.676 235.163 214.128C231.528 210.568 229.71 205.437 229.71 198.711V172.235H243.243V199.552C243.243 202.02 243.842 203.93 245.039 205.273C246.236 206.616 247.931 207.293 250.104 207.293C252.276 207.293 253.961 206.616 255.136 205.273C256.311 203.93 256.898 202.02 256.898 199.552L256.92 199.541Z" fill="#1B1464"/>
<path d="M313.878 185.457L300.378 186.363C299.957 183.393 298.272 181.887 295.324 181.843C293.717 181.843 292.487 182.16 291.622 182.804C290.758 183.448 290.336 184.332 290.336 185.457C290.336 186.581 290.957 187.389 292.187 187.99C292.93 188.383 294.16 188.841 295.856 189.387C296.665 189.628 298.35 190.141 300.91 190.916C301.897 191.222 303.315 191.724 305.166 192.412C307.671 193.405 309.832 194.628 311.639 196.058C312.936 197.117 313.878 198.329 314.443 199.683C315.019 201.037 315.319 202.708 315.363 204.673C315.319 209.51 313.567 213.178 310.109 215.668C306.629 218.179 301.863 219.445 295.812 219.445C289.76 219.445 285.094 218.179 281.547 215.635C278 213.145 276.149 209.466 276.005 204.607L289.538 203.701C289.694 205.35 290.314 206.605 291.423 207.479C292.52 208.341 293.972 208.778 295.778 208.778C297.585 208.778 299.048 208.451 300.101 207.785C301.154 207.119 301.697 206.19 301.719 204.968C301.631 203.363 300.312 202.009 297.762 200.906C296.621 200.426 294.925 199.847 292.675 199.148C291.046 198.668 289.937 198.329 289.339 198.144C288.109 197.729 287.144 197.401 286.468 197.139C285.415 196.768 284.54 196.408 283.864 196.069C281.946 195.141 280.638 194.29 279.94 193.536C278.754 192.324 277.967 191.156 277.59 190.021C277.058 188.416 276.803 186.723 276.803 184.944C276.803 181.996 277.635 179.506 279.308 177.465C280.982 175.423 283.176 173.938 285.914 173.01C288.618 172.104 291.766 171.645 295.357 171.645C300.788 171.645 305.199 172.814 308.569 175.161C311.916 177.541 313.689 180.98 313.889 185.468L313.878 185.457Z" fill="#1B1464"/>
</svg>
